<svg width="40" height="40" viewBox="0 0 40 40" fill="none" xmlns="http://www.w3.org/2000/svg">
<path d="M35.0003 19.9999C35.0003 20.8016 34.3503 21.4515 33.5486 21.4515C32.7469 21.4515 32.097 20.8016 32.097 19.9999C32.097 19.1982 32.7469 18.5483 33.5486 18.5483C34.3503 18.5483 35.0003 19.1982 35.0003 19.9999Z" stroke="#333333" stroke-width="1.5"/>
<path d="M7.90323 19.9999C7.90323 20.8016 7.25332 21.4515 6.45161 21.4515C5.64991 21.4515 5 20.8016 5 19.9999C5 19.1982 5.64991 18.5483 6.45161 18.5483C7.25332 18.5483 7.90323 19.1982 7.90323 19.9999Z" stroke="#333333" stroke-width="1.5"/>
<path d="M11.7739 29.6774C11.7739 30.4791 11.124 31.129 10.3222 31.129C9.52054 31.129 8.87063 30.4791 8.87063 29.6774C8.87063 28.8757 9.52054 28.2257 10.3222 28.2257C11.124 28.2257 11.7739 28.8757 11.7739 29.6774Z" stroke="#333333" stroke-width="1.5"/>
<path d="M21.4513 33.5484C21.4513 34.3501 20.8014 35 19.9997 35C19.198 35 18.5481 34.3501 18.5481 33.5484C18.5481 32.7467 19.198 32.0968 19.9997 32.0968C20.8014 32.0968 21.4513 32.7467 21.4513 33.5484Z" stroke="#333333" stroke-width="1.5"/>
<path d="M21.4513 6.45161C21.4513 7.25332 20.8014 7.90323 19.9997 7.90323C19.198 7.90323 18.5481 7.25332 18.5481 6.45161C18.5481 5.64991 19.198 5 19.9997 5C20.8014 5 21.4513 5.64991 21.4513 6.45161Z" stroke="#333333" stroke-width="1.5"/>
<path d="M11.7739 10.3227C11.7739 11.1244 11.124 11.7743 10.3222 11.7743C9.52054 11.7743 8.87063 11.1244 8.87063 10.3227C8.87063 9.52097 9.52054 8.87106 10.3222 8.87106C11.124 8.87106 11.7739 9.52097 11.7739 10.3227Z" stroke="#333333" stroke-width="1.5"/>
<path d="M31.1288 29.6774C31.1288 30.4791 30.4788 31.129 29.6771 31.129C28.8754 31.129 28.2255 30.4791 28.2255 29.6774C28.2255 28.8757 28.8754 28.2257 29.6771 28.2257C30.4788 28.2257 31.1288 28.8757 31.1288 29.6774Z" stroke="#333333" stroke-width="1.5"/>
<path d="M31.1288 10.3227C31.1288 11.1244 30.4788 11.7743 29.6771 11.7743C28.8754 11.7743 28.2255 11.1244 28.2255 10.3227C28.2255 9.52097 28.8754 8.87106 29.6771 8.87106C30.4788 8.87106 31.1288 9.52097 31.1288 10.3227Z" stroke="#333333" stroke-width="1.5"/>
<path d="M27.817 20.0753C27.817 24.351 24.3509 27.8172 20.0751 27.8172C15.7994 27.8172 12.3332 24.351 12.3332 20.0753C12.3332 15.7995 15.7994 12.3333 20.0751 12.3333C24.3509 12.3333 27.817 15.7995 27.817 20.0753Z" stroke="#333333" stroke-width="1.5"/>
</svg>
