<svg width="40" height="40" viewBox="0 0 40 40" fill="none" xmlns="http://www.w3.org/2000/svg">
<path d="M22.5 15L17.5 25M15.2393 9.28363L12.2527 8.80986C11.2522 8.65114 10.3426 9.41436 10.3252 10.4273L10.2731 13.4508C10.2632 14.0257 9.9577 14.5549 9.46476 14.8509L6.87236 16.4077C6.00388 16.9293 5.7977 18.0986 6.43542 18.8857L8.33902 21.2353C8.70098 21.6821 8.80709 22.2839 8.61976 22.8275L7.63457 25.6864C7.30452 26.6442 7.8982 27.6725 8.89268 27.8656L11.8612 28.4418C12.4257 28.5514 12.8938 28.9442 13.0997 29.481L14.1827 32.3044C14.5455 33.2503 15.6613 33.6564 16.5472 33.165L19.1916 31.6983C19.6945 31.4195 20.3055 31.4195 20.8084 31.6983L23.4528 33.165C24.3387 33.6564 25.4545 33.2503 25.8173 32.3044L26.9003 29.481C27.1062 28.9442 27.5743 28.5514 28.1388 28.4418L31.1073 27.8656C32.1018 27.6725 32.6955 26.6442 32.3654 25.6864L31.3803 22.8275C31.1929 22.2839 31.299 21.6821 31.661 21.2353L33.5646 18.8857C34.2023 18.0986 33.9961 16.9293 33.1277 16.4077L30.5353 14.8509C30.0423 14.5549 29.7368 14.0257 29.7269 13.4508L29.6748 10.4273C29.6574 9.41436 28.7478 8.65114 27.7473 8.80986L24.7607 9.28363C24.1928 9.37371 23.6186 9.16471 23.2415 8.73067L21.2581 6.44799C20.5937 5.68327 19.4063 5.68327 18.7419 6.44799L16.7586 8.73067C16.3814 9.16471 15.8072 9.37371 15.2393 9.28363ZM15 17.5C15 17.9602 14.6269 18.3333 14.1667 18.3333C13.7064 18.3333 13.3333 17.9602 13.3333 17.5C13.3333 17.0398 13.7064 16.6667 14.1667 16.6667C14.6269 16.6667 15 17.0398 15 17.5ZM26.6667 22.5C26.6667 22.9602 26.2936 23.3333 25.8333 23.3333C25.3731 23.3333 25 22.9602 25 22.5C25 22.0398 25.3731 21.6667 25.8333 21.6667C26.2936 21.6667 26.6667 22.0398 26.6667 22.5Z" stroke="#333333" stroke-width="1.5" stroke-linecap="round"/>
</svg>
