<svg width="40" height="40" viewBox="0 0 40 40" fill="none" xmlns="http://www.w3.org/2000/svg">
<path fill-rule="evenodd" clip-rule="evenodd" d="M16.2984 11.0045L17.2637 16.8113C17.6233 18.9751 19.3145 20.6708 21.4727 21.0316L27.2647 21.9991C27.6911 22.0694 28.0252 22.4044 28.0953 22.8319C28.1854 23.3821 27.8136 23.9014 27.2647 23.9918L21.4727 24.9598C19.3145 25.3205 17.6233 27.0162 17.2637 29.18L16.2984 34.9867C16.2286 35.4146 15.894 35.75 15.4673 35.82C14.9184 35.91 14.4005 35.537 14.3107 34.9867L13.3454 29.18C12.9857 27.016 11.2943 25.3203 9.13589 24.9598L3.34404 23.9918C2.91769 23.9216 2.58349 23.5866 2.51347 23.1592C2.42333 22.6089 2.79519 22.0895 3.34404 21.9991L9.13589 21.0316C11.2943 20.6709 12.9857 18.9752 13.3454 16.8113L14.3107 11.0045C14.3806 10.5766 14.7151 10.2412 15.1418 10.1712C15.6908 10.0811 16.2086 10.4542 16.2984 11.0045Z" stroke="#333333" stroke-width="1.4" stroke-linecap="round" stroke-linejoin="round"/>
<path d="M32.0761 7.49352L31.5935 4.59004C31.5485 4.31487 31.2896 4.12832 31.0151 4.17337C30.8018 4.20839 30.6345 4.37609 30.5996 4.59004L30.1169 7.49352C29.937 8.57553 29.0913 9.42346 28.0121 9.60377L25.116 10.0876C24.8416 10.1328 24.6557 10.3925 24.7007 10.6676C24.7357 10.8813 24.9028 11.0489 25.116 11.084L28.0121 11.568C29.0913 11.7483 29.937 12.5961 30.1169 13.6781L30.5996 16.5816C30.6445 16.8567 30.9034 17.0433 31.1778 16.9983C31.3912 16.9632 31.5585 16.7956 31.5935 16.5816L32.0761 13.6781C32.2559 12.5962 33.1016 11.7483 34.1807 11.568L37.0768 11.084C37.3513 11.0388 37.5372 10.7791 37.4921 10.504C37.4571 10.2902 37.29 10.1227 37.0768 10.0876L34.1807 9.60377C33.1016 9.42333 32.2559 8.57546 32.0761 7.49352Z" stroke="#333333" stroke-width="1.4" stroke-linecap="round" stroke-linejoin="round"/>
</svg>
