<svg width="50" height="50" viewBox="0 0 50 50" fill="none" xmlns="http://www.w3.org/2000/svg">
<path fill-rule="evenodd" clip-rule="evenodd" d="M25 50C11.1929 50 0 38.8071 0 25C0 11.1929 11.1929 0 25 0C38.8071 0 50 11.1929 50 25C50 38.8071 38.8071 50 25 50ZM26.3782 16.5792C25.8696 17.2331 25.9874 18.1755 26.6413 18.6841L33.6014 24.0974H13.2083C12.3799 24.0974 11.7083 24.769 11.7083 25.5974C11.7083 26.4259 12.3799 27.0974 13.2083 27.0974H32.6828L25.9747 31.7237C25.2927 32.194 25.1212 33.1282 25.5915 33.8101C26.0618 34.4921 26.9959 34.6637 27.6779 34.1934L38.3515 26.8323C38.8174 26.5109 39.0565 25.9605 38.9886 25.4132C39.0507 24.9067 38.8527 24.3812 38.4206 24.0452L28.4832 16.316C27.8292 15.8074 26.8868 15.9252 26.3782 16.5792Z" fill="#E31E24"/>
</svg>
