<svg width="50" height="50" viewBox="0 0 50 50" fill="none" xmlns="http://www.w3.org/2000/svg">
<path fill-rule="evenodd" clip-rule="evenodd" d="M25 50C38.8071 50 50 38.8071 50 25C50 11.1929 38.8071 0 25 0C11.1929 0 0 11.1929 0 25C0 38.8071 11.1929 50 25 50ZM23.6218 16.5791C24.1304 17.2332 24.0126 18.1755 23.3587 18.6841L16.3987 24.0974H36.7917C37.6201 24.0974 38.2917 24.769 38.2917 25.5974C38.2917 26.4258 37.6201 27.0974 36.7917 27.0974H17.3172L24.0253 31.7236C24.7073 32.1941 24.8788 33.1282 24.4085 33.8101C23.9382 34.4922 23.0041 34.6636 22.3221 34.1934L11.6485 26.8323C11.1826 26.511 10.9435 25.9604 11.0114 25.4131C10.9493 24.9067 11.1473 24.3813 11.5794 24.0452L21.5168 16.3162C22.1708 15.8074 23.1132 15.9253 23.6218 16.5791Z" fill="#E31E24"/>
</svg>
