<svg width="84" height="85" viewBox="0 0 84 85" fill="none" xmlns="http://www.w3.org/2000/svg">
<path d="M30.2951 32.748L24.6685 45.868H35.9321L30.2951 32.748ZM30.2951 23.3687L46.3958 60.435H41.8317L37.2358 49.5094H23.4137L18.8165 60.435H14.2615L30.2954 23.3687H30.2951Z" fill="#1C1B17" fill-opacity="0.7"/>
<path d="M48.7226 59.0209V54.1986C49.2751 54.6888 49.9356 55.1211 50.6946 55.5126C51.4627 55.9034 52.2715 56.2356 53.1126 56.5022C53.9629 56.7679 54.8126 56.9757 55.6626 57.1258C56.5214 57.2667 57.3128 57.3412 58.0312 57.3412C60.5312 57.3412 62.397 56.8756 63.6349 55.9366C64.8642 55.0055 65.4831 53.658 65.4831 51.913C65.4831 50.9645 65.2772 50.15 64.8642 49.4513C64.4518 48.7527 63.8823 48.1127 63.1649 47.5385C62.4377 46.9567 61.5798 46.4079 60.5894 45.8765C59.5914 45.3527 58.5264 44.7953 57.3793 44.2132C56.1742 43.5975 55.0443 42.9664 53.9954 42.3342C52.9489 41.7024 52.0407 41.0041 51.2644 40.2387C50.4887 39.4739 49.8861 38.6096 49.4407 37.6446C48.9949 36.6806 48.7723 35.5491 48.7723 34.2528C48.7723 32.6567 49.1193 31.2759 49.8122 30.0956C50.5051 28.9143 51.4212 27.9506 52.5435 27.1855C53.6739 26.421 54.9609 25.8553 56.4052 25.4807C57.8414 25.1063 59.3191 24.916 60.8129 24.916C64.2283 24.916 66.7219 25.3312 68.2887 26.1628V30.7692C66.2425 29.3387 63.6106 28.6239 60.4084 28.6239C59.5168 28.6239 58.6341 28.7154 57.7429 28.8978C56.8601 29.0894 56.0674 29.3973 55.3745 29.8128C54.6817 30.2365 54.1197 30.7856 53.6831 31.451C53.2461 32.1158 53.0311 32.9227 53.0311 33.887C53.0311 34.7763 53.1957 35.5491 53.5254 36.1976C53.8562 36.8459 54.3435 37.4366 54.9867 37.9768C55.6305 38.5095 56.4222 39.0333 57.3468 39.5321C58.2708 40.0398 59.3437 40.5883 60.5482 41.1869C61.7945 41.8104 62.9659 42.4587 64.08 43.1402C65.1948 43.8224 66.1688 44.5787 67.0012 45.4021C67.8439 46.2337 68.5037 47.1477 68.9989 48.1541C69.4948 49.16 69.7337 50.3159 69.7337 51.6131C69.7337 53.3337 69.4041 54.7971 68.7358 55.9863C68.0665 57.1841 67.1589 58.1566 66.029 58.8964C64.8891 59.6448 63.5773 60.1848 62.0999 60.5176C60.6149 60.8498 59.0556 61.0167 57.4048 61.0167C56.8601 61.0167 56.1836 60.9752 55.3749 60.8837C54.5749 60.7925 53.7495 60.6677 52.9077 60.4926C52.0738 60.327 51.2823 60.1103 50.5312 59.8614C49.7797 59.6115 49.1781 59.329 48.7235 59.0212L48.7226 59.0209Z" fill="#1C1B17" fill-opacity="0.7"/>
<path fill-rule="evenodd" clip-rule="evenodd" d="M2.00653 83.1525L6.43151 82.1096C8.83447 81.5237 13.143 80.769 15.6715 80.4181C17.8806 80.1112 23.6205 79.3841 25.6325 79.3382C26.309 79.3233 27.5046 79.2815 28.202 79.1827C28.716 79.1095 28.9647 79.1333 29.5072 79.1251C30.1365 79.1156 30.1982 79.0041 30.8728 79.0035C32.4503 78.9993 34.6845 78.9727 36.1409 78.822C37.2285 78.7083 45.9834 78.8692 47.1249 79.0085C48.801 79.2137 50.7736 78.9892 52.4402 79.235C53.9976 79.4649 55.883 79.4228 57.5534 79.6584C60.6706 80.0976 64.1804 80.3618 67.4765 80.9328C70.3482 81.4306 73.8971 82.0773 76.7874 82.8123C77.5155 82.9976 78.2132 83.1645 78.9747 83.3897C79.3663 83.5053 79.7176 83.6079 80.0498 83.6978C80.5516 83.8318 80.7168 83.9483 81.269 84.0139C81.27 84.012 81.858 83.784 80.5207 83.4517C77.6915 82.7474 75.8949 82.1562 72.692 81.4895C56.9584 78.2123 36.3814 77.5223 20.558 79.4028C17.136 79.8094 11.5308 80.4188 8.33769 81.2514C7.62339 81.4376 6.83195 81.6225 6.12331 81.7584C5.33692 81.9085 2.2801 82.5042 2.00653 83.1531V83.1525Z" fill="#E31E24" fill-opacity="0.7"/>
<path fill-rule="evenodd" clip-rule="evenodd" d="M76.1799 29.4007C76.1452 29.8197 76.1125 30.2333 76.0813 30.6418C76.1128 30.2333 76.1452 29.8194 76.1799 29.4007ZM7.00675 77.5361L7.01588 77.5615C6.64472 77.6324 6.28583 77.7002 6.26978 77.6992C5.96378 77.6808 6.2682 77.7917 6.04689 77.6337L6.05004 77.2381C6.06735 77.2172 6.08813 77.1501 6.09254 77.1665L7.79787 69.0443C8.2896 66.2402 9.38672 58.694 9.48463 55.7988C9.5032 55.2307 9.57435 54.0674 9.6647 53.4451L10.067 46.3705C10.0966 42.9008 10.3035 37.6839 10.0547 34.2889C9.98832 33.3831 10.0097 30.6808 9.87405 29.6059C9.76859 28.7648 9.74718 26.3544 9.55987 24.9299C9.08009 21.2819 8.91325 17.8027 8.19768 13.9352C7.70185 11.2569 7.42671 8.3921 6.17785 5.96083L8.53767 6.12615L15.9864 7.57123C18.6935 8.02664 21.5526 8.44214 24.2641 8.71893C30.1872 9.32477 35.9747 9.69847 42.0972 9.77067C47.4534 9.83433 50.8275 9.59079 55.8327 9.39096C57.2821 9.33269 58.7186 9.1167 60.077 9.05241C61.5903 8.98084 62.9912 8.77277 64.3537 8.61189C65.708 8.45227 67.1265 8.31958 68.4242 8.08681C69.7344 7.85277 71.1133 7.66655 72.427 7.38881C74.7478 6.8973 75.9818 7.12722 77.9623 6.72597C77.9828 7.16681 77.7057 8.10359 77.5946 8.64197C76.2387 15.2565 75.6009 18.7696 74.8095 25.8369L74.3637 31.7249C74.3307 32.2779 74.2476 32.2487 74.2243 32.8508L73.871 44.9279C73.8569 45.8869 73.9907 46.3271 73.9771 47.3158C73.9529 49.0542 73.9818 50.5401 74.0571 52.2243L75.2241 65.781C75.4781 67.8791 76.1131 72.2809 76.5611 74.3068C76.7264 75.0548 77.1998 77.8234 77.4284 78.3399C76.9977 78.2012 75.9888 78.1173 75.7124 78.0169L74.184 77.6571C69.8364 76.5879 64.2117 75.8659 59.8383 75.2762L53.2654 74.6751C52.3323 74.6602 51.9369 74.5316 51.0173 74.5307L46.417 74.347C44.7576 74.1446 38.7819 74.1446 37.03 74.2748C36.305 74.3283 35.4068 74.2533 34.6607 74.2555L19.246 75.4523C15.9181 75.8855 12.3557 76.4125 9.10087 77.1048C8.72215 77.1852 8.26946 77.3075 7.83879 77.4018L7.8325 77.4028L7.83155 77.4034L7.82463 77.4044L7.37886 77.4908L7.36752 77.4927C7.24097 77.5133 7.11977 77.5276 7.00738 77.5349L7.00675 77.5361ZM8.95417 79.1339C9.15628 79.0867 9.33383 79.0445 9.46952 79.016C13.8898 78.0793 18.7716 77.3841 23.8857 76.9221C18.7719 77.3844 13.8901 78.0796 9.46952 79.017C9.33383 79.0452 9.15628 79.0873 8.95417 79.1339ZM63.8985 77.8379C65.9967 78.1366 68.0247 78.4758 69.9661 78.8558L70.2576 78.9128L69.9661 78.8561C68.025 78.4764 65.997 78.1372 63.8985 77.8379ZM77.4933 78.3636H77.492L78.1263 78.1249L77.4933 78.3636ZM21.9757 7.72324L9.08608 5.50574L21.9757 7.72292V7.72324ZM5.3074 71.7887C5.38327 71.416 5.45662 71.0436 5.52651 70.6708C6.20996 67.02 6.77221 63.2193 7.20917 59.3306C6.77221 63.2196 6.21028 67.02 5.52651 70.6708C5.45693 71.0429 5.3839 71.416 5.3074 71.7887ZM8.34029 38.4208C8.3384 37.7516 8.33273 37.0831 8.32423 36.4155C8.33273 37.0834 8.3384 37.7519 8.34029 38.4208ZM82.1134 2.55605C82.137 2.49682 82.1578 2.43507 82.1742 2.37078C82.1581 2.4357 82.137 2.49714 82.1134 2.55605ZM82.1902 2.30522C82.2053 2.23903 82.2154 2.17031 82.2233 2.0981H82.2239C82.216 2.17031 82.2057 2.23935 82.1902 2.30522ZM81.0509 2.50917C80.999 2.52849 80.9439 2.54876 80.8844 2.56903C80.9442 2.54876 80.999 2.52881 81.0509 2.50917ZM80.8394 2.58455C80.6543 2.64662 80.4323 2.71123 80.1597 2.77932C78.6706 3.14415 77.152 3.47794 75.6091 3.78166C77.152 3.47763 78.671 3.14351 80.1597 2.77868C80.4317 2.71059 80.6546 2.6463 80.8394 2.58455ZM75.6091 3.78229C75.2238 3.85798 74.8356 3.93209 74.4475 4.00461C74.8359 3.93209 75.2241 3.85798 75.6091 3.78229ZM70.9172 4.6076C70.5214 4.66935 70.1245 4.72921 69.7266 4.7878C70.1245 4.72952 70.5214 4.66935 70.9172 4.6076ZM11.5045 3.56155L4.62583 1.99898C4.5698 1.98441 4.49928 1.96288 4.41711 1.93627C4.49928 1.96288 4.5698 1.98378 4.62583 1.99866L11.5045 3.56155ZM2.00692 83.1521C2.27986 82.5032 5.33668 81.9075 6.12307 81.758C6.83203 81.6224 7.62378 81.4359 8.33745 81.2503C11.5309 80.4171 17.1361 79.8087 20.5578 79.4015C36.3815 77.5212 56.9578 78.211 72.6918 81.4885C75.8946 82.1554 77.6916 82.7467 80.5205 83.4507C81.8578 83.7829 81.2697 84.0116 81.2691 84.0125C81.5669 84.1646 82.9492 84.3682 83.3884 84.3815C83.3538 83.9166 83.2304 83.7316 83.1041 83.2921C79.5468 70.9951 78.398 55.6417 78.5101 42.8308C78.5277 40.9008 78.5498 38.9719 78.5579 37.0425L78.8567 31.3845C78.8803 30.76 78.9788 30.7581 78.9999 30.1348C79.021 29.5046 79.0346 29.1749 79.1001 28.7141C79.2285 27.7913 79.1895 26.9425 79.3163 26.0181C79.5496 24.3399 79.7331 22.3989 79.9428 20.6957C80.3779 17.1851 80.9861 13.8744 81.6551 10.6489C82.3697 7.19784 83.4703 4.03438 83.9966 1.01659H83.996C84.0016 0.476626 84.0209 0.942168 83.8742 0.742967L82.6263 1.10843H82.6256C81.9217 1.2652 81.1624 1.5271 80.4698 1.694C77.9315 2.30237 76.1232 2.75683 73.4183 3.21794C68.3599 4.07966 65.741 4.31782 60.8316 4.90402L54.2391 5.37716C53.7606 5.41232 53.2289 5.3474 52.7463 5.36956L49.9955 5.46679C49.3561 5.46172 49.233 5.5428 48.7438 5.57953C48.2942 5.61215 47.7153 5.577 47.2531 5.57257C44.3817 5.54628 41.5116 5.52031 38.6399 5.49529L33.1509 5.19443C31.3923 5.08391 29.5715 5.11589 27.7323 4.822C26.8528 4.68139 25.9521 4.7007 25.0599 4.59936C16.1083 3.58309 11.5369 2.76696 3.07854 0.549149C2.28458 0.340764 1.52117 0.191917 0.736343 0C0.775065 0.528881 1.17865 1.76114 1.32661 2.28337C1.53628 3.02729 1.74122 3.87381 1.92129 4.56294C2.12183 5.33441 2.28175 6.14927 2.43412 6.92232C3.5177 12.4148 4.62206 19.1743 5.00424 24.9502L5.22492 29.0948C5.31842 31.3246 5.56145 33.836 5.53784 36.1409C5.51675 38.2245 5.61938 39.9571 5.61308 41.9292C5.60993 42.9438 5.47016 43.5829 5.46229 44.6933C5.45567 45.6573 5.44119 46.6226 5.43773 47.5872L4.37021 61.3403C4.23263 62.2936 4.15078 63.1579 4.04406 64.0506C3.45505 68.9578 2.3954 74.3122 1.19093 79.0186L0 83.762L2.00661 83.1514L2.00692 83.1521ZM80.7169 6.58441L80.1713 8.9479C80.1446 9.0901 80.1194 9.22279 80.0936 9.34947C80.1194 9.22343 80.1446 9.0901 80.1704 8.9479L80.7169 6.58441ZM9.02815 79.449C8.79015 79.4961 8.55247 79.5424 8.31353 79.5886L9.02815 79.449ZM2.56382 80.8522H2.56319C2.56414 80.7689 2.56854 80.6828 2.5761 80.5951C2.56949 80.6828 2.56477 80.7689 2.56382 80.8522ZM1.75318 0.850326L1.74846 0.849376L1.74122 0.848743H1.73807V0.849376L1.73492 0.849693H1.73461L1.73146 0.85096L1.72894 0.85191H1.72831L1.72579 0.853493L1.72265 0.855077V0.85571L1.72013 0.857293L1.71729 0.85856V0.859194L1.71572 0.860777L1.71478 0.86141L1.7132 0.862994V0.863311L1.71068 0.864894L1.70848 0.866478V0.867111L1.70691 0.868694L1.70502 0.870278L1.70407 0.871861L1.70124 0.872811L1.70029 0.873762L1.69809 0.874395L1.69778 0.875028L1.69463 0.873762L1.69242 0.872811L1.69211 0.871228L1.69085 0.869011L1.68896 0.866478V0.866161L1.68833 0.862994L1.68739 0.85856H1.68613L1.68518 0.854127L1.68487 0.848426L1.68329 0.842092L1.68204 0.834808L1.68109 0.826257L1.67889 0.81739L1.67857 0.806939L1.677 0.796171H1.67637L1.67605 0.784137V0.783503L1.67385 0.770519L1.67291 0.755951L1.67165 0.740116H1.6707L1.66976 0.723648V0.723015L1.66755 0.70528L1.66661 0.685961V0.685328L1.66409 0.664743V0.664426L1.66252 0.641941L1.66031 0.618189L1.65842 0.592536H1.65779L1.65622 0.565934L1.65402 0.537115L1.75413 0.85096L1.75318 0.850326ZM36.6172 6.00264C37.2154 6.02766 37.8104 6.04951 38.4038 6.06851C37.8104 6.04983 37.2154 6.02829 36.6172 6.00264ZM40.7598 6.12995C41.3448 6.14135 41.9265 6.15022 42.5045 6.15655C41.9262 6.15053 41.3448 6.14167 40.7598 6.12995Z" fill="#E31E24" fill-opacity="0.7"/>
</svg>
