<svg width="188" height="60" viewBox="0 0 188 60" fill="none" xmlns="http://www.w3.org/2000/svg">
<g clip-path="url(#clip0_1_26)">
<path d="M81.2762 30.1764H72.4104L69.8823 36.0061L67.3741 35.996L76.9255 14.5456L86.2933 35.996L83.7538 35.9908L81.2764 30.1764H81.2762ZM80.3707 28.0954L76.9409 19.8574L73.373 28.0954H80.3707Z" fill="#1C1B17"/>
<path d="M94.8927 26.8592L101.526 35.996L98.6545 35.9863L92.4154 27.0296L91.7904 27.0398V35.996H89.4565V15.52H92.8342C94.1652 15.52 95.3738 15.6961 96.4585 16.0479C97.544 16.3996 98.419 16.9928 99.0843 17.8273C99.7498 18.6614 100.083 19.7725 100.083 21.1596C100.083 22.1849 99.8778 23.1298 99.4684 23.9939C99.2636 24.3958 99.0127 24.7528 98.7158 25.0644C98.4188 25.3763 98.0711 25.6679 97.672 25.9395C97.2724 26.2106 96.8527 26.4167 96.4129 26.5574C95.9721 26.6984 95.4655 26.7986 94.8927 26.8592ZM91.7904 25.0196C92.9987 25.0196 94.043 24.9388 94.9229 24.7782C95.7628 24.6575 96.4588 24.3055 97.0114 23.7225C97.5639 23.1395 97.8406 22.2854 97.8406 21.1596C97.8406 20.094 97.544 19.3099 96.9501 18.8071C96.6428 18.5461 96.3155 18.3344 95.9676 18.1741C95.6193 18.0133 95.2301 17.9025 94.8005 17.8426C93.9606 17.7219 92.9573 17.6613 91.7904 17.6613V25.0196Z" fill="#1C1B17"/>
<path d="M109.204 17.6611V35.996H106.901V17.6611H101.834V15.52H114.272V17.6611H109.204Z" fill="#1C1B17"/>
<path d="M128.615 18.4155L126.741 19.5613C126.291 18.7774 125.789 18.204 125.236 17.8426C124.683 17.5208 124.038 17.3598 123.301 17.3598C122.626 17.3598 122.021 17.4904 121.49 17.7523C120.957 18.0133 120.537 18.375 120.23 18.8375C119.923 19.2996 119.77 19.813 119.77 20.3755C119.77 21.3202 120.159 22.0491 120.937 22.5614C121.715 23.0742 122.882 23.677 124.438 24.3708C125.994 25.0644 127.222 25.8337 128.123 26.6781C128.963 27.5428 129.382 28.6683 129.382 30.0553C129.382 31.2013 129.085 32.2718 128.492 33.2671C127.898 34.262 127.11 35.0263 126.127 35.5589C125.144 36.0914 124.038 36.3581 122.81 36.3581C121.704 36.3581 120.711 36.152 119.831 35.7399C118.95 35.3276 118.213 34.7196 117.62 33.9155C117.026 33.1111 116.596 32.1662 116.33 31.0808L118.572 30.4779C119.166 32.9706 120.558 34.217 122.749 34.217C123.977 34.217 124.991 33.8202 125.789 33.0262C126.587 32.2315 126.987 31.2416 126.987 30.0553C126.987 29.0302 126.608 28.2463 125.851 27.7034C125.093 27.1607 123.906 26.5171 122.289 25.7733C121.449 25.3912 120.737 25.0297 120.154 24.6877C119.57 24.3465 119.063 23.9641 118.634 23.5419C117.794 22.7779 117.374 21.7427 117.374 20.4357C117.374 19.6919 117.527 18.9884 117.835 18.3247C118.08 17.742 118.49 17.1893 119.063 16.666C119.329 16.4451 119.622 16.2442 119.939 16.0632C120.256 15.8824 120.619 15.731 121.029 15.6108C121.746 15.3498 122.554 15.2187 123.455 15.2187C125.646 15.2187 127.365 16.2843 128.615 18.4155H128.615Z" fill="#1C1B17"/>
<path d="M138.842 17.6611V35.996H136.538V17.6611H131.471V15.52H143.91V17.6611H138.842Z" fill="#1C1B17"/>
<path d="M151.464 27.1605L144.646 15.52L147.344 15.525L152.642 24.6931L158.012 15.52H160.678L153.767 27.1605V35.996H151.464V27.1605Z" fill="#1C1B17"/>
<path d="M166.145 15.52V33.8549H171.888V35.996H163.811V15.52H166.145Z" fill="#1C1B17"/>
<path d="M185.985 17.6611H177.57V23.7225H185.801V25.8638H177.57V33.8549H185.985V35.996H175.236V15.52H185.985V17.6611Z" fill="#1C1B17"/>
<path d="M21.5412 23.285L17.5403 32.6141H25.5494L21.5412 23.285ZM21.5412 16.6158L32.9897 42.9721H29.7444L26.4764 35.2033H16.6481L13.3792 42.9721H10.1404L21.5414 16.6158H21.5412Z" fill="#1C1B17"/>
<path d="M34.6442 41.9666V38.5377C35.0371 38.8863 35.5067 39.1937 36.0464 39.472C36.5926 39.7499 37.1677 39.9861 37.7658 40.1757C38.3704 40.3646 38.9746 40.5124 39.579 40.6191C40.1896 40.7193 40.7524 40.7722 41.2632 40.7722C43.0408 40.7722 44.3676 40.4412 45.2477 39.7735C46.1219 39.1115 46.5619 38.1533 46.5619 36.9125C46.5619 36.2381 46.4155 35.6589 46.1219 35.1621C45.8286 34.6653 45.4237 34.2102 44.9135 33.802C44.3964 33.3883 43.7864 32.998 43.0822 32.6202C42.3726 32.2477 41.6153 31.8514 40.7996 31.4375C39.9427 30.9997 39.1393 30.5509 38.3935 30.1014C37.6494 29.6522 37.0036 29.1556 36.4516 28.6114C35.9 28.0675 35.4716 27.453 35.1548 26.7668C34.8379 26.0814 34.6796 25.2768 34.6796 24.3551C34.6796 23.2201 34.9263 22.2383 35.419 21.399C35.9117 20.5591 36.5631 19.8738 37.3611 19.3298C38.1649 18.7862 39.08 18.384 40.107 18.1176C41.1282 17.8514 42.179 17.7161 43.2411 17.7161C45.6697 17.7161 47.4428 18.0113 48.5569 18.6026V21.878C47.1019 20.8608 45.2305 20.3526 42.9535 20.3526C42.3196 20.3526 41.6919 20.4177 41.0582 20.5474C40.4305 20.6836 39.8668 20.9025 39.3742 21.1979C38.8815 21.4992 38.4819 21.8897 38.1714 22.3628C37.8607 22.8355 37.7078 23.4093 37.7078 24.095C37.7078 24.7273 37.8249 25.2768 38.0593 25.738C38.2945 26.1989 38.641 26.6189 39.0984 27.0031C39.5561 27.3818 40.1191 27.7543 40.7766 28.109C41.4336 28.4699 42.1964 28.86 43.0529 29.2856C43.9391 29.729 44.772 30.1899 45.5642 30.6745C46.3569 31.1596 47.0495 31.6973 47.6413 32.2828C48.2406 32.8742 48.7098 33.5241 49.0619 34.2397C49.4145 34.9549 49.5844 35.7769 49.5844 36.6992C49.5844 37.9227 49.35 38.9633 48.8747 39.8089C48.3988 40.6605 47.7535 41.3521 46.9501 41.8781C46.1395 42.4102 45.2068 42.7942 44.1562 43.0309C43.1003 43.2671 41.9916 43.3858 40.8178 43.3858C40.4305 43.3858 39.9494 43.3563 39.3744 43.2912C38.8056 43.2263 38.2186 43.1376 37.6201 43.0131C37.0271 42.8953 36.4643 42.7413 35.9302 42.5643C35.3959 42.3866 34.9681 42.1857 34.6449 41.9668L34.6442 41.9666Z" fill="#1C1B17"/>
<path fill-rule="evenodd" clip-rule="evenodd" d="M1.42636 59.1255L4.57278 58.384C6.28142 57.9674 9.34502 57.4308 11.143 57.1813C12.7137 56.9631 16.7952 56.446 18.2258 56.4134C18.7068 56.4028 19.557 56.3731 20.0528 56.3028C20.4184 56.2508 20.5952 56.2677 20.9809 56.2618C21.4284 56.2551 21.4723 56.1758 21.952 56.1754C23.0737 56.1724 24.6623 56.1535 25.6979 56.0463C26.4713 55.9655 32.6965 56.0799 33.5082 56.179C34.6999 56.3249 36.1026 56.1652 37.2876 56.34C38.395 56.5034 39.7356 56.4735 40.9234 56.641C43.1399 56.9534 45.6356 57.1412 47.9793 57.5472C50.0213 57.9012 52.5447 58.361 54.5999 58.8837C55.1176 59.0154 55.6137 59.1341 56.1552 59.2942C56.4337 59.3764 56.6835 59.4494 56.9196 59.5133C57.2765 59.6086 57.394 59.6914 57.7866 59.7381C57.7873 59.7367 58.2054 59.5746 57.2545 59.3383C55.2428 58.8375 53.9653 58.4171 51.6878 57.9431C40.5003 55.6128 25.8689 55.1221 14.6176 56.4593C12.1843 56.7485 8.19869 57.1817 5.92819 57.7737C5.42027 57.9061 4.85752 58.0377 4.35363 58.1343C3.79446 58.241 1.62089 58.6646 1.42636 59.126V59.1255Z" fill="#E31E24"/>
<path fill-rule="evenodd" clip-rule="evenodd" d="M54.1679 20.9049C54.1433 21.2028 54.12 21.4969 54.0979 21.7874C54.1203 21.4969 54.1433 21.2026 54.1679 20.9049ZM4.98184 55.132L4.98833 55.15C4.72441 55.2005 4.46923 55.2486 4.45781 55.248C4.24023 55.2349 4.45669 55.3137 4.29932 55.2014L4.30156 54.9201C4.31387 54.9052 4.32865 54.8575 4.33178 54.8692L5.54437 49.0938C5.89402 47.1 6.67414 41.7342 6.74375 39.6755C6.75696 39.2715 6.80755 38.4444 6.8718 38.0019L7.15788 32.9714C7.17892 30.5042 7.32599 26.7947 7.14915 24.3807C7.10191 23.7367 7.11714 21.8151 7.02066 21.0508C6.94567 20.4527 6.93045 18.7388 6.79726 17.7259C6.45611 15.132 6.33747 12.658 5.82866 9.90805C5.4761 8.00363 5.28045 5.96657 4.39245 4.2378L6.07042 4.35535L11.3669 5.38288C13.2918 5.7067 15.3248 6.00215 17.2528 6.19897C21.4645 6.62975 25.5797 6.89547 29.9332 6.94682C33.7417 6.99208 36.1409 6.81891 39.6999 6.67682C40.7305 6.63538 41.7519 6.4818 42.7178 6.43609C43.7939 6.3852 44.79 6.23725 45.7588 6.12285C46.7218 6.00936 47.7305 5.915 48.6532 5.74949C49.5849 5.58307 50.5653 5.45066 51.4994 5.25317C53.1497 4.90368 54.0271 5.06717 55.4354 4.78185C55.4499 5.09532 55.2529 5.76142 55.1739 6.14424C54.2098 10.8475 53.7563 13.3456 53.1935 18.3709L52.8766 22.5576C52.8531 22.9507 52.794 22.93 52.7774 23.3581L52.5262 31.9457C52.5162 32.6275 52.6113 32.9406 52.6017 33.6436C52.5844 34.8797 52.605 35.9362 52.6585 37.1338L53.4883 46.7734C53.669 48.2653 54.1205 51.3952 54.439 52.8357C54.5565 53.3676 54.8932 55.3362 55.0557 55.7035C54.7495 55.6049 54.0321 55.5452 53.8355 55.4738L52.7487 55.218C49.6574 54.4578 45.6579 53.9443 42.5482 53.525L37.8744 53.0976C37.2109 53.0871 36.9298 52.9956 36.2759 52.995L33.0048 52.8643C31.8249 52.7205 27.5758 52.7205 26.3301 52.813C25.8146 52.8511 25.1759 52.7977 24.6454 52.7993L13.6846 53.6503C11.3183 53.9583 8.78526 54.333 6.47088 54.8253C6.20159 54.8825 5.8797 54.9694 5.57347 55.0365L5.569 55.0372L5.56832 55.0376L5.5634 55.0383L5.24643 55.0998L5.23837 55.1011C5.14838 55.1158 5.0622 55.1259 4.98229 55.1311L4.98184 55.132ZM6.36657 56.2681C6.51028 56.2345 6.63653 56.2046 6.73301 56.1843C9.87607 55.5182 13.3473 55.0239 16.9837 54.6954C13.3475 55.0241 9.8763 55.5184 6.73301 56.185C6.63653 56.205 6.51028 56.235 6.36657 56.2681ZM45.4352 55.3466C46.9271 55.559 48.3691 55.8001 49.7496 56.0704L49.9569 56.1109L49.7496 56.0706C48.3694 55.8006 46.9273 55.5594 45.4352 55.3466ZM55.1018 55.7204H55.1009L55.552 55.5506L55.1018 55.7204ZM15.6256 5.49097L6.46036 3.9142L15.6256 5.49075V5.49097ZM3.7735 51.0453C3.82745 50.7802 3.87961 50.5154 3.9293 50.2504C4.41528 47.6544 4.81507 44.9519 5.12577 42.1868C4.81507 44.9521 4.4155 47.6544 3.9293 50.2504C3.87983 50.515 3.8279 50.7802 3.7735 51.0453ZM5.93006 27.3187C5.92872 26.8429 5.92469 26.3675 5.91865 25.8928C5.92469 26.3678 5.92872 26.8431 5.93006 27.3187ZM58.3871 1.8168C58.4038 1.77468 58.4186 1.73077 58.4303 1.68506C58.4188 1.73122 58.4038 1.77491 58.3871 1.8168ZM58.4417 1.63845C58.4524 1.59138 58.4596 1.54252 58.4652 1.49117H58.4656C58.46 1.54252 58.4526 1.59161 58.4417 1.63845ZM57.6316 1.78347C57.5946 1.7972 57.5555 1.81162 57.5131 1.82603C57.5557 1.81162 57.5946 1.79743 57.6316 1.78347ZM57.4811 1.83706C57.3495 1.8812 57.1917 1.92714 56.9978 1.97555C55.939 2.23497 54.8592 2.47232 53.7621 2.68827C54.8592 2.47209 55.9393 2.23452 56.9978 1.9751C57.1912 1.92669 57.3497 1.88097 57.4811 1.83706ZM53.7621 2.68873C53.4881 2.74255 53.2121 2.79524 52.9361 2.84681C53.2123 2.79524 53.4883 2.74255 53.7621 2.68873ZM50.4259 3.27557C50.1445 3.31948 49.8622 3.36204 49.5793 3.4037C49.8622 3.36226 50.1445 3.31948 50.4259 3.27557ZM8.17997 2.53177L3.28887 1.42069C3.24902 1.41033 3.19888 1.39502 3.14046 1.3761C3.19888 1.39502 3.24902 1.40988 3.28887 1.42046L8.17997 2.53177ZM1.42667 59.1253C1.62075 58.6639 3.79432 58.2403 4.3535 58.134C4.8576 58.0376 5.42058 57.905 5.92805 57.773C8.19877 57.1805 12.1844 56.7479 14.6174 56.4584C25.869 55.1214 40.5 55.6119 51.6877 57.9423C53.9651 58.4166 55.2429 58.837 57.2544 59.3376C58.2053 59.5738 57.7871 59.7364 57.7867 59.7371C57.9985 59.8452 58.9814 59.99 59.2936 59.9994C59.269 59.6689 59.1813 59.5374 59.0915 59.2248C56.562 50.4809 55.7452 39.5638 55.8249 30.4545C55.8374 29.0822 55.8531 27.7106 55.8589 26.3387L56.0713 22.3155C56.0881 21.8714 56.1582 21.8701 56.1732 21.4269C56.1882 20.9788 56.1978 20.7443 56.2444 20.4167C56.3357 19.7605 56.3079 19.157 56.3982 18.4997C56.564 17.3064 56.6945 15.9262 56.8436 14.7151C57.153 12.2189 57.5854 9.86481 58.0611 7.57126C58.5693 5.11738 59.3518 2.86798 59.7261 0.722153H59.7257C59.7297 0.338207 59.7434 0.669234 59.639 0.527591L58.7517 0.787458H58.7513C58.2507 0.898926 57.7108 1.08516 57.2183 1.20383C55.4134 1.63642 54.1277 1.95956 52.2043 2.28744C48.6075 2.90018 46.7453 3.06952 43.2544 3.48634L38.5668 3.82278C38.2265 3.84777 37.8485 3.80161 37.5053 3.81737L35.5493 3.8865C35.0947 3.8829 35.0071 3.94055 34.6593 3.96667C34.3396 3.98987 33.928 3.96487 33.5994 3.96172C31.5576 3.94303 29.5168 3.92456 27.4749 3.90677L23.5718 3.69284C22.3214 3.61425 21.0267 3.63699 19.7189 3.42802C19.0935 3.32804 18.4531 3.34177 17.8187 3.26971C11.4535 2.54708 8.20303 1.96677 2.18865 0.389775C1.62411 0.241601 1.08127 0.135762 0.523216 -0.000701904C0.55075 0.375363 0.837724 1.25157 0.942933 1.62291C1.09202 2.15188 1.23774 2.7538 1.36578 3.24382C1.50838 3.79237 1.62209 4.37178 1.73043 4.92147C2.50092 8.82692 3.28618 13.6333 3.55794 17.7403L3.71485 20.6874C3.78134 22.2729 3.95415 24.0587 3.93736 25.6976C3.92236 27.1791 3.99534 28.4111 3.99086 29.8134C3.98862 30.5349 3.88923 30.9893 3.88364 31.7788C3.87894 32.4643 3.86864 33.1507 3.86618 33.8366L3.1071 43.6158C3.00928 44.2937 2.95108 44.9082 2.8752 45.543C2.45638 49.0323 1.7029 52.8396 0.846454 56.1861L-0.000366211 59.559L1.42645 59.1248L1.42667 59.1253ZM57.3941 4.68119L57.0061 6.36178C56.9871 6.46289 56.9692 6.55724 56.9508 6.64732C56.9692 6.55769 56.9871 6.46289 57.0055 6.36178L57.3941 4.68119ZM6.41917 56.4921C6.24994 56.5257 6.08094 56.5586 5.91104 56.5914L6.41917 56.4921ZM1.82266 57.4899H1.82221C1.82288 57.4307 1.82602 57.3695 1.83139 57.3071C1.82669 57.3695 1.82333 57.4307 1.82266 57.4899ZM1.24625 0.603929L1.24289 0.603254L1.23774 0.602804H1.2355V0.603254L1.23327 0.603479H1.23304L1.2308 0.60438L1.22901 0.605055H1.22856L1.22677 0.606181L1.22454 0.607307V0.607758L1.22274 0.608884L1.22073 0.609784V0.610235L1.21961 0.611361L1.21894 0.611811L1.21782 0.612937V0.613162L1.21603 0.614288L1.21446 0.615414V0.615864L1.21334 0.61699L1.212 0.618116L1.21133 0.619242L1.20931 0.619918L1.20864 0.620593L1.20707 0.621044L1.20685 0.621494L1.20461 0.620593L1.20305 0.619918L1.20282 0.618792L1.20193 0.617216L1.20058 0.615414V0.615189L1.20014 0.612937L1.19946 0.609784H1.19857L1.1979 0.606632L1.19767 0.602578L1.19655 0.598075L1.19566 0.592895L1.19499 0.586815L1.19342 0.58051L1.1932 0.573079L1.19208 0.565422H1.19163L1.19141 0.556865V0.556415L1.18984 0.547182L1.18917 0.536823L1.18827 0.525564H1.1876L1.18693 0.513854V0.513404L1.18536 0.500793L1.18469 0.487057V0.486606L1.1829 0.471969V0.471744L1.18178 0.455755L1.18021 0.438866L1.17887 0.420626H1.17842L1.1773 0.40171L1.17574 0.381218L1.24692 0.60438L1.24625 0.603929ZM26.0366 4.26752C26.4619 4.28531 26.885 4.30085 27.307 4.31436C26.885 4.30108 26.4619 4.28576 26.0366 4.26752ZM28.9823 4.35805C29.3982 4.36616 29.8118 4.37246 30.2228 4.37696C29.8116 4.37269 29.3982 4.36638 28.9823 4.35805Z" fill="#E31E24"/>
<path d="M68.0532 43.2941H68.5768V44.6202H70.2008V43.2941H70.7242V46.6233H70.2008V45.0852H68.5768V46.6233H68.0532V43.2941ZM73.0621 43.2187C73.4513 43.2187 73.7638 43.3346 73.9995 43.5672C74.235 43.7994 74.3528 44.1345 74.3528 44.5723V46.6233H73.8637V46.1925C73.7415 46.3567 73.5848 46.4819 73.3952 46.5686C73.2044 46.655 72.9895 46.6985 72.7494 46.6985C72.4095 46.6985 72.1315 46.6143 71.9169 46.4456C71.7015 46.2769 71.5941 46.0488 71.5941 45.7622C71.5941 45.4793 71.7026 45.2539 71.92 45.0852C72.138 44.9166 72.4257 44.8324 72.7834 44.8324H73.8294V44.5452C73.8294 44.2716 73.7585 44.0631 73.6156 43.9194C73.4733 43.776 73.2774 43.7039 73.0278 43.7039C72.8286 43.7039 72.6518 43.7485 72.498 43.8375C72.3433 43.9267 72.1987 44.0597 72.0633 44.2374L71.7161 43.9505C71.8663 43.7039 72.0581 43.5209 72.2938 43.4002C72.5295 43.2795 72.7858 43.2191 73.0623 43.2191L73.0621 43.2187ZM72.817 46.2607C72.9983 46.2607 73.1655 46.2213 73.3199 46.1412C73.4737 46.0614 73.5973 45.9509 73.6902 45.8099C73.7835 45.6685 73.8292 45.5138 73.8292 45.3451V45.2627H72.844C72.6128 45.2627 72.4366 45.3026 72.314 45.3823C72.192 45.462 72.1306 45.5795 72.1306 45.7345C72.1306 45.9031 72.1962 46.0331 72.3276 46.1243C72.4592 46.215 72.622 46.2607 72.8167 46.2607H72.817ZM76.059 43.7656H74.944V43.2941H77.6895V43.7656H76.5754V46.6233H76.059V43.7656ZM80.7884 43.2941V46.6233H80.2653V45.4064H79.6401L78.7295 46.6233H78.1177L79.0827 45.3379C78.8378 45.2649 78.6467 45.1431 78.5081 44.9722C78.3702 44.8013 78.3013 44.5975 78.3013 44.3604C78.3013 44.037 78.4078 43.7778 78.6205 43.5848C78.8336 43.3909 79.1167 43.2943 79.4697 43.2943H80.7884V43.2941ZM80.2653 43.7656H79.5035C79.2958 43.7656 79.1322 43.8181 79.0149 43.9228C78.8967 44.028 78.838 44.1717 78.838 44.3536C78.838 44.5313 78.8983 44.6736 79.0178 44.781C79.1382 44.888 79.3025 44.9416 79.5109 44.9416H80.2655V43.7656H80.2653ZM82.2838 43.2941L83.6492 44.8184L82.1405 46.6233H81.5018L83.0171 44.8184L81.631 43.2941H82.2838ZM83.7173 43.2941H84.2404V46.6233H83.7173V43.2941ZM86.4693 46.6233H85.817L84.3082 44.8184L85.6751 43.2941H86.32L84.9478 44.8049L86.4693 46.6231V46.6233ZM87.1903 43.2941H87.7134V44.6202H89.3375V43.2941H89.8613V46.6233H89.3375V45.0852H87.7134V46.6233H87.1903V43.2941ZM91.0094 43.2941H91.5323V44.4426H92.3207C92.6921 44.4426 92.9911 44.5419 93.2179 44.74C93.4446 44.9382 93.5577 45.2014 93.5577 45.5295C93.5577 45.8624 93.4453 46.1279 93.2212 46.326C92.9974 46.5242 92.6965 46.6235 92.3207 46.6235H91.0094V43.2943V43.2941ZM94.0405 43.2941H94.5632V46.6233H94.0405V43.2941ZM92.2941 46.1583C92.5291 46.1583 92.7095 46.1047 92.8338 45.9975C92.9584 45.8903 93.0207 45.7367 93.0207 45.5361C93.0207 45.3354 92.9573 45.1805 92.8308 45.0713C92.7035 44.9621 92.5226 44.9073 92.2869 44.9073H91.5323V46.1583H92.2941ZM98.6341 45.119H96.0176C96.05 45.4474 96.179 45.7117 96.4055 45.9121C96.6318 46.1126 96.908 46.213 97.2348 46.213C97.6107 46.213 97.9483 46.0626 98.2473 45.7619L98.5533 46.1173C98.3807 46.2997 98.1826 46.4425 97.9581 46.5447C97.7343 46.6472 97.4903 46.6983 97.2275 46.6983C96.9015 46.6983 96.6049 46.6219 96.3379 46.4695C96.0704 46.3166 95.8597 46.1081 95.7053 45.8437C95.5515 45.5795 95.4745 45.2854 95.4745 44.9621C95.4745 44.643 95.5493 44.35 95.6983 44.0834C95.8481 43.817 96.0525 43.606 96.3099 43.4511C96.5682 43.2964 96.8539 43.2189 97.1663 43.2189C97.4471 43.2189 97.7031 43.2824 97.9344 43.4101C98.1656 43.5382 98.3465 43.7157 98.4781 43.9435C98.6095 44.1717 98.6749 44.4311 98.6749 44.7229C98.6749 44.8506 98.6612 44.9828 98.6341 45.1195V45.119ZM97.1525 43.6972C96.8762 43.6972 96.6363 43.785 96.4323 43.9602C96.2284 44.1356 96.0975 44.3671 96.0379 44.6542H98.1381C98.1336 44.3581 98.0376 44.1246 97.8495 43.9537C97.6611 43.7828 97.4291 43.6972 97.1525 43.6972ZM101.496 43.2941H104.139V46.6233H103.609V43.7656H102.018V46.6233H101.495V43.2941H101.496ZM106.775 46.6915C106.458 46.6915 106.168 46.6141 105.905 46.4591C105.643 46.3044 105.435 46.0932 105.281 45.8268C105.127 45.5602 105.049 45.2699 105.049 44.9553C105.049 44.6364 105.127 44.3435 105.281 44.0769C105.435 43.8102 105.644 43.6004 105.909 43.4479C106.174 43.2952 106.465 43.2189 106.782 43.2189C107.099 43.2189 107.391 43.2964 107.656 43.4511C107.92 43.606 108.13 43.8159 108.284 44.0802C108.439 44.3444 108.515 44.6364 108.515 44.9553C108.515 45.2699 108.438 45.5599 108.284 45.8268C108.13 46.0932 107.92 46.3044 107.652 46.4591C107.384 46.6141 107.092 46.6915 106.775 46.6915H106.775ZM106.775 46.2062C106.998 46.2062 107.2 46.1515 107.384 46.0421C107.567 45.9329 107.713 45.7836 107.818 45.5944C107.925 45.405 107.978 45.1942 107.978 44.9621C107.978 44.7249 107.926 44.5106 107.822 44.3194C107.718 44.128 107.574 43.9775 107.391 43.8681C107.207 43.7587 107.004 43.7037 106.782 43.7037C106.556 43.7037 106.352 43.7587 106.17 43.8681C105.99 43.9775 105.847 44.128 105.743 44.3194C105.638 44.5106 105.586 44.7247 105.586 44.9621C105.586 45.1942 105.638 45.4052 105.743 45.5944C105.847 45.7836 105.99 45.9329 106.17 46.0421C106.352 46.1515 106.553 46.2062 106.775 46.2062ZM110.052 43.7656H108.937V43.2941H111.683V43.7656H110.568V46.6233H110.052V43.7656ZM113.884 46.6917C113.567 46.6917 113.277 46.6143 113.014 46.4593C112.751 46.3046 112.543 46.0934 112.389 45.827C112.235 45.5604 112.158 45.2701 112.158 44.9555C112.158 44.6367 112.235 44.3437 112.389 44.0771C112.543 43.8105 112.753 43.6006 113.017 43.4481C113.282 43.2954 113.574 43.2191 113.891 43.2191C114.208 43.2191 114.499 43.2966 114.764 43.4513C115.029 43.6062 115.239 43.8161 115.393 44.0805C115.547 44.3446 115.624 44.6367 115.624 44.9555C115.624 45.2701 115.547 45.5602 115.393 45.827C115.239 46.0934 115.028 46.3046 114.761 46.4593C114.493 46.6143 114.201 46.6917 113.884 46.6917H113.884ZM113.884 46.2065C114.106 46.2065 114.309 46.1517 114.492 46.0423C114.676 45.9331 114.821 45.7838 114.928 45.5946C115.034 45.4052 115.087 45.1945 115.087 44.9623C115.087 44.7252 115.036 44.5108 114.931 44.3196C114.826 44.1282 114.683 43.9778 114.499 43.8683C114.316 43.7589 114.114 43.7039 113.891 43.7039C113.664 43.7039 113.461 43.7589 113.279 43.8683C113.098 43.9778 112.956 44.1282 112.852 44.3196C112.747 44.5108 112.695 44.7249 112.695 44.9623C112.695 45.1945 112.747 45.4055 112.852 45.5946C112.956 45.7838 113.098 45.9331 113.279 46.0423C113.461 46.1517 113.662 46.2065 113.885 46.2065H113.884ZM119.042 43.2943V46.6235H118.519V43.7659H117.289L117.275 44.1762C117.257 44.7598 117.214 45.2289 117.146 45.5843C117.078 45.9401 116.969 46.2067 116.82 46.3844C116.67 46.5618 116.467 46.6508 116.208 46.6508C116.144 46.6508 116.086 46.642 116.031 46.6235V46.1792C116.086 46.188 116.131 46.1925 116.168 46.1925C116.38 46.1925 116.532 46.0254 116.623 45.6901C116.713 45.355 116.766 44.8456 116.78 44.162L116.8 43.2941H119.042V43.2943ZM120.198 43.2943H120.721V46.6235H120.198V43.2943ZM122.984 46.6235H122.325L120.789 44.8186L122.183 43.2943H122.834L121.427 44.8051L122.984 46.6233V46.6235ZM126.429 43.2191V46.6235H125.906V44.2719L123.888 46.6987H123.698V43.2945H124.22V45.6527L126.239 43.2191H126.429ZM129.481 43.2945H130.004V44.6207H131.628V43.2945H132.152V46.6237H131.628V45.0857H130.004V46.6237H129.481V43.2945ZM134.788 46.692C134.471 46.692 134.181 46.6145 133.918 46.4596C133.656 46.3049 133.447 46.0936 133.294 45.8272C133.139 45.5606 133.062 45.2704 133.062 44.9558C133.062 44.6369 133.139 44.3439 133.294 44.0773C133.447 43.8107 133.656 43.6008 133.921 43.4484C134.186 43.2957 134.478 43.2193 134.795 43.2193C135.112 43.2193 135.403 43.2968 135.668 43.4515C135.933 43.6064 136.143 43.8163 136.297 44.0807C136.45 44.3448 136.528 44.6369 136.528 44.9558C136.528 45.2704 136.45 45.5604 136.297 45.8272C136.143 46.0936 135.932 46.3049 135.665 46.4596C135.398 46.6145 135.105 46.692 134.788 46.692ZM134.788 46.2067C135.01 46.2067 135.213 46.152 135.396 46.0425C135.58 45.9333 135.725 45.784 135.832 45.5948C135.938 45.4055 135.992 45.1947 135.992 44.9625C135.992 44.7254 135.939 44.511 135.835 44.3198C135.731 44.1284 135.587 43.978 135.403 43.8686C135.22 43.7591 135.017 43.7042 134.795 43.7042C134.569 43.7042 134.365 43.7591 134.184 43.8686C134.002 43.978 133.86 44.1284 133.755 44.3198C133.651 44.511 133.599 44.7252 133.599 44.9625C133.599 45.1947 133.651 45.4057 133.755 45.5948C133.86 45.784 134.002 45.9333 134.184 46.0425C134.364 46.152 134.567 46.2067 134.789 46.2067H134.788ZM139.532 44.8188C139.727 44.8871 139.879 44.9898 139.991 45.1267C140.101 45.2631 140.157 45.4273 140.157 45.6187C140.157 45.9148 140.05 46.1565 139.837 46.3436C139.625 46.5303 139.34 46.6237 138.982 46.6237H137.446V43.2945H138.811C139.138 43.2945 139.397 43.374 139.59 43.5332C139.782 43.6931 139.879 43.9073 139.879 44.1762C139.879 44.3083 139.848 44.4302 139.787 44.5421C139.726 44.6536 139.641 44.7459 139.532 44.8188H139.532ZM137.968 44.6547H138.818C138.999 44.6547 139.135 44.6151 139.226 44.5349C139.317 44.4554 139.362 44.3448 139.362 44.2036C139.362 43.912 139.181 43.7661 138.818 43.7661H137.969V44.6547H137.968ZM138.948 46.1587C139.165 46.1587 139.334 46.1085 139.454 46.0085C139.573 45.9081 139.634 45.7782 139.634 45.6187C139.634 45.4636 139.573 45.342 139.454 45.253C139.334 45.1641 139.165 45.1195 138.948 45.1195H137.968V46.1587H138.948ZM142.631 46.692C142.314 46.692 142.023 46.6145 141.761 46.4596C141.498 46.3049 141.289 46.0936 141.136 45.8272C140.981 45.5606 140.904 45.2704 140.904 44.9558C140.904 44.6369 140.981 44.3439 141.136 44.0773C141.289 43.8107 141.499 43.6008 141.764 43.4484C142.029 43.2957 142.32 43.2193 142.637 43.2193C142.954 43.2193 143.245 43.2968 143.51 43.4515C143.775 43.6064 143.985 43.8163 144.139 44.0807C144.293 44.3448 144.37 44.6369 144.37 44.9558C144.37 45.2704 144.293 45.5604 144.139 45.8272C143.985 46.0936 143.774 46.3049 143.507 46.4596C143.24 46.6145 142.948 46.692 142.631 46.692ZM142.631 46.2067C142.852 46.2067 143.056 46.152 143.239 46.0425C143.423 45.9333 143.567 45.784 143.674 45.5948C143.78 45.4055 143.834 45.1947 143.834 44.9625C143.834 44.7254 143.782 44.511 143.677 44.3198C143.573 44.1284 143.429 43.978 143.245 43.8686C143.062 43.7591 142.86 43.7042 142.637 43.7042C142.411 43.7042 142.207 43.7591 142.026 43.8686C141.845 43.978 141.702 44.1284 141.598 44.3198C141.494 44.511 141.441 44.7252 141.441 44.9625C141.441 45.1947 141.494 45.4057 141.598 45.5948C141.702 45.784 141.845 45.9333 142.026 46.0425C142.207 46.152 142.408 46.2067 142.631 46.2067H142.631ZM145.288 43.2945H147.517V43.7661H145.811V46.6237H145.288V43.2945H145.288ZM149.583 46.692C149.266 46.692 148.976 46.6145 148.713 46.4596C148.45 46.3049 148.242 46.0936 148.088 45.8272C147.934 45.5606 147.857 45.2704 147.857 44.9558C147.857 44.6369 147.934 44.3439 148.088 44.0773C148.242 43.8107 148.451 43.6008 148.717 43.4484C148.982 43.2957 149.273 43.2193 149.589 43.2193C149.907 43.2193 150.198 43.2968 150.463 43.4515C150.728 43.6064 150.938 43.8163 151.091 44.0807C151.246 44.3448 151.323 44.6369 151.323 44.9558C151.323 45.2704 151.246 45.5604 151.091 45.8272C150.938 46.0936 150.727 46.3049 150.46 46.4596C150.192 46.6145 149.9 46.692 149.583 46.692ZM149.583 46.2067C149.805 46.2067 150.008 46.152 150.191 46.0425C150.375 45.9333 150.52 45.784 150.626 45.5948C150.732 45.4055 150.786 45.1947 150.786 44.9625C150.786 44.7254 150.734 44.511 150.63 44.3198C150.525 44.1284 150.381 43.978 150.198 43.8686C150.014 43.7591 149.812 43.7042 149.589 43.7042C149.363 43.7042 149.16 43.7591 148.978 43.8686C148.797 43.978 148.654 44.1284 148.55 44.3198C148.445 44.511 148.393 44.7252 148.393 44.9625C148.393 45.1947 148.445 45.4057 148.55 45.5948C148.655 45.784 148.797 45.9333 148.978 46.0425C149.16 46.152 149.361 46.2067 149.583 46.2067ZM154.143 43.2945H156.786V46.6237H156.256V43.7661H154.666V46.6237H154.142V43.2945H154.143ZM159.423 46.692C159.106 46.692 158.816 46.6145 158.553 46.4596C158.291 46.3049 158.082 46.0936 157.928 45.8272C157.774 45.5606 157.697 45.2704 157.697 44.9558C157.697 44.6369 157.774 44.3439 157.928 44.0773C158.082 43.8107 158.291 43.6008 158.556 43.4484C158.821 43.2957 159.113 43.2193 159.43 43.2193C159.747 43.2193 160.038 43.2968 160.303 43.4515C160.568 43.6064 160.778 43.8163 160.932 44.0807C161.086 44.3448 161.163 44.6369 161.163 44.9558C161.163 45.2704 161.086 45.5604 160.932 45.8272C160.778 46.0936 160.567 46.3049 160.3 46.4596C160.032 46.6145 159.74 46.692 159.423 46.692H159.423ZM159.423 46.2067C159.645 46.2067 159.848 46.152 160.031 46.0425C160.215 45.9333 160.36 45.784 160.466 45.5948C160.572 45.4055 160.626 45.1947 160.626 44.9625C160.626 44.7254 160.574 44.511 160.469 44.3198C160.366 44.1284 160.222 43.978 160.038 43.8686C159.855 43.7591 159.652 43.7042 159.43 43.7042C159.203 43.7042 158.999 43.7591 158.818 43.8686C158.637 43.978 158.494 44.1284 158.39 44.3198C158.286 44.511 158.234 44.7252 158.234 44.9625C158.234 45.1947 158.286 45.4057 158.39 45.5948C158.495 45.784 158.637 45.9333 158.818 46.0425C158.999 46.152 159.201 46.2067 159.423 46.2067ZM162.081 43.2945H162.603V46.6237H162.081V43.2945ZM164.867 46.6237H164.208L162.672 44.8188L164.065 43.2945H164.717L163.311 44.8053L164.867 46.6235V46.6237ZM166.966 46.692C166.65 46.692 166.36 46.6145 166.097 46.4596C165.834 46.3049 165.626 46.0936 165.472 45.8272C165.318 45.5606 165.24 45.2704 165.24 44.9558C165.24 44.6369 165.318 44.3439 165.472 44.0773C165.626 43.8107 165.835 43.6008 166.1 43.4484C166.365 43.2957 166.656 43.2193 166.973 43.2193C167.29 43.2193 167.582 43.2968 167.846 43.4515C168.111 43.6064 168.321 43.8163 168.475 44.0807C168.63 44.3448 168.706 44.6369 168.706 44.9558C168.706 45.2704 168.629 45.5604 168.475 45.8272C168.321 46.0936 168.111 46.3049 167.844 46.4596C167.576 46.6145 167.283 46.692 166.966 46.692ZM166.966 46.2067C167.189 46.2067 167.391 46.152 167.575 46.0425C167.758 45.9333 167.904 45.784 168.01 45.5948C168.116 45.4055 168.169 45.1947 168.169 44.9625C168.169 44.7254 168.118 44.511 168.013 44.3198C167.909 44.1284 167.765 43.978 167.582 43.8686C167.398 43.7591 167.196 43.7042 166.973 43.7042C166.747 43.7042 166.543 43.7591 166.362 43.8686C166.181 43.978 166.038 44.1284 165.934 44.3198C165.829 44.511 165.777 44.7252 165.777 44.9625C165.777 45.1947 165.829 45.4057 165.934 45.5948C166.038 45.784 166.181 45.9333 166.362 46.0425C166.543 46.152 166.744 46.2067 166.966 46.2067ZM172.125 43.2945V46.6237H171.601V43.7661H170.371L170.358 44.1764C170.339 44.7601 170.297 45.2291 170.229 45.5845C170.161 45.9403 170.052 46.2069 169.902 46.3846C169.753 46.562 169.549 46.651 169.291 46.651C169.227 46.651 169.168 46.6422 169.114 46.6237V46.1794C169.168 46.1882 169.214 46.1927 169.25 46.1927C169.463 46.1927 169.615 46.0256 169.705 45.6903C169.796 45.3552 169.848 44.8459 169.862 44.1622L169.882 43.2943H172.125V43.2945ZM176.203 45.1197H173.586C173.618 45.448 173.747 45.7124 173.973 45.9128C174.2 46.1132 174.476 46.2137 174.803 46.2137C175.179 46.2137 175.516 46.0632 175.815 45.7626L176.121 46.118C175.949 46.3004 175.751 46.4431 175.526 46.5454C175.302 46.6478 175.058 46.6989 174.796 46.6989C174.47 46.6989 174.173 46.6226 173.906 46.4702C173.638 46.3173 173.428 46.1087 173.274 45.8444C173.12 45.5802 173.043 45.2861 173.043 44.9627C173.043 44.6437 173.118 44.3507 173.267 44.0841C173.416 43.8177 173.62 43.6067 173.878 43.4517C174.137 43.297 174.422 43.2196 174.735 43.2196C175.016 43.2196 175.272 43.2831 175.503 43.4107C175.734 43.5389 175.915 43.7163 176.046 43.9442C176.178 44.1723 176.243 44.4318 176.243 44.7236C176.243 44.8513 176.23 44.9835 176.203 45.1202L176.203 45.1197ZM174.721 43.6979C174.444 43.6979 174.204 43.7857 174.001 43.9609C173.797 44.1363 173.666 44.3678 173.606 44.6549H175.706C175.702 44.3588 175.606 44.1253 175.418 43.9544C175.229 43.7834 174.998 43.6979 174.721 43.6979ZM177.161 43.2948H177.684V44.6209H179.308V43.2948H179.832V46.624H179.308V45.0859H177.684V46.624H177.161V43.2948ZM183.712 43.2193V46.6237H183.188V44.2721L181.17 46.6989H180.98V43.2948H181.503V45.6529L183.521 43.2193H183.712ZM187.273 43.2948V46.624H186.749V45.407H186.124L185.214 46.624H184.602L185.567 45.3386C185.322 45.2656 185.131 45.1438 184.993 44.9729C184.855 44.802 184.786 44.5982 184.786 44.361C184.786 44.0377 184.892 43.7785 185.105 43.5855C185.318 43.3916 185.601 43.295 185.954 43.295H187.273V43.2948ZM186.749 43.7663H185.989C185.78 43.7663 185.617 43.8188 185.499 43.9235C185.381 44.0287 185.323 44.1723 185.323 44.3543C185.323 44.532 185.382 44.6743 185.502 44.7817C185.623 44.8887 185.787 44.9423 185.996 44.9423H186.75V43.7663H186.749Z" fill="#1C1B17"/>
</g>
<defs>
<clipPath id="clip0_1_26">
<rect width="187.273" height="60" fill="white"/>
</clipPath>
</defs>
</svg>
