<?xml version="1.0" encoding="UTF-8"?>
<!DOCTYPE svg PUBLIC "-//W3C//DTD SVG 1.1//EN" "http://www.w3.org/Graphics/SVG/1.1/DTD/svg11.dtd">
<!-- Creator: CorelDRAW -->
<svg xmlns="http://www.w3.org/2000/svg" xml:space="preserve" width="82.4231mm" height="26.4955mm" version="1.1" style="shape-rendering:geometricPrecision; text-rendering:geometricPrecision; image-rendering:optimizeQuality; fill-rule:evenodd; clip-rule:evenodd"
viewBox="0 0 8251.41 2652.48"
 xmlns:xlink="http://www.w3.org/1999/xlink"
 xmlns:xodm="http://www.corel.com/coreldraw/odm/2003">
 <defs>
  <style type="text/css">
   <![CDATA[
    .fil1 {fill:#E31E24}
    .fil2 {fill:#727271;fill-rule:nonzero}
    .fil0 {fill:#1C1B17;fill-rule:nonzero}
   ]]>
  </style>
 </defs>
 <g id="Слой_x0020_1">
  <metadata id="CorelCorpID_0Corel-Layer"/>
  <path class="fil0" d="M3605.89 1240.74l-393.33 0 -112.16 257.1 -111.28 -0.45 423.76 -946 415.61 946 -112.67 -0.23 -109.91 -256.42zm-40.17 -91.77l-152.17 -363.31 -158.29 363.31 310.46 0z"/>
  <path class="fil0" d="M4210 1094.44l294.29 402.95 -127.4 -0.43 -276.81 -395.01 -27.73 0.45 0 394.99 -103.54 0 0 -903.03 149.86 0c59.06,0 112.67,7.77 160.8,23.28 48.15,15.52 86.98,41.68 116.5,78.48 29.52,36.78 44.29,85.78 44.29,146.96 0,45.22 -9.09,86.89 -27.25,125 -9.09,17.73 -20.22,33.47 -33.39,47.21 -13.17,13.76 -28.6,26.62 -46.31,38.59 -17.73,11.95 -36.35,21.04 -55.86,27.25 -19.55,6.22 -42.03,10.63 -67.44,13.3zm-137.64 -81.13c53.61,0 99.94,-3.56 138.97,-10.64 37.26,-5.33 68.14,-20.84 92.66,-46.56 24.51,-25.71 36.78,-63.38 36.78,-113.02 0,-46.99 -13.15,-81.58 -39.5,-103.75 -13.64,-11.51 -28.15,-20.84 -43.59,-27.92 -15.46,-7.09 -32.73,-11.97 -51.78,-14.62 -37.26,-5.33 -81.77,-8 -133.55,-8l0 324.52z"/>
  <polygon class="fil0" points="4844.94,688.79 4844.94,1497.39 4742.76,1497.39 4742.76,688.79 4517.94,688.79 4517.94,594.37 5069.77,594.37 5069.77,688.79 "/>
  <path class="fil0" d="M5706.1 722.06l-83.11 50.53c-19.98,-34.57 -42.26,-59.86 -66.77,-75.79 -24.53,-14.2 -53.15,-21.29 -85.85,-21.29 -29.96,0 -56.77,5.76 -80.37,17.31 -23.64,11.51 -42.26,27.46 -55.88,47.86 -13.63,20.38 -20.42,43.02 -20.42,67.83 0,41.67 17.27,73.81 51.78,96.41 34.52,22.61 86.3,49.2 155.32,79.8 69.04,30.58 123.54,64.51 163.5,101.75 37.27,38.13 55.86,87.78 55.86,148.93 0,50.54 -13.16,97.76 -39.5,141.65 -26.34,43.88 -61.32,77.59 -104.94,101.07 -43.59,23.49 -92.64,35.25 -147.13,35.25 -49.07,0 -93.12,-9.09 -132.19,-27.26 -39.07,-18.18 -71.76,-45 -98.1,-80.46 -26.34,-35.48 -45.41,-77.15 -57.2,-125.02l99.44 -26.59c26.36,109.93 88.11,164.9 185.32,164.9 54.49,0 99.47,-17.5 134.88,-52.52 35.43,-35.05 53.17,-78.71 53.17,-131.02 0,-45.21 -16.85,-79.78 -50.45,-103.72 -33.61,-23.94 -86.28,-52.32 -158.02,-85.12 -37.27,-16.85 -68.83,-32.8 -94.72,-47.88 -25.89,-15.05 -48.39,-31.91 -67.43,-50.53 -37.25,-33.7 -55.88,-79.35 -55.88,-136.99 0,-32.81 6.81,-63.83 20.45,-93.09 10.88,-25.7 29.04,-50.08 54.47,-73.15 11.83,-9.74 24.8,-18.6 38.86,-26.59 14.07,-7.98 30.18,-14.65 48.37,-19.95 31.79,-11.51 67.66,-17.29 107.64,-17.29 97.19,0 173.48,46.99 228.91,140.99z"/>
  <polygon class="fil0" points="6159.84,688.79 6159.84,1497.39 6057.64,1497.39 6057.64,688.79 5832.81,688.79 5832.81,594.37 6384.69,594.37 6384.69,688.79 "/>
  <polygon class="fil0" points="6719.86,1107.73 6417.37,594.37 6537.04,594.59 6772.09,998.91 7010.33,594.37 7128.62,594.37 6822.03,1107.73 6822.03,1497.39 6719.86,1497.39 "/>
  <polygon class="fil0" points="7371.19,594.37 7371.19,1402.97 7625.98,1402.97 7625.98,1497.39 7267.62,1497.39 7267.62,594.37 "/>
  <polygon class="fil0" points="8251.41,688.79 7878.06,688.79 7878.06,956.1 8243.23,956.1 8243.23,1050.55 7878.06,1050.55 7878.06,1402.97 8251.41,1402.97 8251.41,1497.39 7774.49,1497.39 7774.49,594.37 8251.41,594.37 "/>
  <path class="fil0" d="M955.69 1026.91l-177.51 411.43 355.33 0 -177.83 -411.43zm0 -294.12l507.92 1162.36 -143.98 0 -144.99 -342.62 -436.04 0 -145.03 342.62 -143.7 0 505.82 -1162.36z"/>
  <path class="fil0" d="M1537.03 1850.81l0 -151.23c17.43,15.38 38.26,28.93 62.21,41.21 24.24,12.25 49.74,22.68 76.28,31.03 26.82,8.33 53.63,14.85 80.44,19.55 27.09,4.41 52.06,6.76 74.72,6.76 78.87,0 137.72,-14.6 176.77,-44.05 38.78,-29.2 58.3,-71.46 58.3,-126.18 0,-29.74 -6.5,-55.29 -19.52,-77.2 -13.01,-21.9 -30.97,-41.98 -53.61,-59.99 -22.95,-18.24 -50.01,-35.46 -81.25,-52.12 -31.48,-16.43 -65.08,-33.91 -101.27,-52.16 -38.01,-19.31 -73.66,-39.1 -106.75,-58.92 -33.02,-19.81 -61.67,-41.72 -86.16,-65.71 -24.47,-23.99 -43.48,-51.09 -57.53,-81.35 -14.07,-30.23 -21.08,-65.71 -21.08,-106.37 0,-50.06 10.94,-93.35 32.81,-130.36 21.85,-37.04 50.76,-67.26 86.17,-91.26 35.66,-23.98 76.26,-41.72 121.82,-53.46 45.31,-11.74 91.92,-17.71 139.04,-17.71 107.75,0 186.41,13.02 235.84,39.1l0 144.45c-64.55,-44.86 -147.58,-67.27 -248.6,-67.27 -28.12,0 -55.97,2.87 -84.09,8.59 -27.85,6.01 -52.86,15.66 -74.71,28.69 -21.85,13.28 -39.58,30.51 -53.36,51.38 -13.79,20.84 -20.56,46.15 -20.56,76.39 0,27.89 5.2,52.12 15.59,72.46 10.44,20.33 25.81,38.85 46.1,55.79 20.31,16.71 45.29,33.13 74.45,48.77 29.15,15.92 62.99,33.12 100.99,51.89 39.31,19.55 76.27,39.88 111.42,61.26 35.17,21.39 65.89,45.11 92.15,70.93 26.59,26.08 47.4,54.74 63.02,86.31 15.64,31.54 23.18,67.79 23.18,108.47 0,53.96 -10.4,99.85 -31.48,137.14 -21.11,37.56 -49.74,68.06 -85.38,91.26 -35.96,23.47 -77.35,40.4 -123.96,50.84 -46.84,10.42 -96.04,15.65 -148.11,15.65 -17.18,0 -38.52,-1.3 -64.04,-4.17 -25.24,-2.86 -51.28,-6.78 -77.84,-12.26 -26.31,-5.2 -51.28,-11.98 -74.97,-19.79 -23.71,-7.84 -42.69,-16.7 -57.02,-26.35z"/>
  <path class="fil1" d="M63.28 2607.56l139.59 -32.71c75.8,-18.37 211.72,-42.04 291.49,-53.04 69.69,-9.62 250.77,-32.43 314.24,-33.87 21.34,-0.47 59.07,-1.78 81.06,-4.88 16.22,-2.29 24.07,-1.55 41.18,-1.81 19.85,-0.3 21.8,-3.79 43.08,-3.81 49.76,-0.13 120.25,-0.96 166.19,-5.69 34.31,-3.56 310.5,1.48 346.51,5.85 52.88,6.44 115.11,-0.61 167.67,7.1 49.13,7.21 108.61,5.89 161.31,13.27 98.34,13.78 209.06,22.05 313.05,39.96 90.59,15.61 202.54,35.89 293.72,58.95 22.98,5.81 44.98,11.04 69.01,18.1 12.35,3.62 23.44,6.85 33.92,9.66 15.83,4.2 21.04,7.86 38.46,9.91 0.03,-0.06 18.58,-7.21 -23.61,-17.63 -89.25,-22.08 -145.93,-40.62 -246.97,-61.54 -496.35,-102.77 -1145.48,-124.41 -1644.65,-65.43 -107.95,12.75 -284.77,31.86 -385.52,57.96 -22.53,5.84 -47.5,11.64 -69.86,15.9 -24.81,4.71 -121.24,23.39 -129.87,43.74z"/>
  <path class="fil1" d="M2403.22 921.96c-1.09,13.13 -2.12,26.11 -3.11,38.92 0.99,-12.81 2.01,-25.79 3.11,-38.92zm-2182.19 1509.48l0.29 0.79c-11.71,2.22 -23.04,4.35 -23.54,4.32 -9.65,-0.58 -0.05,2.9 -7.03,-2.05l0.1 -12.4c0.55,-0.65 1.2,-2.76 1.34,-2.24l53.8 -254.71c15.52,-87.93 50.13,-324.58 53.21,-415.37 0.59,-17.82 2.83,-54.29 5.68,-73.81l12.69 -221.85c0.93,-108.81 7.46,-272.4 -0.39,-378.87 -2.09,-28.4 -1.42,-113.14 -5.7,-146.85 -3.32,-26.38 -4,-101.96 -9.91,-146.63 -15.14,-114.4 -20.4,-223.51 -42.98,-344.78 -15.64,-83.99 -24.32,-173.83 -63.72,-250.07l74.44 5.19 234.98 45.32c85.39,14.29 175.59,27.31 261.13,35.99 186.86,19 369.44,30.71 562.58,32.99 168.97,1.99 275.41,-5.64 433.31,-11.9 45.72,-1.83 91.04,-8.6 133.9,-10.61 47.74,-2.24 91.93,-8.77 134.92,-13.82 42.73,-5.01 87.48,-9.17 128.41,-16.47 41.34,-7.34 84.83,-13.17 126.28,-21.88 73.21,-15.42 112.14,-8.2 174.62,-20.78l0 0c0.64,13.83 -8.1,43.2 -11.6,60.09 -42.78,207.43 -62.9,317.59 -87.86,539.21l-14.07 184.64c-1.04,17.34 -3.66,16.43 -4.39,35.31l-11.14 378.73c-0.45,30.07 3.77,43.88 3.34,74.88 -0.76,54.51 0.15,101.11 2.52,153.92l36.81 425.13c8.02,65.79 28.04,203.82 42.18,267.35 5.22,23.46 20.15,110.28 27.36,126.48 -13.58,-4.35 -45.42,-6.98 -54.14,-10.13l-48.21 -11.28c-137.15,-33.53 -314.6,-56.17 -452.56,-74.66l-207.36 -18.85c-29.43,-0.47 -41.91,-4.49 -70.92,-4.52l-145.13 -5.76c-52.35,-6.35 -240.87,-6.35 -296.13,-2.26 -22.88,1.68 -51.21,-0.67 -74.74,-0.61l-486.29 37.53c-104.99,13.58 -217.37,30.11 -320.04,51.82 -11.94,2.52 -26.23,6.36 -39.81,9.32l-0.2 0.03 -0.03 0.02 -0.22 0.03 -14.07 2.71 -0.36 0.06c-3.99,0.64 -7.82,1.09 -11.36,1.32zm61.44 50.11c6.38,-1.48 11.97,-2.8 16.26,-3.69 139.44,-29.37 293.45,-51.18 454.78,-65.66 -161.33,14.5 -315.33,36.3 -454.78,65.69 -4.28,0.88 -9.88,2.2 -16.26,3.66zm938.08 -90.99c21.08,-0.12 42.2,-0.14 63.27,-0.04 -21.07,-0.1 -42.19,-0.08 -63.27,0.04zm795.23 50.36c66.19,9.36 130.17,20 191.41,31.92l9.2 1.79 -9.2 -1.78c-61.24,-11.9 -125.22,-22.54 -191.41,-31.93zm428.87 16.49l-0.04 0 20.01 -7.49 -19.97 7.49zm-1751.4 -2215.21l-406.63 -69.54 406.63 69.53 0 0.01zm1789.13 2198.96l-0.11 2.62 -16.02 5.21 16.02 -5.21 0.11 -2.62zm-2314.96 -189.93c2.39,-11.69 4.71,-23.37 6.91,-35.06 21.56,-114.49 39.29,-233.67 53.08,-355.62 -13.79,121.95 -31.51,241.14 -53.08,355.62 -2.19,11.67 -4.49,23.37 -6.91,35.06zm95.68 -1046.38c-0.06,-20.98 -0.24,-41.95 -0.51,-62.89 0.27,20.94 0.45,41.91 0.51,62.89zm1118.32 -949.96c18.01,0.1 35.97,0.1 53.89,0.02 -17.92,0.08 -35.88,0.08 -53.89,-0.02zm1208.98 -174.73c0.74,-1.86 1.4,-3.79 1.91,-5.81 -0.51,2.03 -1.17,3.96 -1.91,5.81zm2.42 -7.87c0.48,-2.07 0.79,-4.23 1.04,-6.5l0.02 0c-0.25,2.26 -0.58,4.42 -1.06,6.5zm-35.94 6.4c-1.64,0.61 -3.37,1.24 -5.26,1.87 1.88,-0.63 3.61,-1.26 5.26,-1.87zm-6.68 2.36c-5.84,1.94 -12.84,3.97 -21.44,6.11 -46.97,11.44 -94.88,21.9 -143.56,31.43 48.67,-9.53 96.59,-20.01 143.56,-31.45 8.58,-2.13 15.61,-4.15 21.44,-6.09zm-165 37.56c-12.15,2.37 -24.4,4.7 -36.65,6.97 12.25,-2.27 24.5,-4.6 36.65,-6.97zm-55.06 10.34c-12.3,2.2 -24.64,4.34 -37.01,6.45 12.37,-2.1 24.71,-4.24 37.01,-6.45zm-92.95 15.55c-12.48,1.93 -25.01,3.81 -37.56,5.65 12.55,-1.83 25.08,-3.71 37.56,-5.65zm-1874.28 -32.81l-217 -49c-1.77,-0.46 -3.99,-1.13 -6.59,-1.96 2.59,0.83 4.82,1.49 6.59,1.95l217 49.01zm-299.62 2495.88c8.61,-20.35 105.05,-39.03 129.85,-43.72 22.36,-4.25 47.34,-10.1 69.86,-15.92 100.74,-26.13 277.57,-45.21 385.52,-57.97 499.18,-58.97 1148.31,-37.33 1644.65,65.44 101.04,20.91 157.72,39.45 246.97,61.54 42.19,10.42 23.64,17.59 23.62,17.62 9.39,4.77 53,11.15 66.85,11.57 -1.09,-14.58 -4.99,-20.38 -8.97,-34.17 -112.22,-385.63 -148.46,-867.09 -144.93,-1268.83 0.56,-60.52 1.25,-121.01 1.51,-181.51l9.42 -177.44c0.74,-19.58 3.85,-19.64 4.51,-39.19 0.66,-19.76 1.09,-30.1 3.15,-44.55 4.05,-28.94 2.82,-55.55 6.83,-84.54 7.36,-52.63 13.14,-113.5 19.76,-166.9 13.73,-110.09 32.92,-213.91 54.02,-315.06 22.54,-108.22 57.26,-207.43 73.87,-302.06l-0.02 0c0.18,-16.93 0.78,-2.33 -3.84,-8.58l-39.36 11.46 -0.02 0c-22.2,4.92 -46.16,13.12 -68,18.36 -80.08,19.08 -137.12,33.33 -222.45,47.79 -159.58,27.02 -242.2,34.49 -397.07,52.88l-207.97 14.84c-15.1,1.1 -31.87,-0.93 -47.09,-0.24l-86.78 3.05c-20.17,-0.16 -24.06,2.38 -39.48,3.53 -14.19,1.02 -32.45,-0.08 -47.02,-0.22 -90.58,-0.82 -181.13,-1.64 -271.72,-2.42l-173.16 -9.43c-55.47,-3.46 -112.91,-2.46 -170.94,-11.68 -27.75,-4.4 -56.16,-3.8 -84.3,-6.98 -282.39,-31.87 -426.61,-57.46 -693.44,-127.01 -25.05,-6.54 -49.13,-11.2 -73.89,-17.22 1.22,16.59 13.96,55.23 18.62,71.61 6.62,23.33 13.08,49.88 18.76,71.49 6.33,24.2 11.37,49.74 16.18,73.99 34.19,172.24 69.03,384.21 81.08,565.33l6.96 129.97c2.95,69.93 10.61,148.68 9.87,220.96 -0.66,65.34 2.57,119.67 2.37,181.51 -0.1,31.82 -4.5,51.86 -4.76,86.68 -0.21,30.23 -0.66,60.5 -0.77,90.75l-33.68 431.29c-4.34,29.89 -6.92,56.99 -10.29,84.99 -18.58,153.89 -52.01,321.79 -90.01,469.38l-37.57 148.75 63.3 -19.15zm2566.81 -2566.74c-0.76,0.65 -1.49,1.31 -2.19,1.98 0.7,-0.67 1.43,-1.33 2.19,-1.98zm-83.77 165.65l-17.21 74.12c-0.84,4.45 -1.64,8.62 -2.45,12.59 0.81,-3.95 1.61,-8.13 2.42,-12.59l17.24 -74.12zm-2261.54 2284.96c-7.51,1.48 -15.01,2.93 -22.54,4.37l22.54 -4.37zm-203.92 44.01l-0.02 0c0.03,-2.61 0.17,-5.32 0.41,-8.07 -0.21,2.75 -0.36,5.46 -0.39,8.07zm-25.57 -2508.79l-0.15 -0.03 -0.23 -0.02 -0.1 0 0 0.02 -0.1 0.01 -0.01 0 -0.1 0.04 0 0 -0.08 0.03 -0.02 0 -0.08 0.05 0 0 -0.1 0.05 0 0.02 -0.08 0.05 0 0 -0.09 0.04 0 0.02 -0.05 0.05 -0.03 0.02 -0.05 0.05 0 0.01 -0.08 0.05 -0.07 0.05 0 0.02 -0.05 0.05 0 0 -0.06 0.05 0 0 -0.03 0.05 -0.09 0.03 0 0 -0.03 0.03 -0.07 0.02 -0.01 0.02 -0.1 -0.04 -0.07 -0.03 -0.01 -0.05 0 0 -0.04 -0.07 0 0 -0.06 -0.08 0 -0.01 -0.02 -0.1 -0.03 -0.14 -0.04 0 -0.03 -0.14 0 0 -0.01 -0.18 -0.05 -0.2 -0.04 -0.23 -0.03 -0.27 0 0 -0.07 -0.28 -0.01 -0.33 0 0 -0.05 -0.34 -0.02 0 -0.01 -0.38 0 -0.02 -0.07 -0.41 0 0 -0.03 -0.46 0 0 -0.04 -0.5 -0.03 0 -0.03 -0.52 0 -0.02 -0.07 -0.56 0 0 -0.03 -0.61 0 -0.02 -0.08 -0.64 0 -0.01 -0.05 -0.7 0 0 -0.07 -0.74 0 0 -0.06 -0.8 -0.02 0 -0.05 -0.83 0 0 -0.07 -0.9 -0.01 0 0.01 0 3.15 9.84zm1099.84 161.57c18.87,0.78 37.64,1.47 56.36,2.06 -18.72,-0.59 -37.49,-1.26 -56.36,-2.06zm130.68 3.99c18.45,0.36 36.8,0.63 55.04,0.83l10.07 0.16 -10.07 -0.16c-18.24,-0.19 -36.59,-0.47 -55.04,-0.83z"/>
  <path class="fil2" d="M2979.11 1865.85l44.13 0 0 111.11 136.88 0 0 -111.11 44.11 0 0 278.95 -44.11 0 0 -128.88 -136.88 0 0 128.88 -44.13 0 0 -278.95zm422.2 -6.31c32.81,0 59.16,9.72 79.03,29.21 19.86,19.45 29.76,47.53 29.76,84.2l0 171.84 -41.24 0 0 -36.1c-10.3,13.76 -23.51,24.25 -39.48,31.51 -16.07,7.25 -34.2,10.88 -54.43,10.88 -28.64,0 -52.08,-7.06 -70.17,-21.19 -18.14,-14.13 -27.21,-33.25 -27.21,-57.26 0,-23.7 9.14,-42.59 27.46,-56.72 18.37,-14.13 42.63,-21.18 72.77,-21.18l88.18 0 0 -24.06c0,-22.93 -5.98,-40.4 -18.01,-52.44 -12,-12.02 -28.51,-18.05 -49.55,-18.05 -16.79,0 -31.7,3.72 -44.65,11.18 -13.03,7.48 -25.23,18.62 -36.66,33.51l-29.26 -24.04c12.66,-20.65 28.83,-36 48.68,-46.12 19.88,-10.12 41.47,-15.18 64.78,-15.18zm-20.65 254.88c15.29,0 29.38,-3.31 42.4,-10.02 12.96,-6.68 23.38,-15.95 31.2,-27.75 7.88,-11.85 11.72,-24.83 11.72,-38.95l0 -6.91 -83.04 0c-19.49,0 -34.33,3.34 -44.68,10.02 -10.29,6.68 -15.45,16.53 -15.45,29.52 0,14.14 5.54,25.01 16.61,32.66 11.09,7.61 24.82,11.43 41.24,11.43zm273.27 -209.06l-93.97 0 0 -39.51 231.42 0 0 39.51 -93.9 0 0 239.43 -43.54 0 0 -239.43zm398.65 -39.51l0 278.95 -44.09 0 0 -101.96 -52.7 0 -76.76 101.96 -51.57 0 81.35 -107.71c-20.63,-6.11 -36.74,-16.32 -48.44,-30.64 -11.62,-14.32 -17.44,-31.39 -17.44,-51.26 0,-27.1 8.98,-48.8 26.91,-64.99 17.96,-16.24 41.83,-24.35 71.59,-24.35l111.15 0zm-44.09 39.51l-64.21 0c-17.51,0 -31.3,4.38 -41.2,13.15 -9.96,8.81 -14.91,20.84 -14.91,36.1 0,14.9 5.08,26.82 15.16,35.82 10.16,8.95 24.01,13.44 41.56,13.44l63.6 0 0 -98.52zm170.14 -39.51l115.09 127.72 -127.17 151.23 -53.82 0 127.71 -151.23 -116.84 -127.72 55.03 0zm120.83 0l44.08 0 0 278.95 -44.08 0 0 -278.95zm231.96 278.95l-54.98 0 -127.17 -151.23 115.21 -127.72 54.36 0 -115.67 126.6 128.25 152.35zm60.77 -278.95l44.09 0 0 111.11 136.88 0 0 -111.11 44.15 0 0 278.95 -44.15 0 0 -128.88 -136.88 0 0 128.88 -44.09 0 0 -278.95zm321.91 0l44.07 0 0 96.23 66.46 0c31.3,0 56.5,8.31 75.61,24.92 19.12,16.6 28.65,38.66 28.65,66.14 0,27.89 -9.47,50.14 -28.36,66.74 -18.87,16.61 -44.22,24.92 -75.9,24.92l-110.53 0 0 -278.95zm255.49 0l44.05 0 0 278.95 -44.05 0 0 -278.95zm-147.21 239.99c19.82,0 35.02,-4.48 45.5,-13.46 10.51,-8.98 15.75,-21.85 15.75,-38.67 0,-16.81 -5.35,-29.78 -16,-38.94 -10.72,-9.15 -25.98,-13.74 -45.85,-13.74l-63.61 0 0 104.82 64.21 0zm534.4 -87.08l-220.55 0c2.74,27.51 13.59,49.66 32.7,66.46 19.07,16.79 42.36,25.2 69.9,25.2 31.68,0 60.14,-12.61 85.34,-37.79l25.79 29.76c-14.56,15.3 -31.25,27.24 -50.18,35.82 -18.87,8.57 -39.42,12.87 -61.59,12.87 -27.46,0 -52.48,-6.4 -74.97,-19.17 -22.53,-12.82 -40.3,-30.28 -53.31,-52.44 -12.97,-22.14 -19.46,-46.77 -19.46,-73.87 0,-26.75 6.3,-51.28 18.87,-73.63 12.62,-22.32 29.84,-39.99 51.54,-52.99 21.78,-12.96 45.86,-19.45 72.2,-19.45 23.67,0 45.25,5.33 64.74,16.01 19.5,10.73 34.74,25.61 45.84,44.7 11.07,19.11 16.59,40.86 16.59,65.29 0,10.69 -1.16,21.78 -3.44,33.23zm-124.89 -119.13c-23.28,0 -43.52,7.36 -60.69,22.04 -17.2,14.7 -28.23,34.1 -33.25,58.13l177.02 0c-0.38,-24.82 -8.46,-44.37 -24.33,-58.69 -15.88,-14.32 -35.43,-21.48 -58.75,-21.48zm366.07 -33.79l222.8 0 0 278.95 -44.66 0 0 -239.43 -134.09 0 0 239.43 -44.05 0 0 -278.95zm445.02 284.67c-26.72,0 -51.17,-6.49 -73.32,-19.48 -22.15,-12.96 -39.67,-30.65 -52.67,-52.99 -12.96,-22.34 -19.49,-46.65 -19.49,-73.01 0,-26.73 6.53,-51.26 19.49,-73.61 12.99,-22.34 30.64,-39.92 52.99,-52.7 22.33,-12.8 46.85,-19.19 73.57,-19.19 26.72,0 51.3,6.49 73.64,19.45 22.31,12.99 40.02,30.56 52.96,52.73 13.04,22.13 19.49,46.59 19.49,73.32 0,26.36 -6.45,50.67 -19.49,73.01 -12.93,22.33 -30.7,40.02 -53.28,52.99 -22.51,12.99 -47.15,19.48 -73.89,19.48zm0 -40.66c18.75,0 35.83,-4.59 51.3,-13.76 15.47,-9.15 27.71,-21.66 36.63,-37.5 8.98,-15.87 13.48,-33.54 13.48,-52.99 0,-19.88 -4.39,-37.83 -13.16,-53.85 -8.8,-16.03 -20.93,-28.64 -36.38,-37.81 -15.49,-9.16 -32.57,-13.77 -51.3,-13.77 -19.08,0 -36.23,4.61 -51.55,13.77 -15.23,9.17 -27.29,21.78 -36.04,37.81 -8.82,16.02 -13.21,33.97 -13.21,53.85 0,19.45 4.39,37.12 13.21,52.99 8.75,15.84 20.81,28.35 36.04,37.5 15.32,9.17 32.28,13.76 50.98,13.76zm276.14 -204.5l-93.91 0 0 -39.51 231.41 0 0 39.51 -93.93 0 0 239.43 -43.56 0 0 -239.43zm323.07 245.16c-26.74,0 -51.18,-6.49 -73.32,-19.48 -22.19,-12.96 -39.74,-30.65 -52.72,-52.99 -12.99,-22.34 -19.48,-46.65 -19.48,-73.01 0,-26.73 6.49,-51.26 19.48,-73.61 12.97,-22.34 30.65,-39.92 52.97,-52.7 22.32,-12.8 46.9,-19.19 73.62,-19.19 26.75,0 51.25,6.49 73.59,19.45 22.34,12.99 40.01,30.56 53.03,52.73 12.98,22.13 19.47,46.59 19.47,73.32 0,26.36 -6.49,50.67 -19.47,73.01 -13.01,22.33 -30.75,40.02 -53.28,52.99 -22.53,12.99 -47.16,19.48 -73.89,19.48zm0 -40.66c18.7,0 35.82,-4.59 51.23,-13.76 15.48,-9.15 27.74,-21.66 36.7,-37.5 8.92,-15.87 13.46,-33.54 13.46,-52.99 0,-19.88 -4.37,-37.83 -13.21,-53.85 -8.77,-16.03 -20.9,-28.64 -36.38,-37.81 -15.41,-9.16 -32.49,-13.77 -51.25,-13.77 -19.11,0 -36.25,4.61 -51.54,13.77 -15.3,9.17 -27.3,21.78 -36.06,37.81 -8.85,16.02 -13.2,33.97 -13.2,53.85 0,19.45 4.35,37.12 13.2,52.99 8.76,15.84 20.76,28.35 36.06,37.5 15.29,9.17 32.26,13.76 50.99,13.76zm434.75 -244.01l0 278.95 -44.12 0 0 -239.43 -103.66 0 -1.16 34.37c-1.53,48.89 -5.14,88.21 -10.83,117.97 -5.75,29.81 -14.96,52.16 -27.53,67.04 -12.62,14.88 -29.76,22.33 -51.54,22.33 -5.39,0 -10.33,-0.74 -14.92,-2.28l0 -37.22c4.59,0.74 8.41,1.12 11.47,1.12 17.92,0 30.73,-14 38.36,-42.09 7.65,-28.08 12.05,-70.76 13.21,-128.04l1.69 -72.72 189.02 0zm97.39 0l44.12 0 0 278.95 -44.12 0 0 -278.95zm234.87 278.95l-55.59 0 -129.45 -151.23 117.49 -127.72 54.94 0 -118.6 126.6 131.21 152.35zm290.41 -285.25l0 285.25 -44.13 0 0 -197.05 -170.11 203.34 -16.02 0 0 -285.24 44.05 0 0 197.6 170.17 -203.9 16.04 0z"/>
  <path class="fil2" d="M2979.11 2367.24l44.11 0 0 111.11 136.88 0 0 -111.11 44.15 0 0 278.94 -44.15 0 0 -128.87 -136.88 0 0 128.87 -44.11 0 0 -278.94zm447.38 284.66c-26.75,0 -51.19,-6.49 -73.34,-19.47 -22.14,-12.97 -39.73,-30.66 -52.67,-53 -13.04,-22.34 -19.49,-46.65 -19.49,-73.01 0,-26.72 6.45,-51.26 19.49,-73.61 12.93,-22.34 30.58,-39.91 52.93,-52.7 22.33,-12.8 46.9,-19.19 73.63,-19.19 26.74,0 51.24,6.49 73.6,19.46 22.34,12.98 40,30.56 52.99,52.72 12.97,22.13 19.46,46.6 19.46,73.32 0,26.36 -6.49,50.67 -19.46,73.01 -12.98,22.33 -30.77,40.02 -53.25,53 -22.54,12.98 -47.17,19.47 -73.89,19.47zm0 -40.66c18.67,0 35.81,-4.59 51.22,-13.76 15.52,-9.14 27.71,-21.65 36.71,-37.5 8.95,-15.87 13.46,-33.54 13.46,-52.99 0,-19.87 -4.39,-37.83 -13.22,-53.85 -8.75,-16.03 -20.86,-28.64 -36.38,-37.81 -15.43,-9.16 -32.53,-13.77 -51.24,-13.77 -19.08,0 -36.29,4.61 -51.55,13.77 -15.29,9.17 -27.29,21.78 -36.1,37.81 -8.77,16.02 -13.16,33.98 -13.16,53.85 0,19.45 4.39,37.12 13.16,52.99 8.81,15.85 20.81,28.36 36.1,37.5 15.26,9.17 32.28,13.76 51,13.76zm399.83 -116.29c16.39,5.73 29.26,14.33 38.66,25.8 9.34,11.42 14.04,25.18 14.04,41.23 0,24.83 -9.02,45.06 -26.97,60.74 -17.9,15.63 -41.96,23.47 -72.14,23.47l-129.45 0 0 -278.94 115.11 0c27.51,0 49.37,6.66 65.58,20 16.26,13.39 24.39,31.34 24.39,53.87 0,11.07 -2.61,21.28 -7.75,30.65 -5.14,9.34 -12.32,17.08 -21.46,23.19zm-131.8 -13.75l71.59 0c15.34,0 26.75,-3.33 34.39,-10.04 7.67,-6.66 11.49,-15.93 11.49,-27.75 0,-24.45 -15.31,-36.67 -45.88,-36.67l-71.59 0 0 74.46zm82.53 126.02c18.31,0 32.55,-4.2 42.68,-12.59 10.06,-8.4 15.18,-19.3 15.18,-32.66 0,-13 -5.12,-23.19 -15.18,-30.63 -10.13,-7.46 -24.37,-11.18 -42.68,-11.18l-82.53 0 0 87.07 82.53 0zm310.45 44.68c-26.74,0 -51.18,-6.49 -73.34,-19.47 -22.13,-12.97 -39.72,-30.66 -52.66,-53 -13.05,-22.34 -19.53,-46.65 -19.53,-73.01 0,-26.72 6.48,-51.26 19.53,-73.61 12.93,-22.34 30.58,-39.91 52.93,-52.7 22.32,-12.8 46.9,-19.19 73.62,-19.19 26.75,0 51.25,6.49 73.59,19.46 22.32,12.98 40.01,30.56 53.01,52.72 12.97,22.13 19.49,46.6 19.49,73.32 0,26.36 -6.52,50.67 -19.49,73.01 -12.99,22.33 -30.73,40.02 -53.26,53 -22.53,12.98 -47.16,19.47 -73.89,19.47zm0 -40.66c18.68,0 35.82,-4.59 51.23,-13.76 15.52,-9.14 27.71,-21.65 36.7,-37.5 8.92,-15.87 13.46,-33.54 13.46,-52.99 0,-19.87 -4.38,-37.83 -13.21,-53.85 -8.75,-16.03 -20.86,-28.64 -36.38,-37.81 -15.43,-9.16 -32.51,-13.77 -51.25,-13.77 -19.11,0 -36.29,4.61 -51.54,13.77 -15.3,9.17 -27.3,21.78 -36.1,37.81 -8.77,16.02 -13.16,33.98 -13.16,53.85 0,19.45 4.39,37.12 13.16,52.99 8.8,15.85 20.8,28.36 36.1,37.5 15.25,9.17 32.24,13.76 50.99,13.76zm223.98 -244l187.86 0 0 39.5 -143.79 0 0 239.43 -44.07 0 0 -278.94zm362 284.66c-26.7,0 -51.18,-6.49 -73.34,-19.47 -22.13,-12.97 -39.65,-30.66 -52.66,-53 -12.97,-22.34 -19.5,-46.65 -19.5,-73.01 0,-26.72 6.53,-51.26 19.5,-73.61 13,-22.34 30.63,-39.91 52.99,-52.7 22.34,-12.8 46.88,-19.19 73.56,-19.19 26.75,0 51.3,6.49 73.61,19.46 22.34,12.98 40.05,30.56 52.99,52.72 13.04,22.13 19.53,46.6 19.53,73.32 0,26.36 -6.49,50.67 -19.53,73.01 -12.93,22.33 -30.7,40.02 -53.24,53 -22.55,12.98 -47.18,19.47 -73.91,19.47zm0 -40.66c18.74,0 35.82,-4.59 51.3,-13.76 15.45,-9.14 27.69,-21.65 36.63,-37.5 8.96,-15.87 13.46,-33.54 13.46,-52.99 0,-19.87 -4.35,-37.83 -13.15,-53.85 -8.81,-16.03 -20.92,-28.64 -36.39,-37.81 -15.46,-9.16 -32.53,-13.77 -51.3,-13.77 -19.07,0 -36.21,4.61 -51.54,13.77 -15.26,9.17 -27.26,21.78 -36.05,37.81 -8.82,16.02 -13.21,33.98 -13.21,53.85 0,19.45 4.39,37.12 13.21,52.99 8.79,15.85 20.79,28.36 36.05,37.5 15.33,9.17 32.28,13.76 50.99,13.76zm384.35 -244l222.83 0 0 278.94 -44.67 0 0 -239.43 -134.04 0 0 239.43 -44.12 0 0 -278.94zm445.09 284.66c-26.72,0 -51.16,-6.49 -73.32,-19.47 -22.15,-12.97 -39.73,-30.66 -52.68,-53 -13.03,-22.34 -19.52,-46.65 -19.52,-73.01 0,-26.72 6.49,-51.26 19.52,-73.61 12.94,-22.34 30.58,-39.91 52.93,-52.7 22.34,-12.8 46.92,-19.19 73.64,-19.19 26.73,0 51.24,6.49 73.57,19.46 22.34,12.98 40.01,30.56 53.03,52.72 12.96,22.13 19.49,46.6 19.49,73.32 0,26.36 -6.53,50.67 -19.49,73.01 -13.01,22.33 -30.73,40.02 -53.28,53 -22.51,12.98 -47.15,19.47 -73.89,19.47zm0 -40.66c18.72,0 35.82,-4.59 51.24,-13.76 15.49,-9.14 27.73,-21.65 36.69,-37.5 8.94,-15.87 13.48,-33.54 13.48,-52.99 0,-19.87 -4.39,-37.83 -13.23,-53.85 -8.73,-16.03 -20.86,-28.64 -36.37,-37.81 -15.42,-9.16 -32.5,-13.77 -51.24,-13.77 -19.11,0 -36.29,4.61 -51.54,13.77 -15.3,9.17 -27.3,21.78 -36.1,37.81 -8.79,16.02 -13.16,33.98 -13.16,53.85 0,19.45 4.37,37.12 13.16,52.99 8.8,15.85 20.8,28.36 36.1,37.5 15.25,9.17 32.24,13.76 50.97,13.76zm224 -244l44.05 0 0 278.94 -44.05 0 0 -278.94zm234.84 278.94l-55.56 0 -129.46 -151.23 117.42 -127.71 54.97 0 -118.55 126.59 131.18 152.35zm176.98 5.73c-26.71,0 -51.15,-6.49 -73.32,-19.47 -22.16,-12.97 -39.67,-30.66 -52.69,-53 -12.97,-22.34 -19.49,-46.65 -19.49,-73.01 0,-26.72 6.52,-51.26 19.49,-73.61 13.01,-22.34 30.64,-39.91 52.99,-52.7 22.31,-12.8 46.88,-19.19 73.61,-19.19 26.7,0 51.28,6.49 73.58,19.46 22.33,12.98 40.03,30.56 52.99,52.72 13.03,22.13 19.52,46.6 19.52,73.32 0,26.36 -6.49,50.67 -19.52,73.01 -12.95,22.33 -30.71,40.02 -53.23,53 -22.58,12.98 -47.21,19.47 -73.93,19.47zm0 -40.66c18.73,0 35.81,-4.59 51.3,-13.76 15.44,-9.14 27.69,-21.65 36.67,-37.5 8.92,-15.87 13.42,-33.54 13.42,-52.99 0,-19.87 -4.35,-37.83 -13.18,-53.85 -8.78,-16.03 -20.9,-28.64 -36.34,-37.81 -15.47,-9.16 -32.55,-13.77 -51.28,-13.77 -19.12,0 -36.25,4.61 -51.55,13.77 -15.29,9.17 -27.29,21.78 -36.06,37.81 -8.85,16.02 -13.23,33.98 -13.23,53.85 0,19.45 4.38,37.12 13.23,52.99 8.77,15.85 20.77,28.36 36.06,37.5 15.3,9.17 32.24,13.76 50.96,13.76zm434.79 -244l0 278.94 -44.13 0 0 -239.43 -103.65 0 -1.16 34.37c-1.54,48.89 -5.14,88.21 -10.84,117.98 -5.75,29.8 -14.95,52.15 -27.52,67.04 -12.63,14.87 -29.76,22.32 -51.55,22.32 -5.37,0 -10.34,-0.74 -14.91,-2.28l0 -37.22c4.57,0.74 8.42,1.12 11.46,1.12 17.92,0 30.73,-14 38.34,-42.09 7.69,-28.07 12.08,-70.76 13.24,-128.04l1.69 -72.71 189.02 0zm343.72 152.92l-220.59 0c2.7,27.5 13.63,49.65 32.66,66.45 19.12,16.79 42.4,25.2 69.92,25.2 31.7,0 60.17,-12.61 85.36,-37.79l25.79 29.76c-14.55,15.3 -31.24,27.24 -50.18,35.82 -18.88,8.58 -39.42,12.87 -61.57,12.87 -27.48,0 -52.49,-6.39 -75.03,-19.17 -22.51,-12.82 -40.26,-30.28 -53.25,-52.44 -12.99,-22.13 -19.5,-46.77 -19.5,-73.87 0,-26.74 6.34,-51.28 18.89,-73.62 12.63,-22.33 29.8,-40 51.55,-52.99 21.79,-12.97 45.85,-19.46 72.2,-19.46 23.7,0 45.28,5.33 64.74,16.02 19.45,10.72 34.75,25.6 45.81,44.69 11.09,19.12 16.61,40.86 16.61,65.3 0,10.68 -1.12,21.77 -3.4,33.23zm-124.89 -119.14c-23.32,0 -43.55,7.36 -60.73,22.04 -17.17,14.7 -28.22,34.1 -33.25,58.14l177.02 0c-0.38,-24.83 -8.46,-44.38 -24.31,-58.69 -15.9,-14.33 -35.41,-21.49 -58.73,-21.49zm205.63 -33.78l44.13 0 0 111.11 136.88 0 0 -111.11 44.11 0 0 278.94 -44.11 0 0 -128.87 -136.88 0 0 128.87 -44.13 0 0 -278.94zm552.2 -6.32l0 285.25 -44.11 0 0 -197.04 -170.1 203.33 -16.05 0 0 -285.23 44.09 0 0 197.59 170.13 -203.9 16.04 0zm300.16 6.32l0 278.94 -44.12 0 0 -101.96 -52.71 0 -76.74 101.96 -51.55 0 81.33 -107.71c-20.61,-6.11 -36.76,-16.32 -48.38,-30.63 -11.66,-14.33 -17.46,-31.4 -17.46,-51.27 0,-27.1 8.96,-48.8 26.91,-64.98 17.94,-16.25 41.79,-24.35 71.57,-24.35l111.15 0zm-44.12 39.5l-64.14 0c-17.55,0 -31.34,4.39 -41.24,13.15 -9.94,8.81 -14.91,20.85 -14.91,36.1 0,14.9 5.04,26.82 15.16,35.82 10.16,8.96 24.01,13.44 41.58,13.44l63.55 0 0 -98.52z"/>
 </g>
</svg>
