<svg width="22" height="22" viewBox="0 0 22 22" fill="none" xmlns="http://www.w3.org/2000/svg">
<g clip-path="url(#clip0_151_1430)">
<path d="M10.9974 14.2083C12.7693 14.2083 14.2057 12.7719 14.2057 11C14.2057 9.22808 12.7693 7.79166 10.9974 7.79166C9.22548 7.79166 7.78906 9.22808 7.78906 11C7.78906 12.7719 9.22548 14.2083 10.9974 14.2083Z" stroke="#272324" stroke-width="2" stroke-miterlimit="10"/>
<path d="M21.5404 12.5125V9.37291L19.707 9.24C19.3462 9.21364 18.9999 9.08734 18.7069 8.87524C18.4138 8.66315 18.1856 8.37364 18.0479 8.03916V8.01624C17.9088 7.68163 17.8655 7.31492 17.923 6.95714C17.9805 6.59936 18.1364 6.26463 18.3733 5.99041L19.5741 4.61541L17.342 2.37874L15.967 3.57958C15.6928 3.81647 15.3581 3.97237 15.0003 4.02984C14.6425 4.08731 14.2758 4.04409 13.9412 3.905H13.9183C13.5853 3.77288 13.2962 3.54986 13.0839 3.26136C12.8716 2.97286 12.7446 2.6305 12.7174 2.27333L12.5662 0.458328H9.42661L9.2937 2.26416C9.26694 2.62314 9.1403 2.96747 8.9281 3.25824C8.71589 3.54901 8.42658 3.77462 8.09286 3.90958C7.75825 4.04867 7.39154 4.0919 7.03376 4.03442C6.67598 3.97695 6.34125 3.82105 6.06703 3.58416L4.69203 2.38333L2.43245 4.58333L3.63328 5.95833C3.87017 6.23254 4.02607 6.56727 4.08354 6.92505C4.14102 7.28284 4.09779 7.64955 3.9587 7.98416C3.82849 8.33025 3.60246 8.63213 3.30703 8.85452C3.0116 9.0769 2.65897 9.21061 2.29036 9.24L0.457031 9.37291V12.5125L2.29036 12.65C2.65115 12.6764 2.99747 12.8027 3.29051 13.0147C3.58356 13.2268 3.81175 13.5163 3.94953 13.8508V13.8737C4.08862 14.2084 4.13185 14.5751 4.07438 14.9329C4.01691 15.2906 3.861 15.6254 3.62411 15.8996L2.42328 17.2746L4.64161 19.4929L6.01661 18.2921C6.29083 18.0552 6.62556 17.8993 6.98334 17.8418C7.34112 17.7843 7.70784 17.8276 8.04245 17.9667H8.06536C8.40173 18.1108 8.69181 18.345 8.90367 18.6434C9.11554 18.9418 9.24098 19.2928 9.2662 19.6579L9.42661 21.5417H12.5662L12.6991 19.6854C12.7256 19.323 12.8517 18.9749 13.0637 18.6796C13.2756 18.3844 13.565 18.1535 13.8999 18.0125H13.9229C14.2571 17.8728 14.6235 17.8288 14.9813 17.8855C15.3391 17.9421 15.674 18.0972 15.9487 18.3333L17.3237 19.5296L19.542 17.3067L18.3412 15.9317C18.1043 15.6574 17.9484 15.3227 17.8909 14.9649C17.8335 14.6072 17.8767 14.2404 18.0158 13.9058V13.8829C18.1511 13.5378 18.3822 13.2384 18.6818 13.02C18.9813 12.8016 19.337 12.6733 19.707 12.65L21.5404 12.5125Z" stroke="#272324" stroke-width="2" stroke-miterlimit="10"/>
</g>
<defs>
<clipPath id="clip0_151_1430">
<rect width="22" height="22" fill="white"/>
</clipPath>
</defs>
</svg>
