<svg width="61" height="61" viewBox="0 0 61 61" fill="none" xmlns="http://www.w3.org/2000/svg">
<path d="M15.25 17.1563C15.8155 17.1563 16.3684 16.9886 16.8386 16.6744C17.3088 16.3602 17.6753 15.9136 17.8917 15.3911C18.1081 14.8686 18.1648 14.2937 18.0544 13.739C17.9441 13.1844 17.6718 12.6749 17.2719 12.275C16.872 11.8751 16.3625 11.6028 15.8078 11.4924C15.2532 11.3821 14.6782 11.4387 14.1558 11.6552C13.6333 11.8716 13.1867 12.2381 12.8725 12.7083C12.5583 13.1785 12.3906 13.7313 12.3906 14.2969C12.3906 15.0552 12.6919 15.7825 13.2281 16.3188C13.7644 16.855 14.4916 17.1563 15.25 17.1563ZM15.25 13.3438C15.4385 13.3438 15.6228 13.3997 15.7795 13.5044C15.9363 13.6091 16.0584 13.758 16.1306 13.9321C16.2027 14.1063 16.2216 14.2979 16.1848 14.4828C16.148 14.6677 16.0573 14.8375 15.924 14.9708C15.7907 15.1041 15.6208 15.1949 15.4359 15.2317C15.2511 15.2685 15.0594 15.2496 14.8853 15.1774C14.7111 15.1053 14.5622 14.9831 14.4575 14.8264C14.3528 14.6697 14.2969 14.4854 14.2969 14.2969C14.2969 14.0441 14.3973 13.8017 14.576 13.6229C14.7548 13.4442 14.9972 13.3438 15.25 13.3438Z" fill="#272324"/>
<path d="M15.25 24.7813C15.8155 24.7813 16.3684 24.6136 16.8386 24.2994C17.3088 23.9852 17.6753 23.5386 17.8917 23.0161C18.1081 22.4936 18.1648 21.9187 18.0544 21.364C17.9441 20.8094 17.6718 20.2999 17.2719 19.9C16.872 19.5001 16.3625 19.2278 15.8078 19.1174C15.2532 19.0071 14.6782 19.0637 14.1558 19.2802C13.6333 19.4966 13.1867 19.8631 12.8725 20.3333C12.5583 20.8035 12.3906 21.3563 12.3906 21.9219C12.3906 22.6802 12.6919 23.4075 13.2281 23.9438C13.7644 24.48 14.4916 24.7813 15.25 24.7813ZM15.25 20.9688C15.4385 20.9688 15.6228 21.0247 15.7795 21.1294C15.9363 21.2341 16.0584 21.383 16.1306 21.5571C16.2027 21.7313 16.2216 21.9229 16.1848 22.1078C16.148 22.2927 16.0573 22.4625 15.924 22.5958C15.7907 22.7291 15.6208 22.8199 15.4359 22.8567C15.2511 22.8935 15.0594 22.8746 14.8853 22.8024C14.7111 22.7303 14.5622 22.6081 14.4575 22.4514C14.3528 22.2947 14.2969 22.1104 14.2969 21.9219C14.2969 21.6691 14.3973 21.4267 14.576 21.2479C14.7548 21.0692 14.9972 20.9688 15.25 20.9688Z" fill="#272324"/>
<path d="M15.25 40.0313C15.8155 40.0313 16.3684 39.8636 16.8386 39.5494C17.3088 39.2352 17.6753 38.7886 17.8917 38.2661C18.1081 37.7436 18.1648 37.1687 18.0544 36.614C17.9441 36.0594 17.6718 35.5499 17.2719 35.15C16.872 34.7501 16.3625 34.4778 15.8078 34.3674C15.2532 34.2571 14.6782 34.3137 14.1558 34.5302C13.6333 34.7466 13.1867 35.1131 12.8725 35.5833C12.5583 36.0535 12.3906 36.6063 12.3906 37.1719C12.3906 37.9302 12.6919 38.6575 13.2281 39.1938C13.7644 39.73 14.4916 40.0313 15.25 40.0313ZM15.25 36.2188C15.4385 36.2188 15.6228 36.2747 15.7795 36.3794C15.9363 36.4841 16.0584 36.633 16.1306 36.8071C16.2027 36.9813 16.2216 37.1729 16.1848 37.3578C16.148 37.5427 16.0573 37.7125 15.924 37.8458C15.7907 37.9791 15.6208 38.0699 15.4359 38.1067C15.2511 38.1435 15.0594 38.1246 14.8853 38.0524C14.7111 37.9803 14.5622 37.8581 14.4575 37.7014C14.3528 37.5447 14.2969 37.3604 14.2969 37.1719C14.2969 36.9191 14.3973 36.6767 14.576 36.4979C14.7548 36.3192 14.9972 36.2188 15.25 36.2188Z" fill="#272324"/>
<path d="M15.25 47.6563C15.8155 47.6563 16.3684 47.4886 16.8386 47.1744C17.3088 46.8602 17.6753 46.4136 17.8917 45.8911C18.1081 45.3686 18.1648 44.7937 18.0544 44.239C17.9441 43.6844 17.6718 43.1749 17.2719 42.775C16.872 42.3751 16.3625 42.1028 15.8078 41.9924C15.2532 41.8821 14.6782 41.9387 14.1558 42.1552C13.6333 42.3716 13.1867 42.7381 12.8725 43.2083C12.5583 43.6785 12.3906 44.2313 12.3906 44.7969C12.3906 45.5552 12.6919 46.2825 13.2281 46.8188C13.7644 47.355 14.4916 47.6563 15.25 47.6563ZM15.25 43.8438C15.4385 43.8438 15.6228 43.8997 15.7795 44.0044C15.9363 44.1091 16.0584 44.258 16.1306 44.4321C16.2027 44.6063 16.2216 44.7979 16.1848 44.9828C16.148 45.1677 16.0573 45.3375 15.924 45.4708C15.7907 45.6041 15.6208 45.6949 15.4359 45.7317C15.2511 45.7685 15.0594 45.7496 14.8853 45.6774C14.7111 45.6053 14.5622 45.4831 14.4575 45.3264C14.3528 45.1697 14.2969 44.9854 14.2969 44.7969C14.2969 44.5441 14.3973 44.3017 14.576 44.1229C14.7548 43.9442 14.9972 43.8438 15.25 43.8438Z" fill="#272324"/>
<path d="M15.25 55.2813C15.8155 55.2813 16.3684 55.1136 16.8386 54.7994C17.3088 54.4852 17.6753 54.0386 17.8917 53.5161C18.1081 52.9936 18.1648 52.4187 18.0544 51.864C17.9441 51.3094 17.6718 50.7999 17.2719 50.4C16.872 50.0001 16.3625 49.7278 15.8078 49.6174C15.2532 49.5071 14.6782 49.5637 14.1558 49.7802C13.6333 49.9966 13.1867 50.3631 12.8725 50.8333C12.5583 51.3035 12.3906 51.8563 12.3906 52.4219C12.3906 53.1802 12.6919 53.9075 13.2281 54.4438C13.7644 54.98 14.4916 55.2813 15.25 55.2813ZM15.25 51.4688C15.4385 51.4688 15.6228 51.5247 15.7795 51.6294C15.9363 51.7341 16.0584 51.883 16.1306 52.0571C16.2027 52.2313 16.2216 52.4229 16.1848 52.6078C16.148 52.7927 16.0573 52.9625 15.924 53.0958C15.7907 53.2291 15.6208 53.3199 15.4359 53.3567C15.2511 53.3935 15.0594 53.3746 14.8853 53.3024C14.7111 53.2303 14.5622 53.1081 14.4575 52.9514C14.3528 52.7947 14.2969 52.6104 14.2969 52.4219C14.2969 52.1691 14.3973 51.9267 14.576 51.7479C14.7548 51.5692 14.9972 51.4688 15.25 51.4688Z" fill="#272324"/>
<path d="M15.25 32.4063C15.8155 32.4063 16.3684 32.2386 16.8386 31.9244C17.3088 31.6102 17.6753 31.1636 17.8917 30.6411C18.1081 30.1186 18.1648 29.5437 18.0544 28.989C17.9441 28.4344 17.6718 27.9249 17.2719 27.525C16.872 27.1251 16.3625 26.8528 15.8078 26.7424C15.2532 26.6321 14.6782 26.6887 14.1558 26.9052C13.6333 27.1216 13.1867 27.4881 12.8725 27.9583C12.5583 28.4285 12.3906 28.9813 12.3906 29.5469C12.3906 30.3052 12.6919 31.0325 13.2281 31.5688C13.7644 32.105 14.4916 32.4063 15.25 32.4063ZM15.25 28.5938C15.4385 28.5938 15.6228 28.6497 15.7795 28.7544C15.9363 28.8591 16.0584 29.008 16.1306 29.1821C16.2027 29.3563 16.2216 29.5479 16.1848 29.7328C16.148 29.9177 16.0573 30.0875 15.924 30.2208C15.7907 30.3541 15.6208 30.4449 15.4359 30.4817C15.2511 30.5185 15.0594 30.4996 14.8853 30.4274C14.7111 30.3553 14.5622 30.2331 14.4575 30.0764C14.3528 29.9197 14.2969 29.7354 14.2969 29.5469C14.2969 29.2941 14.3973 29.0517 14.576 28.8729C14.7548 28.6942 14.9972 28.5938 15.25 28.5938Z" fill="#272324"/>
<path d="M45.75 49.5625C46.3155 49.5625 46.8684 49.3948 47.3386 49.0806C47.8088 48.7664 48.1753 48.3198 48.3917 47.7974C48.6081 47.2749 48.6648 46.7 48.5544 46.1453C48.4441 45.5906 48.1718 45.0811 47.7719 44.6812C47.372 44.2814 46.8625 44.009 46.3078 43.8987C45.7532 43.7884 45.1782 43.845 44.6558 44.0614C44.1333 44.2778 43.6867 44.6443 43.3725 45.1145C43.0583 45.5848 42.8906 46.1376 42.8906 46.7031C42.8906 47.4615 43.1919 48.1888 43.7281 48.725C44.2644 49.2612 44.9916 49.5625 45.75 49.5625ZM45.75 45.75C45.9385 45.75 46.1228 45.8059 46.2795 45.9106C46.4363 46.0154 46.5584 46.1642 46.6306 46.3384C46.7027 46.5125 46.7216 46.7042 46.6848 46.8891C46.648 47.074 46.5573 47.2438 46.424 47.3771C46.2907 47.5104 46.1208 47.6012 45.9359 47.6379C45.7511 47.6747 45.5594 47.6558 45.3853 47.5837C45.2111 47.5116 45.0622 47.3894 44.9575 47.2327C44.8528 47.0759 44.7969 46.8916 44.7969 46.7031C44.7969 46.4503 44.8973 46.2079 45.076 46.0292C45.2548 45.8504 45.4972 45.75 45.75 45.75Z" fill="#272324"/>
<path d="M45.75 41.9375C46.3155 41.9375 46.8684 41.7698 47.3386 41.4556C47.8088 41.1414 48.1753 40.6948 48.3917 40.1724C48.6081 39.6499 48.6648 39.075 48.5544 38.5203C48.4441 37.9656 48.1718 37.4561 47.7719 37.0562C47.372 36.6564 46.8625 36.384 46.3078 36.2737C45.7532 36.1634 45.1782 36.22 44.6558 36.4364C44.1333 36.6528 43.6867 37.0193 43.3725 37.4895C43.0583 37.9598 42.8906 38.5126 42.8906 39.0781C42.8906 39.8365 43.1919 40.5638 43.7281 41.1C44.2644 41.6362 44.9916 41.9375 45.75 41.9375ZM45.75 38.125C45.9385 38.125 46.1228 38.1809 46.2795 38.2856C46.4363 38.3904 46.5584 38.5392 46.6306 38.7134C46.7027 38.8875 46.7216 39.0792 46.6848 39.2641C46.648 39.449 46.5573 39.6188 46.424 39.7521C46.2907 39.8854 46.1208 39.9762 45.9359 40.0129C45.7511 40.0497 45.5594 40.0308 45.3853 39.9587C45.2111 39.8866 45.0622 39.7644 44.9575 39.6077C44.8528 39.4509 44.7969 39.2666 44.7969 39.0781C44.7969 38.8253 44.8973 38.5829 45.076 38.4042C45.2548 38.2254 45.4972 38.125 45.75 38.125Z" fill="#272324"/>
<path d="M45.75 26.6875C46.3155 26.6875 46.8684 26.5198 47.3386 26.2056C47.8088 25.8914 48.1753 25.4448 48.3917 24.9224C48.6081 24.3999 48.6648 23.825 48.5544 23.2703C48.4441 22.7156 48.1718 22.2061 47.7719 21.8062C47.372 21.4064 46.8625 21.134 46.3078 21.0237C45.7532 20.9134 45.1782 20.97 44.6558 21.1864C44.1333 21.4028 43.6867 21.7693 43.3725 22.2395C43.0583 22.7098 42.8906 23.2626 42.8906 23.8281C42.8906 24.5865 43.1919 25.3138 43.7281 25.85C44.2644 26.3862 44.9916 26.6875 45.75 26.6875ZM45.75 22.875C45.9385 22.875 46.1228 22.9309 46.2795 23.0356C46.4363 23.1404 46.5584 23.2892 46.6306 23.4634C46.7027 23.6375 46.7216 23.8292 46.6848 24.0141C46.648 24.199 46.5573 24.3688 46.424 24.5021C46.2907 24.6354 46.1208 24.7262 45.9359 24.7629C45.7511 24.7997 45.5594 24.7808 45.3853 24.7087C45.2111 24.6366 45.0622 24.5144 44.9575 24.3577C44.8528 24.2009 44.7969 24.0166 44.7969 23.8281C44.7969 23.5753 44.8973 23.3329 45.076 23.1542C45.2548 22.9754 45.4972 22.875 45.75 22.875Z" fill="#272324"/>
<path d="M45.75 19.0625C46.3155 19.0625 46.8684 18.8948 47.3386 18.5806C47.8088 18.2664 48.1753 17.8198 48.3917 17.2974C48.6081 16.7749 48.6648 16.2 48.5544 15.6453C48.4441 15.0906 48.1718 14.5811 47.7719 14.1812C47.372 13.7814 46.8625 13.509 46.3078 13.3987C45.7532 13.2884 45.1782 13.345 44.6558 13.5614C44.1333 13.7778 43.6867 14.1443 43.3725 14.6145C43.0583 15.0848 42.8906 15.6376 42.8906 16.2031C42.8906 16.9615 43.1919 17.6888 43.7281 18.225C44.2644 18.7612 44.9916 19.0625 45.75 19.0625ZM45.75 15.25C45.9385 15.25 46.1228 15.3059 46.2795 15.4106C46.4363 15.5154 46.5584 15.6642 46.6306 15.8384C46.7027 16.0125 46.7216 16.2042 46.6848 16.3891C46.648 16.574 46.5573 16.7438 46.424 16.8771C46.2907 17.0104 46.1208 17.1012 45.9359 17.1379C45.7511 17.1747 45.5594 17.1558 45.3853 17.0837C45.2111 17.0116 45.0622 16.8894 44.9575 16.7327C44.8528 16.5759 44.7969 16.3916 44.7969 16.2031C44.7969 15.9503 44.8973 15.7079 45.076 15.5292C45.2548 15.3504 45.4972 15.25 45.75 15.25Z" fill="#272324"/>
<path d="M45.75 11.4375C46.3155 11.4375 46.8684 11.2698 47.3386 10.9556C47.8088 10.6414 48.1753 10.1948 48.3917 9.67236C48.6081 9.14988 48.6648 8.57495 48.5544 8.02029C48.4441 7.46563 48.1718 6.95613 47.7719 6.55624C47.372 6.15635 46.8625 5.88402 46.3078 5.77369C45.7532 5.66336 45.1782 5.71999 44.6558 5.93641C44.1333 6.15283 43.6867 6.51932 43.3725 6.98954C43.0583 7.45976 42.8906 8.0126 42.8906 8.57813C42.8906 9.33648 43.1919 10.0638 43.7281 10.6C44.2644 11.1362 44.9916 11.4375 45.75 11.4375ZM45.75 7.625C45.9385 7.625 46.1228 7.6809 46.2795 7.78563C46.4363 7.89036 46.5584 8.03922 46.6306 8.21338C46.7027 8.38754 46.7216 8.57918 46.6848 8.76407C46.648 8.94896 46.5573 9.11879 46.424 9.25209C46.2907 9.38538 46.1208 9.47616 45.9359 9.51294C45.7511 9.54971 45.5594 9.53084 45.3853 9.4587C45.2111 9.38656 45.0622 9.26439 44.9575 9.10765C44.8528 8.95091 44.7969 8.76664 44.7969 8.57813C44.7969 8.32534 44.8973 8.08291 45.076 7.90417C45.2548 7.72542 45.4972 7.625 45.75 7.625Z" fill="#272324"/>
<path d="M45.75 34.3125C46.3155 34.3125 46.8684 34.1448 47.3386 33.8306C47.8088 33.5164 48.1753 33.0698 48.3917 32.5474C48.6081 32.0249 48.6648 31.45 48.5544 30.8953C48.4441 30.3406 48.1718 29.8311 47.7719 29.4312C47.372 29.0314 46.8625 28.759 46.3078 28.6487C45.7532 28.5384 45.1782 28.595 44.6558 28.8114C44.1333 29.0278 43.6867 29.3943 43.3725 29.8645C43.0583 30.3348 42.8906 30.8876 42.8906 31.4531C42.8906 32.2115 43.1919 32.9388 43.7281 33.475C44.2644 34.0112 44.9916 34.3125 45.75 34.3125ZM45.75 30.5C45.9385 30.5 46.1228 30.5559 46.2795 30.6606C46.4363 30.7654 46.5584 30.9142 46.6306 31.0884C46.7027 31.2625 46.7216 31.4542 46.6848 31.6391C46.648 31.824 46.5573 31.9938 46.424 32.1271C46.2907 32.2604 46.1208 32.3512 45.9359 32.3879C45.7511 32.4247 45.5594 32.4058 45.3853 32.3337C45.2111 32.2616 45.0622 32.1394 44.9575 31.9827C44.8528 31.8259 44.7969 31.6416 44.7969 31.4531C44.7969 31.2003 44.8973 30.9579 45.076 30.7792C45.2548 30.6004 45.4972 30.5 45.75 30.5Z" fill="#272324"/>
<path d="M30.5 49.5625C31.0655 49.5625 31.6184 49.3948 32.0886 49.0806C32.5588 48.7664 32.9253 48.3198 33.1417 47.7974C33.3581 47.2749 33.4148 46.7 33.3044 46.1453C33.1941 45.5906 32.9218 45.0811 32.5219 44.6812C32.122 44.2814 31.6125 44.009 31.0578 43.8987C30.5032 43.7884 29.9282 43.845 29.4058 44.0614C28.8833 44.2778 28.4367 44.6443 28.1225 45.1145C27.8083 45.5848 27.6406 46.1376 27.6406 46.7031C27.6406 47.4615 27.9419 48.1888 28.4781 48.725C29.0144 49.2612 29.7416 49.5625 30.5 49.5625ZM30.5 45.75C30.6885 45.75 30.8728 45.8059 31.0295 45.9106C31.1863 46.0154 31.3084 46.1642 31.3806 46.3384C31.4527 46.5125 31.4716 46.7042 31.4348 46.8891C31.398 47.074 31.3073 47.2438 31.174 47.3771C31.0407 47.5104 30.8708 47.6012 30.6859 47.6379C30.5011 47.6747 30.3094 47.6558 30.1353 47.5837C29.9611 47.5116 29.8122 47.3894 29.7075 47.2327C29.6028 47.0759 29.5469 46.8916 29.5469 46.7031C29.5469 46.4503 29.6473 46.2079 29.826 46.0292C30.0048 45.8504 30.2472 45.75 30.5 45.75Z" fill="#272324"/>
<path d="M30.5 41.9375C31.0655 41.9375 31.6184 41.7698 32.0886 41.4556C32.5588 41.1414 32.9253 40.6948 33.1417 40.1724C33.3581 39.6499 33.4148 39.075 33.3044 38.5203C33.1941 37.9656 32.9218 37.4561 32.5219 37.0562C32.122 36.6564 31.6125 36.384 31.0578 36.2737C30.5032 36.1634 29.9282 36.22 29.4058 36.4364C28.8833 36.6528 28.4367 37.0193 28.1225 37.4895C27.8083 37.9598 27.6406 38.5126 27.6406 39.0781C27.6406 39.8365 27.9419 40.5638 28.4781 41.1C29.0144 41.6362 29.7416 41.9375 30.5 41.9375ZM30.5 38.125C30.6885 38.125 30.8728 38.1809 31.0295 38.2856C31.1863 38.3904 31.3084 38.5392 31.3806 38.7134C31.4527 38.8875 31.4716 39.0792 31.4348 39.2641C31.398 39.449 31.3073 39.6188 31.174 39.7521C31.0407 39.8854 30.8708 39.9762 30.6859 40.0129C30.5011 40.0497 30.3094 40.0308 30.1353 39.9587C29.9611 39.8866 29.8122 39.7644 29.7075 39.6077C29.6028 39.4509 29.5469 39.2666 29.5469 39.0781C29.5469 38.8253 29.6473 38.5829 29.826 38.4042C30.0048 38.2254 30.2472 38.125 30.5 38.125Z" fill="#272324"/>
<path d="M30.5 26.6875C31.0655 26.6875 31.6184 26.5198 32.0886 26.2056C32.5588 25.8914 32.9253 25.4448 33.1417 24.9224C33.3581 24.3999 33.4148 23.825 33.3044 23.2703C33.1941 22.7156 32.9218 22.2061 32.5219 21.8062C32.122 21.4064 31.6125 21.134 31.0578 21.0237C30.5032 20.9134 29.9282 20.97 29.4058 21.1864C28.8833 21.4028 28.4367 21.7693 28.1225 22.2395C27.8083 22.7098 27.6406 23.2626 27.6406 23.8281C27.6406 24.5865 27.9419 25.3138 28.4781 25.85C29.0144 26.3862 29.7416 26.6875 30.5 26.6875ZM30.5 22.875C30.6885 22.875 30.8728 22.9309 31.0295 23.0356C31.1863 23.1404 31.3084 23.2892 31.3806 23.4634C31.4527 23.6375 31.4716 23.8292 31.4348 24.0141C31.398 24.199 31.3073 24.3688 31.174 24.5021C31.0407 24.6354 30.8708 24.7262 30.6859 24.7629C30.5011 24.7997 30.3094 24.7808 30.1353 24.7087C29.9611 24.6366 29.8122 24.5144 29.7075 24.3577C29.6028 24.2009 29.5469 24.0166 29.5469 23.8281C29.5469 23.5753 29.6473 23.3329 29.826 23.1542C30.0048 22.9754 30.2472 22.875 30.5 22.875Z" fill="#272324"/>
<path d="M30.5 19.0625C31.0655 19.0625 31.6184 18.8948 32.0886 18.5806C32.5588 18.2664 32.9253 17.8198 33.1417 17.2974C33.3581 16.7749 33.4148 16.2 33.3044 15.6453C33.1941 15.0906 32.9218 14.5811 32.5219 14.1812C32.122 13.7814 31.6125 13.509 31.0578 13.3987C30.5032 13.2884 29.9282 13.345 29.4058 13.5614C28.8833 13.7778 28.4367 14.1443 28.1225 14.6145C27.8083 15.0848 27.6406 15.6376 27.6406 16.2031C27.6406 16.9615 27.9419 17.6888 28.4781 18.225C29.0144 18.7612 29.7416 19.0625 30.5 19.0625ZM30.5 15.25C30.6885 15.25 30.8728 15.3059 31.0295 15.4106C31.1863 15.5154 31.3084 15.6642 31.3806 15.8384C31.4527 16.0125 31.4716 16.2042 31.4348 16.3891C31.398 16.574 31.3073 16.7438 31.174 16.8771C31.0407 17.0104 30.8708 17.1012 30.6859 17.1379C30.5011 17.1747 30.3094 17.1558 30.1353 17.0837C29.9611 17.0116 29.8122 16.8894 29.7075 16.7327C29.6028 16.5759 29.5469 16.3916 29.5469 16.2031C29.5469 15.9503 29.6473 15.7079 29.826 15.5292C30.0048 15.3504 30.2472 15.25 30.5 15.25Z" fill="#272324"/>
<path d="M30.5 11.4375C31.0655 11.4375 31.6184 11.2698 32.0886 10.9556C32.5588 10.6414 32.9253 10.1948 33.1417 9.67236C33.3581 9.14988 33.4148 8.57495 33.3044 8.02029C33.1941 7.46563 32.9218 6.95613 32.5219 6.55624C32.122 6.15635 31.6125 5.88402 31.0578 5.77369C30.5032 5.66336 29.9282 5.71999 29.4058 5.93641C28.8833 6.15283 28.4367 6.51932 28.1225 6.98954C27.8083 7.45976 27.6406 8.0126 27.6406 8.57813C27.6406 9.33648 27.9419 10.0638 28.4781 10.6C29.0144 11.1362 29.7416 11.4375 30.5 11.4375ZM30.5 7.625C30.6885 7.625 30.8728 7.6809 31.0295 7.78563C31.1863 7.89036 31.3084 8.03922 31.3806 8.21338C31.4527 8.38754 31.4716 8.57918 31.4348 8.76407C31.398 8.94896 31.3073 9.11879 31.174 9.25209C31.0407 9.38538 30.8708 9.47616 30.6859 9.51294C30.5011 9.54971 30.3094 9.53084 30.1353 9.4587C29.9611 9.38656 29.8122 9.26439 29.7075 9.10765C29.6028 8.95091 29.5469 8.76664 29.5469 8.57813C29.5469 8.32534 29.6473 8.08291 29.826 7.90417C30.0048 7.72542 30.2472 7.625 30.5 7.625Z" fill="#272324"/>
<path d="M30.5 34.3125C31.0655 34.3125 31.6184 34.1448 32.0886 33.8306C32.5588 33.5164 32.9253 33.0698 33.1417 32.5474C33.3581 32.0249 33.4148 31.45 33.3044 30.8953C33.1941 30.3406 32.9218 29.8311 32.5219 29.4312C32.122 29.0314 31.6125 28.759 31.0578 28.6487C30.5032 28.5384 29.9282 28.595 29.4058 28.8114C28.8833 29.0278 28.4367 29.3943 28.1225 29.8645C27.8083 30.3348 27.6406 30.8876 27.6406 31.4531C27.6406 32.2115 27.9419 32.9388 28.4781 33.475C29.0144 34.0112 29.7416 34.3125 30.5 34.3125ZM30.5 30.5C30.6885 30.5 30.8728 30.5559 31.0295 30.6606C31.1863 30.7654 31.3084 30.9142 31.3806 31.0884C31.4527 31.2625 31.4716 31.4542 31.4348 31.6391C31.398 31.824 31.3073 31.9938 31.174 32.1271C31.0407 32.2604 30.8708 32.3512 30.6859 32.3879C30.5011 32.4247 30.3094 32.4058 30.1353 32.3337C29.9611 32.2616 29.8122 32.1394 29.7075 31.9827C29.6028 31.8259 29.5469 31.6416 29.5469 31.4531C29.5469 31.2003 29.6473 30.9579 29.826 30.7792C30.0048 30.6004 30.2472 30.5 30.5 30.5Z" fill="#272324"/>
<path d="M21.9219 5.71875H23.8281V7.625H21.9219V5.71875Z" fill="#272324"/>
<path d="M37.1719 53.375H39.0781V55.2812H37.1719V53.375Z" fill="#272324"/>
<path d="M3.8125 29.5469H8.57812V31.4531H3.8125V29.5469Z" fill="#272324"/>
<path d="M4.19336 25.5437L5.33711 24.0187L9.14961 26.8781L8.00586 28.4031L4.19336 25.5437Z" fill="#272324"/>
<path d="M4.18945 35.4611L8.00195 32.6017L9.1457 34.1267L5.3332 36.9861L4.18945 35.4611Z" fill="#272324"/>
<path d="M52.4219 29.5469H57.1875V31.4531H52.4219V29.5469Z" fill="#272324"/>
<path d="M51.8516 26.8895L55.6641 24.0302L56.8078 25.5552L52.9953 28.4145L51.8516 26.8895Z" fill="#272324"/>
<path d="M51.8496 34.1218L52.9934 32.5968L56.8059 35.4562L55.6621 36.9812L51.8496 34.1218Z" fill="#272324"/>
</svg>
