<svg width="94" height="95" viewBox="0 0 94 95" fill="none" xmlns="http://www.w3.org/2000/svg">
<g opacity="0.7">
<path d="M33.9017 36.6466L27.6052 51.3287H40.2098L33.9017 36.6466ZM33.9017 26.1508L51.9193 67.6299H46.8118L41.6687 55.4035H26.201L21.0565 67.6299H15.9592L33.9021 26.1508H33.9017Z" fill="#C6C2C2"/>
<path d="M54.5232 66.0476V60.6512C55.1415 61.1998 55.8806 61.6836 56.7299 62.1216C57.5895 62.5589 58.4946 62.9307 59.4359 63.2291C60.3874 63.5264 61.3382 63.7589 62.2894 63.9269C63.2505 64.0846 64.1361 64.1679 64.9401 64.1679C67.7376 64.1679 69.8256 63.6469 71.2108 62.5961C72.5865 61.5542 73.2791 60.0463 73.2791 58.0935C73.2791 57.0321 73.0487 56.1206 72.5865 55.3388C72.125 54.557 71.4877 53.8407 70.6849 53.1982C69.8711 52.5472 68.9111 51.933 67.8028 51.3383C66.686 50.7521 65.4942 50.1284 64.2105 49.477C62.8619 48.7881 61.5975 48.0818 60.4237 47.3744C59.2527 46.6673 58.2363 45.8859 57.3676 45.0293C56.4995 44.1734 55.8253 43.2063 55.3268 42.1264C54.8279 41.0476 54.5789 39.7814 54.5789 38.3308C54.5789 36.5447 54.9671 34.9995 55.7425 33.6786C56.5179 32.3567 57.543 31.2783 58.7989 30.4221C60.064 29.5665 61.5042 28.9336 63.1205 28.5143C64.7276 28.0954 66.3813 27.8824 68.0529 27.8824C71.8749 27.8824 74.6654 28.3471 76.4187 29.2777V34.4324C74.1289 32.8316 71.1837 32.0317 67.6002 32.0317C66.6025 32.0317 65.6147 32.1342 64.6174 32.3383C63.6295 32.5527 62.7425 32.8972 61.9671 33.3622C61.1917 33.8363 60.5629 34.4509 60.0742 35.1955C59.5853 35.9393 59.3446 36.8424 59.3446 37.9215C59.3446 38.9166 59.5289 39.7814 59.8977 40.5072C60.268 41.2326 60.8133 41.8936 61.5331 42.4982C62.2535 43.0943 63.1395 43.6805 64.1742 44.2387C65.2082 44.8068 66.4088 45.4206 67.7566 46.0904C69.1513 46.7882 70.4622 47.5137 71.709 48.2763C72.9564 49.0397 74.0464 49.886 74.9779 50.8074C75.921 51.7381 76.6594 52.7609 77.2135 53.8872C77.7684 55.0127 78.0358 56.3063 78.0358 57.7579C78.0358 59.6833 77.6669 61.321 76.919 62.6518C76.17 63.9921 75.1544 65.0805 73.89 65.9084C72.6144 66.7458 71.1464 67.3501 69.4931 67.7225C67.8313 68.0943 66.0864 68.2811 64.239 68.2811C63.6295 68.2811 62.8725 68.2346 61.9674 68.1322C61.0723 68.0301 60.1486 67.8905 59.2065 67.6945C58.2733 67.5092 57.3877 67.2668 56.5471 66.9882C55.7062 66.7086 55.033 66.3925 54.5242 66.048L54.5232 66.0476Z" fill="#C6C2C2"/>
<path fill-rule="evenodd" clip-rule="evenodd" d="M2.24536 93.0521L7.19715 91.885C9.88619 91.2294 14.7076 90.3849 17.5372 89.9922C20.0093 89.6488 26.4326 88.8351 28.684 88.7837C29.4411 88.767 30.7791 88.7203 31.5594 88.6097C32.1347 88.5278 32.413 88.5544 33.02 88.5452C33.7243 88.5345 33.7933 88.4098 34.5483 88.4091C36.3136 88.4045 38.8138 88.3747 40.4435 88.206C41.6607 88.0788 51.4579 88.2588 52.7353 88.4148C54.6109 88.6444 56.8183 88.3931 58.6833 88.6682C60.4261 88.9254 62.536 88.8783 64.4052 89.142C67.8936 89.6335 71.8213 89.9291 75.5098 90.5681C78.7234 91.1252 82.6947 91.8489 85.9291 92.6714C86.744 92.8788 87.5246 93.0655 88.3768 93.3175C88.8151 93.4469 89.2082 93.5617 89.5799 93.6623C90.1414 93.8123 90.3264 93.9427 90.9443 94.016C90.9454 94.0139 91.6035 93.7587 90.1069 93.387C86.9409 92.5988 84.9304 91.9371 81.3462 91.1911C63.7394 87.5238 40.7127 86.7516 23.0055 88.856C19.1761 89.311 12.9036 89.9929 9.33027 90.9246C8.53093 91.133 7.64527 91.34 6.85226 91.492C5.97224 91.66 2.5515 92.3266 2.24536 93.0528V93.0521Z" fill="#F0F0F0"/>
<path fill-rule="evenodd" clip-rule="evenodd" d="M85.2493 32.901C85.2106 33.3698 85.1739 33.8327 85.1391 34.2898C85.1743 33.8327 85.2106 33.3695 85.2493 32.901ZM7.84093 86.7671L7.85114 86.7954C7.43579 86.8748 7.03418 86.9506 7.01621 86.9496C6.67379 86.929 7.01445 87.0531 6.76679 86.8762L6.77032 86.4336C6.78969 86.4102 6.81294 86.335 6.81787 86.3535L8.72623 77.2642C9.27651 74.1264 10.5042 65.6818 10.6138 62.4418C10.6346 61.8061 10.7142 60.5043 10.8153 59.808L11.2655 51.891C11.2987 48.0083 11.5301 42.1702 11.2518 38.3711C11.1775 37.3575 11.2014 34.3334 11.0496 33.1306C10.9316 32.1893 10.9076 29.492 10.698 27.8979C10.1611 23.8156 9.9744 19.9222 9.17364 15.5942C8.61878 12.5971 8.31088 9.39121 6.91335 6.67049L9.55411 6.85549L17.8897 8.47261C20.919 8.98223 24.1185 9.4472 27.1528 9.75695C33.7811 10.4349 40.2576 10.8531 47.109 10.9339C53.1028 11.0051 56.8787 10.7326 62.4798 10.509C64.1017 10.4438 65.7092 10.2021 67.2293 10.1301C68.9228 10.05 70.4905 9.81719 72.0152 9.63716C73.5307 9.45854 75.1182 9.31005 76.5703 9.04957C78.0365 8.78767 79.5796 8.57928 81.0497 8.26847C83.6468 7.71845 85.0277 7.97574 87.244 7.52672C87.2669 8.02004 86.9569 9.06835 86.8325 9.67083C85.3152 17.0728 84.6015 21.0041 83.7158 28.9129L83.217 35.5019C83.18 36.1207 83.087 36.0881 83.0609 36.7618L82.6656 50.2768C82.6498 51.3499 82.7995 51.8425 82.7844 52.9489C82.7572 54.8942 82.7896 56.5571 82.8738 58.4417L84.1798 73.6125C84.4641 75.9604 85.1746 80.8862 85.676 83.1533C85.8609 83.9903 86.3908 87.0885 86.6465 87.6665C86.1646 87.5113 85.0355 87.4174 84.7262 87.305L83.0158 86.9024C78.1507 85.706 71.8563 84.898 66.9623 84.2381L59.6068 83.5654C58.5626 83.5488 58.1202 83.4049 57.0911 83.4038L51.9431 83.1983C50.0862 82.9718 43.399 82.9718 41.4385 83.1175C40.6272 83.1774 39.6221 83.0934 38.7872 83.0958L21.5373 84.4351C17.8132 84.9199 13.8267 85.5096 10.1844 86.2844C9.76056 86.3744 9.25396 86.5112 8.77203 86.6168L8.76498 86.6179L8.76393 86.6186L8.75618 86.6196L8.25733 86.7164L8.24465 86.7185C8.10303 86.7415 7.9674 86.7575 7.84163 86.7656L7.84093 86.7671ZM10.0202 88.555C10.2464 88.5022 10.4451 88.4551 10.5969 88.4232C15.5434 87.3748 21.0064 86.5969 26.7293 86.0799C21.0067 86.5973 15.5438 87.3752 10.5969 88.4242C10.4451 88.4558 10.2464 88.5029 10.0202 88.555ZM71.5058 87.1048C73.8538 87.439 76.1233 87.8186 78.2958 88.2438L78.622 88.3076L78.2958 88.2442C76.1236 87.8193 73.8541 87.4397 71.5058 87.1048ZM86.7191 87.6931H86.7177L87.4275 87.4259L86.7191 87.6931ZM24.592 8.64272L10.1678 6.16122L24.592 8.64236V8.64272ZM5.93926 80.3354C6.02416 79.9183 6.10625 79.5015 6.18446 79.0844C6.94928 74.9989 7.57847 70.7458 8.06745 66.3941C7.57847 70.7461 6.94963 74.9989 6.18446 79.0844C6.1066 79.5008 6.02487 79.9183 5.93926 80.3354ZM9.33323 42.9949C9.33111 42.2461 9.32477 41.4979 9.31526 40.7509C9.32477 41.4983 9.33111 42.2464 9.33323 42.9949ZM91.8893 2.86035C91.9157 2.79408 91.939 2.72497 91.9573 2.65303C91.9393 2.72568 91.9157 2.79443 91.8893 2.86035ZM91.9753 2.57967C91.9922 2.5056 92.0034 2.42869 92.0123 2.34789H92.013C92.0042 2.42869 91.9925 2.50595 91.9753 2.57967ZM90.7003 2.8079C90.6422 2.82952 90.5805 2.8522 90.514 2.87488C90.5809 2.8522 90.6422 2.82987 90.7003 2.8079ZM90.4636 2.89225C90.2564 2.96171 90.0081 3.03401 89.703 3.1102C88.0367 3.51847 86.3372 3.89201 84.6106 4.23187C86.3372 3.89165 88.037 3.51776 89.703 3.10949C90.0074 3.0333 90.2568 2.96135 90.4636 2.89225ZM84.6106 4.23258C84.1794 4.31728 83.7451 4.40021 83.3107 4.48137C83.7454 4.40021 84.1798 4.31728 84.6106 4.23258ZM79.3601 5.15615C78.9173 5.22525 78.473 5.29223 78.0277 5.3578C78.473 5.29259 78.9173 5.22525 79.3601 5.15615ZM12.8741 3.98557L5.17655 2.23696C5.11385 2.22066 5.03493 2.19656 4.94299 2.16679C5.03493 2.19656 5.11385 2.21995 5.17655 2.23661L12.8741 3.98557ZM2.24585 93.0516C2.55129 92.3254 5.97203 91.6588 6.85205 91.4915C7.64541 91.3399 8.53141 91.1311 9.33006 90.9234C12.9037 89.991 19.1762 89.3102 23.0053 88.8545C40.7128 86.7504 63.7388 87.5223 81.346 91.1899C84.9302 91.9363 86.941 92.598 90.1067 93.3858C91.6032 93.7576 90.9452 94.0134 90.9445 94.0145C91.2777 94.1846 92.8246 94.4125 93.3161 94.4274C93.2773 93.9071 93.1392 93.7002 92.998 93.2083C89.0171 79.4473 87.7316 62.2661 87.857 47.9299C87.8767 45.7702 87.9014 43.6116 87.9105 41.4526L88.2449 35.1209C88.2713 34.422 88.3815 34.4199 88.4051 33.7224C88.4287 33.0172 88.4439 32.6483 88.5172 32.1326C88.6609 31.0999 88.6172 30.1501 88.7592 29.1156C89.0202 27.2377 89.2256 25.0655 89.4603 23.1596C89.9471 19.2311 90.6277 15.5262 91.3764 11.9167C92.1761 8.05477 93.4077 4.51468 93.9967 1.13762H93.996C94.0023 0.53337 94.0238 1.05434 93.8597 0.831419L92.4632 1.2404H92.4625C91.6748 1.41582 90.825 1.70891 90.05 1.89568C87.2095 2.57648 85.1859 3.08504 82.159 3.60104C76.4984 4.56536 73.5677 4.83187 68.0738 5.48786L60.6965 6.01733C60.161 6.05667 59.566 5.98402 59.0259 6.00883L55.9476 6.11763C55.2321 6.11196 55.0943 6.20268 54.5469 6.24379C54.0438 6.2803 53.3959 6.24096 52.8788 6.236C49.6655 6.20658 46.4537 6.17752 43.2401 6.14952L37.0976 5.81285C35.1297 5.68916 33.092 5.72496 31.034 5.39607C30.0497 5.23872 29.0418 5.26034 28.0434 5.14693C18.026 4.00967 12.9104 3.09638 3.44505 0.614527C2.55657 0.381333 1.70227 0.214766 0.824007 0C0.867339 0.591846 1.31898 1.97081 1.48455 2.55521C1.71918 3.3877 1.94852 4.335 2.15003 5.10617C2.37444 5.96949 2.5534 6.88136 2.72391 7.74644C3.93649 13.8928 5.17233 21.4571 5.60001 27.9206L5.84696 32.5586C5.95159 35.0539 6.22356 37.8643 6.19714 40.4436C6.17354 42.7752 6.28838 44.7141 6.28134 46.921C6.27781 48.0564 6.1214 48.7716 6.11259 50.0141C6.10519 51.0929 6.08899 52.1731 6.08511 53.2526L4.89049 68.6431C4.73654 69.7099 4.64495 70.677 4.52552 71.6761C3.86639 77.1675 2.68058 83.1593 1.33271 88.426L0 93.7342L2.2455 93.0509L2.24585 93.0516ZM90.3265 7.3683L89.716 10.0132C89.6861 10.1723 89.6579 10.3208 89.629 10.4626C89.6579 10.3215 89.6861 10.1723 89.715 10.0132L90.3265 7.3683ZM10.103 88.9076C9.83665 88.9604 9.57067 89.0122 9.30328 89.0639L10.103 88.9076ZM2.86905 90.478H2.86835C2.86941 90.3848 2.87434 90.2884 2.88279 90.1902C2.87539 90.2884 2.87011 90.3848 2.86905 90.478ZM1.9619 0.95156L1.95662 0.950497L1.94852 0.949788H1.94499V0.950497L1.94147 0.950851H1.94112L1.9376 0.952269L1.93478 0.953332H1.93407L1.93126 0.955104L1.92773 0.956876V0.957585L1.92491 0.959357L1.92174 0.960775V0.961483L1.91998 0.963255L1.91893 0.963964L1.91716 0.965736V0.966091L1.91435 0.967863L1.91188 0.969635V0.970343L1.91012 0.972115L1.908 0.973887L1.90695 0.975659L1.90378 0.976723L1.90272 0.977786L1.90025 0.978495L1.8999 0.979203L1.89638 0.977786L1.89391 0.976723L1.89356 0.974951L1.89215 0.97247L1.89004 0.969635V0.96928L1.88933 0.965736L1.88828 0.960775H1.88687L1.88581 0.955813L1.88546 0.949434L1.8837 0.942346L1.88229 0.934195L1.88123 0.924626L1.87876 0.914703L1.87841 0.903008L1.87665 0.890958H1.87595L1.87559 0.877491V0.876782L1.87313 0.862252L1.87207 0.845949L1.87066 0.82823H1.8696L1.86855 0.809801V0.809092L1.86608 0.789246L1.86503 0.767627V0.766919L1.86221 0.743883V0.743528L1.86045 0.718366L1.85798 0.691786L1.85587 0.66308H1.85516L1.8534 0.63331L1.85093 0.60106L1.96296 0.952269L1.9619 0.95156ZM40.9767 6.71727C41.646 6.74527 42.3118 6.76972 42.9759 6.79099C42.3118 6.77008 41.646 6.74598 40.9767 6.71727ZM45.6124 6.85974C46.267 6.8725 46.918 6.88242 47.5648 6.88951C46.9177 6.88278 46.267 6.87285 45.6124 6.85974Z" fill="#F0F0F0"/>
</g>
</svg>
