<svg width="188" height="60" viewBox="0 0 188 60" fill="none" xmlns="http://www.w3.org/2000/svg">
<g clip-path="url(#clip0_20_459)">
<path d="M81.2762 30.1757H72.4104L69.8823 36.0054L67.3741 35.9953L76.9255 14.5449L86.2933 35.9953L83.7538 35.9901L81.2764 30.1757H81.2762ZM80.3707 28.0947L76.9409 19.8567L73.373 28.0947H80.3707Z" fill="white"/>
<path d="M94.8927 26.8587L101.526 35.9955L98.6545 35.9858L92.4154 27.0291L91.7904 27.0393V35.9955H89.4565V15.5195H92.8342C94.1652 15.5195 95.3738 15.6956 96.4585 16.0474C97.544 16.3991 98.419 16.9923 99.0843 17.8268C99.7498 18.6609 100.083 19.772 100.083 21.1592C100.083 22.1844 99.8778 23.1293 99.4684 23.9934C99.2636 24.3953 99.0127 24.7523 98.7158 25.0639C98.4188 25.3758 98.0711 25.6674 97.672 25.939C97.2724 26.2101 96.8527 26.4162 96.4129 26.5569C95.9721 26.6979 95.4655 26.7981 94.8927 26.8587ZM91.7904 25.0191C92.9987 25.0191 94.043 24.9383 94.9229 24.7777C95.7628 24.657 96.4588 24.305 97.0114 23.722C97.5639 23.139 97.8406 22.2849 97.8406 21.1592C97.8406 20.0936 97.544 19.3095 96.9501 18.8066C96.6428 18.5456 96.3155 18.3339 95.9676 18.1736C95.6193 18.0128 95.2301 17.902 94.8005 17.8421C93.9606 17.7214 92.9573 17.6608 91.7904 17.6608V25.0191Z" fill="white"/>
<path d="M109.204 17.6606V35.9955H106.901V17.6606H101.834V15.5195H114.272V17.6606H109.204Z" fill="white"/>
<path d="M128.615 18.4155L126.741 19.5613C126.291 18.7774 125.789 18.2041 125.236 17.8426C124.683 17.5209 124.038 17.3598 123.301 17.3598C122.626 17.3598 122.021 17.4905 121.49 17.7523C120.957 18.0133 120.537 18.375 120.23 18.8375C119.923 19.2996 119.77 19.813 119.77 20.3756C119.77 21.3202 120.159 22.0492 120.937 22.5615C121.715 23.0742 122.882 23.6771 124.438 24.3709C125.994 25.0644 127.222 25.8337 128.123 26.6781C128.963 27.5429 129.382 28.6684 129.382 30.0553C129.382 31.2013 129.085 32.2718 128.492 33.2672C127.898 34.262 127.11 35.0263 126.127 35.5589C125.144 36.0915 124.038 36.3581 122.81 36.3581C121.704 36.3581 120.711 36.1521 119.831 35.74C118.95 35.3276 118.213 34.7196 117.62 33.9155C117.026 33.1111 116.596 32.1662 116.33 31.0808L118.572 30.478C119.166 32.9706 120.558 34.217 122.749 34.217C123.977 34.217 124.991 33.8202 125.789 33.0262C126.587 32.2315 126.987 31.2416 126.987 30.0553C126.987 29.0302 126.608 28.2464 125.851 27.7034C125.093 27.1607 123.906 26.5171 122.289 25.7733C121.449 25.3912 120.737 25.0298 120.154 24.6877C119.57 24.3465 119.063 23.9642 118.634 23.5419C117.794 22.7779 117.374 21.7427 117.374 20.4357C117.374 19.6919 117.527 18.9884 117.835 18.3248C118.08 17.742 118.49 17.1894 119.063 16.666C119.329 16.4451 119.622 16.2443 119.939 16.0632C120.256 15.8824 120.619 15.7311 121.029 15.6108C121.746 15.3498 122.554 15.2188 123.455 15.2188C125.646 15.2188 127.365 16.2843 128.615 18.4155H128.615Z" fill="white"/>
<path d="M138.842 17.6606V35.9955H136.538V17.6606H131.471V15.5195H143.91V17.6606H138.842Z" fill="white"/>
<path d="M151.464 27.16L144.646 15.5195L147.344 15.5245L152.642 24.6926L158.012 15.5195H160.678L153.767 27.16V35.9955H151.464V27.16Z" fill="white"/>
<path d="M166.145 15.5195V33.8544H171.888V35.9955H163.811V15.5195H166.145Z" fill="white"/>
<path d="M185.985 17.6606H177.57V23.722H185.801V25.8633H177.57V33.8544H185.985V35.9955H175.236V15.5195H185.985V17.6606Z" fill="white"/>
<path d="M21.5412 23.2844L17.5403 32.6135H25.5494L21.5412 23.2844ZM21.5412 16.6152L32.9897 42.9715H29.7444L26.4764 35.2028H16.6481L13.3792 42.9715H10.1404L21.5414 16.6152H21.5412Z" fill="white"/>
<path d="M34.6442 41.9664V38.5374C35.0371 38.886 35.5067 39.1934 36.0464 39.4717C36.5926 39.7496 37.1677 39.9858 37.7658 40.1755C38.3704 40.3644 38.9746 40.5121 39.579 40.6189C40.1896 40.7191 40.7524 40.772 41.2632 40.772C43.0408 40.772 44.3676 40.441 45.2477 39.7733C46.1219 39.1112 46.5619 38.153 46.5619 36.9122C46.5619 36.2378 46.4155 35.6586 46.1219 35.1619C45.8286 34.6651 45.4237 34.21 44.9135 33.8017C44.3964 33.388 43.7864 32.9978 43.0822 32.6199C42.3726 32.2475 41.6153 31.8511 40.7996 31.4372C39.9427 30.9995 39.1393 30.5507 38.3935 30.1012C37.6494 29.6519 37.0036 29.1554 36.4516 28.6111C35.9 28.0673 35.4716 27.4528 35.1548 26.7666C34.8379 26.0811 34.6796 25.2765 34.6796 24.3548C34.6796 23.2199 34.9263 22.2381 35.419 21.3988C35.9117 20.5588 36.5631 19.8736 37.3611 19.3295C38.1649 18.7859 39.08 18.3837 40.107 18.1173C41.1282 17.8512 42.179 17.7158 43.2411 17.7158C45.6697 17.7158 47.4428 18.011 48.5569 18.6024V21.8778C47.1019 20.8606 45.2305 20.3523 42.9535 20.3523C42.3196 20.3523 41.6919 20.4174 41.0582 20.5471C40.4305 20.6834 39.8668 20.9022 39.3742 21.1977C38.8815 21.499 38.4819 21.8895 38.1714 22.3626C37.8607 22.8353 37.7078 23.409 37.7078 24.0947C37.7078 24.7271 37.8249 25.2765 38.0593 25.7377C38.2945 26.1987 38.641 26.6187 39.0984 27.0028C39.5561 27.3816 40.1191 27.7541 40.7766 28.1087C41.4336 28.4697 42.1964 28.8597 43.0529 29.2853C43.9391 29.7287 44.772 30.1897 45.5642 30.6743C46.3569 31.1594 47.0495 31.6971 47.6413 32.2826C48.2406 32.8739 48.7098 33.5238 49.0619 34.2395C49.4145 34.9547 49.5844 35.7766 49.5844 36.699C49.5844 37.9224 49.35 38.963 48.8747 39.8086C48.3988 40.6603 47.7535 41.3518 46.9501 41.8779C46.1395 42.41 45.2068 42.7939 44.1562 43.0306C43.1003 43.2668 41.9916 43.3855 40.8178 43.3855C40.4305 43.3855 39.9494 43.356 39.3744 43.2909C38.8056 43.2261 38.2186 43.1374 37.6201 43.0128C37.0271 42.8951 36.4643 42.741 35.9302 42.564C35.3959 42.3864 34.9681 42.1855 34.6449 41.9666L34.6442 41.9664Z" fill="white"/>
<path fill-rule="evenodd" clip-rule="evenodd" d="M1.42636 59.1249L4.57278 58.3834C6.28142 57.9668 9.34502 57.4301 11.143 57.1806C12.7137 56.9624 16.7952 56.4454 18.2258 56.4127C18.7068 56.4021 19.557 56.3724 20.0528 56.3022C20.4184 56.2501 20.5952 56.267 20.9809 56.2612C21.4284 56.2544 21.4723 56.1752 21.952 56.1747C23.0737 56.1718 24.6623 56.1529 25.6979 56.0457C26.4713 55.9648 32.6965 56.0792 33.5082 56.1783C34.6999 56.3242 36.1026 56.1646 37.2876 56.3393C38.395 56.5028 39.7356 56.4729 40.9234 56.6404C43.1399 56.9527 45.6356 57.1405 47.9793 57.5466C50.0213 57.9006 52.5447 58.3604 54.5999 58.8831C55.1176 59.0148 55.6137 59.1335 56.1552 59.2936C56.4337 59.3758 56.6835 59.4487 56.9196 59.5127C57.2765 59.6079 57.394 59.6908 57.7866 59.7374C57.7873 59.7361 58.2054 59.5739 57.2545 59.3377C55.2428 58.8369 53.9653 58.4165 51.6878 57.9424C40.5003 55.6122 25.8689 55.1215 14.6176 56.4587C12.1843 56.7478 8.19869 57.1811 5.92819 57.7731C5.42027 57.9055 4.85752 58.037 4.35363 58.1336C3.79446 58.2404 1.62089 58.6639 1.42636 59.1254V59.1249Z" fill="#C6C2C2"/>
<path fill-rule="evenodd" clip-rule="evenodd" d="M54.1679 20.9046C54.1433 21.2026 54.12 21.4967 54.0979 21.7871C54.1203 21.4967 54.1433 21.2023 54.1679 20.9046ZM4.98184 55.1317L4.98833 55.1497C4.72441 55.2002 4.46923 55.2484 4.45781 55.2477C4.24023 55.2346 4.45669 55.3134 4.29932 55.2011L4.30156 54.9198C4.31387 54.905 4.32865 54.8572 4.33178 54.8689L5.54437 49.0935C5.89402 47.0997 6.67414 41.7339 6.74375 39.6752C6.75696 39.2712 6.80755 38.4441 6.8718 38.0016L7.15788 32.9711C7.17892 30.504 7.32599 26.7944 7.14915 24.3804C7.10191 23.7364 7.11714 21.8148 7.02066 21.0506C6.94567 20.4525 6.93045 18.7385 6.79726 17.7256C6.45611 15.1317 6.33747 12.6578 5.82866 9.90777C5.4761 8.00335 5.28045 5.9663 4.39245 4.23752L6.07042 4.35507L11.3669 5.38261C13.2918 5.70643 15.3248 6.00188 17.2528 6.19869C21.4645 6.62948 25.5797 6.8952 29.9332 6.94654C33.7417 6.9918 36.1409 6.81863 39.6999 6.67654C40.7305 6.63511 41.7519 6.48153 42.7178 6.43581C43.7939 6.38492 44.79 6.23697 45.7588 6.12258C46.7218 6.00908 47.7305 5.91473 48.6532 5.74921C49.5849 5.5828 50.5653 5.45039 51.4994 5.2529C53.1497 4.90341 54.0271 5.06689 55.4354 4.78158C55.4499 5.09504 55.2529 5.76115 55.1739 6.14397C54.2098 10.8473 53.7563 13.3453 53.1935 18.3706L52.8766 22.5573C52.8531 22.9505 52.794 22.9298 52.7774 23.3578L52.5262 31.9454C52.5162 32.6273 52.6113 32.9403 52.6017 33.6433C52.5844 34.8794 52.605 35.936 52.6585 37.1335L53.4883 46.7732C53.669 48.265 54.1205 51.3949 54.439 52.8355C54.5565 53.3674 54.8932 55.336 55.0557 55.7032C54.7495 55.6046 54.0321 55.5449 53.8355 55.4736L52.7487 55.2177C49.6574 54.4575 45.6579 53.9441 42.5482 53.5248L37.8744 53.0974C37.2109 53.0868 36.9298 52.9954 36.2759 52.9947L33.0048 52.8641C31.8249 52.7202 27.5758 52.7202 26.3301 52.8127C25.8146 52.8508 25.1759 52.7974 24.6454 52.799L13.6846 53.65C11.3183 53.958 8.78526 54.3327 6.47088 54.825C6.20159 54.8822 5.8797 54.9691 5.57347 55.0362L5.569 55.0369L5.56832 55.0374L5.5634 55.038L5.24643 55.0995L5.23837 55.1009C5.14838 55.1155 5.0622 55.1256 4.98229 55.1308L4.98184 55.1317ZM6.36657 56.2678C6.51028 56.2342 6.63653 56.2043 6.73301 56.184C9.87607 55.5179 13.3473 55.0236 16.9837 54.6951C13.3475 55.0239 9.8763 55.5181 6.73301 56.1847C6.63653 56.2047 6.51028 56.2347 6.36657 56.2678ZM45.4352 55.3463C46.9271 55.5587 48.3691 55.7999 49.7496 56.0701L49.9569 56.1106L49.7496 56.0703C48.3694 55.8003 46.9273 55.5591 45.4352 55.3463ZM55.1018 55.7201H55.1009L55.552 55.5503L55.1018 55.7201ZM15.6256 5.4907L6.46036 3.91393L15.6256 5.49047V5.4907ZM3.7735 51.045C3.82745 50.7799 3.87961 50.5151 3.9293 50.2501C4.41528 47.6541 4.81507 44.9516 5.12577 42.1865C4.81507 44.9518 4.4155 47.6541 3.9293 50.2501C3.87983 50.5147 3.8279 50.7799 3.7735 51.045ZM5.93006 27.3185C5.92872 26.8426 5.92469 26.3673 5.91865 25.8926C5.92469 26.3675 5.92872 26.8429 5.93006 27.3185ZM58.3871 1.81652C58.4038 1.77441 58.4186 1.7305 58.4303 1.68479C58.4188 1.73095 58.4038 1.77464 58.3871 1.81652ZM58.4417 1.63817C58.4524 1.59111 58.4596 1.54224 58.4652 1.4909H58.4656C58.46 1.54224 58.4526 1.59133 58.4417 1.63817ZM57.6316 1.78319C57.5946 1.79693 57.5555 1.81134 57.5131 1.82575C57.5557 1.81134 57.5946 1.79715 57.6316 1.78319ZM57.4811 1.83679C57.3495 1.88092 57.1917 1.92686 56.9978 1.97528C55.939 2.2347 54.8592 2.47204 53.7621 2.688C54.8592 2.47182 55.9393 2.23425 56.9978 1.97483C57.1912 1.92641 57.3497 1.8807 57.4811 1.83679ZM53.7621 2.68845C53.4881 2.74227 53.2121 2.79496 52.9361 2.84653C53.2123 2.79496 53.4883 2.74227 53.7621 2.68845ZM50.4259 3.27529C50.1445 3.3192 49.8622 3.36176 49.5793 3.40342C49.8622 3.36199 50.1445 3.3192 50.4259 3.27529ZM8.17997 2.53149L3.28887 1.42041C3.24902 1.41006 3.19888 1.39474 3.14046 1.37583C3.19888 1.39474 3.24902 1.4096 3.28887 1.42019L8.17997 2.53149ZM1.42667 59.125C1.62075 58.6636 3.79432 58.24 4.3535 58.1337C4.8576 58.0373 5.42058 57.9047 5.92805 57.7727C8.19877 57.1803 12.1844 56.7477 14.6174 56.4581C25.869 55.1211 40.5 55.6116 51.6877 57.9421C53.9651 58.4163 55.2429 58.8367 57.2544 59.3373C58.2053 59.5736 57.7871 59.7362 57.7867 59.7368C57.9985 59.8449 58.9814 59.9897 59.2936 59.9992C59.269 59.6686 59.1813 59.5371 59.0915 59.2245C56.562 50.4807 55.7452 39.5635 55.8249 30.4542C55.8374 29.0819 55.8531 27.7103 55.8589 26.3384L56.0713 22.3152C56.0881 21.8711 56.1582 21.8698 56.1732 21.4266C56.1882 20.9785 56.1978 20.7441 56.2444 20.4164C56.3357 19.7602 56.3079 19.1567 56.3982 18.4994C56.564 17.3061 56.6945 15.9259 56.8436 14.7149C57.153 12.2187 57.5854 9.86454 58.0611 7.57099C58.5693 5.11711 59.3518 2.8677 59.7261 0.721879H59.7257C59.7297 0.337932 59.7434 0.668959 59.639 0.527316L58.7517 0.787183H58.7513C58.2507 0.898652 57.7108 1.08488 57.2183 1.20356C55.4134 1.63614 54.1277 1.95929 52.2043 2.28716C48.6075 2.8999 46.7453 3.06924 43.2544 3.48607L38.5668 3.8225C38.2265 3.8475 37.8485 3.80133 37.5053 3.8171L35.5493 3.88623C35.0947 3.88263 35.0071 3.94027 34.6593 3.9664C34.3396 3.98959 33.928 3.96459 33.5994 3.96144C31.5576 3.94275 29.5168 3.92429 27.4749 3.9065L23.5718 3.69257C22.3214 3.61398 21.0267 3.63672 19.7189 3.42775C19.0935 3.32776 18.4531 3.3415 17.8187 3.26944C11.4535 2.54681 8.20303 1.9665 2.18865 0.3895C1.62411 0.241326 1.08127 0.135488 0.523216 -0.000976562C0.55075 0.375088 0.837724 1.2513 0.942933 1.62263C1.09202 2.1516 1.23774 2.75353 1.36578 3.24354C1.50838 3.7921 1.62209 4.37151 1.73043 4.9212C2.50092 8.82664 3.28618 13.6331 3.55794 17.7401L3.71485 20.6871C3.78134 22.2727 3.95415 24.0584 3.93736 25.6973C3.92236 27.1788 3.99534 28.4108 3.99086 29.8131C3.98862 30.5346 3.88923 30.989 3.88364 31.7785C3.87894 32.464 3.86864 33.1504 3.86618 33.8363L3.1071 43.6156C3.00928 44.2934 2.95108 44.9079 2.8752 45.5427C2.45638 49.032 1.7029 52.8393 0.846454 56.1858L-0.000366211 59.5587L1.42645 59.1245L1.42667 59.125ZM57.3941 4.68092L57.0061 6.3615C56.9871 6.46261 56.9692 6.55697 56.9508 6.64704C56.9692 6.55742 56.9871 6.46261 57.0055 6.3615L57.3941 4.68092ZM6.41917 56.4919C6.24994 56.5254 6.08094 56.5583 5.91104 56.5912L6.41917 56.4919ZM1.82266 57.4897H1.82221C1.82288 57.4304 1.82602 57.3692 1.83139 57.3068C1.82669 57.3692 1.82333 57.4304 1.82266 57.4897ZM1.24625 0.603655L1.24289 0.602979L1.23774 0.602529H1.2355V0.602979L1.23327 0.603204H1.23304L1.2308 0.604105L1.22901 0.604781H1.22856L1.22677 0.605907L1.22454 0.607033V0.607483L1.22274 0.608609L1.22073 0.60951V0.60996L1.21961 0.611086L1.21894 0.611536L1.21782 0.612662V0.612888L1.21603 0.614013L1.21446 0.615139V0.61559L1.21334 0.616716L1.212 0.617842L1.21133 0.618968L1.20931 0.619643L1.20864 0.620319L1.20707 0.620769L1.20685 0.62122L1.20461 0.620319L1.20305 0.619643L1.20282 0.618517L1.20193 0.616941L1.20058 0.615139V0.614914L1.20014 0.612662L1.19946 0.60951H1.19857L1.1979 0.606357L1.19767 0.602304L1.19655 0.5978L1.19566 0.592621L1.19499 0.58654L1.19342 0.580235L1.1932 0.572804L1.19208 0.565148H1.19163L1.19141 0.55659V0.55614L1.18984 0.546907L1.18917 0.536549L1.18827 0.525289H1.1876L1.18693 0.513579V0.513129L1.18536 0.500518L1.18469 0.486782V0.486332L1.1829 0.471694V0.471469L1.18178 0.455481L1.18021 0.438592L1.17887 0.420351H1.17842L1.1773 0.401435L1.17574 0.380943L1.24692 0.604105L1.24625 0.603655ZM26.0366 4.26725C26.4619 4.28504 26.885 4.30058 27.307 4.31409C26.885 4.3008 26.4619 4.28549 26.0366 4.26725ZM28.9823 4.35777C29.3982 4.36588 29.8118 4.37219 30.2228 4.37669C29.8116 4.37241 29.3982 4.36611 28.9823 4.35777Z" fill="#C6C2C2"/>
<path d="M68.0532 43.2942H68.5768V44.6203H70.2008V43.2942H70.7242V46.6234H70.2008V45.0853H68.5768V46.6234H68.0532V43.2942ZM73.0621 43.2188C73.4513 43.2188 73.7638 43.3347 73.9995 43.5673C74.235 43.7995 74.3528 44.1346 74.3528 44.5724V46.6234H73.8637V46.1926C73.7415 46.3568 73.5848 46.482 73.3952 46.5687C73.2044 46.6551 72.9895 46.6986 72.7494 46.6986C72.4095 46.6986 72.1315 46.6144 71.9169 46.4457C71.7015 46.277 71.5941 46.0489 71.5941 45.7623C71.5941 45.4794 71.7026 45.254 71.92 45.0853C72.138 44.9167 72.4257 44.8325 72.7834 44.8325H73.8294V44.5453C73.8294 44.2717 73.7585 44.0632 73.6156 43.9195C73.4733 43.7761 73.2774 43.704 73.0278 43.704C72.8286 43.704 72.6518 43.7486 72.498 43.8376C72.3433 43.9267 72.1987 44.0598 72.0633 44.2375L71.7161 43.9506C71.8663 43.704 72.0581 43.521 72.2938 43.4003C72.5295 43.2796 72.7858 43.2192 73.0623 43.2192L73.0621 43.2188ZM72.817 46.2608C72.9983 46.2608 73.1655 46.2214 73.3199 46.1412C73.4737 46.0615 73.5973 45.951 73.6902 45.81C73.7835 45.6686 73.8292 45.5139 73.8292 45.3452V45.2628H72.844C72.6128 45.2628 72.4366 45.3026 72.314 45.3824C72.192 45.4621 72.1306 45.5796 72.1306 45.7346C72.1306 45.9032 72.1962 46.0332 72.3276 46.1244C72.4592 46.2151 72.622 46.2608 72.8167 46.2608H72.817ZM76.059 43.7657H74.944V43.2942H77.6895V43.7657H76.5754V46.6234H76.059V43.7657ZM80.7884 43.2942V46.6234H80.2653V45.4065H79.6401L78.7295 46.6234H78.1177L79.0827 45.338C78.8378 45.265 78.6467 45.1432 78.5081 44.9723C78.3702 44.8014 78.3013 44.5976 78.3013 44.3605C78.3013 44.0371 78.4078 43.7779 78.6205 43.5849C78.8336 43.391 79.1167 43.2944 79.4697 43.2944H80.7884V43.2942ZM80.2653 43.7657H79.5035C79.2958 43.7657 79.1322 43.8182 79.0149 43.9229C78.8967 44.0281 78.838 44.1717 78.838 44.3537C78.838 44.5314 78.8983 44.6737 79.0178 44.7811C79.1382 44.8881 79.3025 44.9417 79.5109 44.9417H80.2655V43.7657H80.2653ZM82.2838 43.2942L83.6492 44.8185L82.1405 46.6234H81.5018L83.0171 44.8185L81.631 43.2942H82.2838ZM83.7173 43.2942H84.2404V46.6234H83.7173V43.2942ZM86.4693 46.6234H85.817L84.3082 44.8185L85.6751 43.2942H86.32L84.9478 44.805L86.4693 46.6231V46.6234ZM87.1903 43.2942H87.7134V44.6203H89.3375V43.2942H89.8613V46.6234H89.3375V45.0853H87.7134V46.6234H87.1903V43.2942ZM91.0094 43.2942H91.5323V44.4426H92.3207C92.6921 44.4426 92.9911 44.542 93.2179 44.7401C93.4446 44.9383 93.5577 45.2015 93.5577 45.5296C93.5577 45.8625 93.4453 46.128 93.2212 46.3261C92.9974 46.5243 92.6965 46.6236 92.3207 46.6236H91.0094V43.2944V43.2942ZM94.0405 43.2942H94.5632V46.6234H94.0405V43.2942ZM92.2941 46.1584C92.5291 46.1584 92.7095 46.1048 92.8338 45.9976C92.9584 45.8904 93.0207 45.7368 93.0207 45.5362C93.0207 45.3355 92.9573 45.1806 92.8308 45.0714C92.7035 44.9622 92.5226 44.9074 92.2869 44.9074H91.5323V46.1584H92.2941ZM98.6341 45.1191H96.0176C96.05 45.4474 96.179 45.7118 96.4055 45.9122C96.6318 46.1126 96.908 46.2131 97.2348 46.2131C97.6107 46.2131 97.9483 46.0627 98.2473 45.762L98.5533 46.1174C98.3807 46.2998 98.1826 46.4425 97.9581 46.5448C97.7343 46.6472 97.4903 46.6984 97.2275 46.6984C96.9015 46.6984 96.6049 46.622 96.3379 46.4696C96.0704 46.3167 95.8597 46.1081 95.7053 45.8438C95.5515 45.5796 95.4745 45.2855 95.4745 44.9622C95.4745 44.6431 95.5493 44.3501 95.6983 44.0835C95.8481 43.8171 96.0525 43.6061 96.3099 43.4511C96.5682 43.2964 96.8539 43.219 97.1663 43.219C97.4471 43.219 97.7031 43.2825 97.9344 43.4102C98.1656 43.5383 98.3465 43.7157 98.4781 43.9436C98.6095 44.1717 98.6749 44.4312 98.6749 44.723C98.6749 44.8507 98.6612 44.9829 98.6341 45.1196V45.1191ZM97.1525 43.6973C96.8762 43.6973 96.6363 43.7851 96.4323 43.9603C96.2284 44.1357 96.0975 44.3672 96.0379 44.6543H98.1381C98.1336 44.3582 98.0376 44.1247 97.8495 43.9538C97.6611 43.7828 97.4291 43.6973 97.1525 43.6973ZM101.496 43.2942H104.139V46.6234H103.609V43.7657H102.018V46.6234H101.495V43.2942H101.496ZM106.775 46.6916C106.458 46.6916 106.168 46.6141 105.905 46.4592C105.643 46.3045 105.435 46.0933 105.281 45.8269C105.127 45.5603 105.049 45.27 105.049 44.9554C105.049 44.6365 105.127 44.3436 105.281 44.0769C105.435 43.8103 105.644 43.6004 105.909 43.448C106.174 43.2953 106.465 43.219 106.782 43.219C107.099 43.219 107.391 43.2964 107.656 43.4511C107.92 43.6061 108.13 43.816 108.284 44.0803C108.439 44.3445 108.515 44.6365 108.515 44.9554C108.515 45.27 108.438 45.56 108.284 45.8269C108.13 46.0933 107.92 46.3045 107.652 46.4592C107.384 46.6141 107.092 46.6916 106.775 46.6916H106.775ZM106.775 46.2063C106.998 46.2063 107.2 46.1516 107.384 46.0422C107.567 45.9329 107.713 45.7836 107.818 45.5945C107.925 45.4051 107.978 45.1943 107.978 44.9622C107.978 44.725 107.926 44.5107 107.822 44.3195C107.718 44.1281 107.574 43.9776 107.391 43.8682C107.207 43.7588 107.004 43.7038 106.782 43.7038C106.556 43.7038 106.352 43.7588 106.17 43.8682C105.99 43.9776 105.847 44.1281 105.743 44.3195C105.638 44.5107 105.586 44.7248 105.586 44.9622C105.586 45.1943 105.638 45.4053 105.743 45.5945C105.847 45.7836 105.99 45.9329 106.17 46.0422C106.352 46.1516 106.553 46.2063 106.775 46.2063ZM110.052 43.7657H108.937V43.2942H111.683V43.7657H110.568V46.6234H110.052V43.7657ZM113.884 46.6918C113.567 46.6918 113.277 46.6144 113.014 46.4594C112.751 46.3047 112.543 46.0935 112.389 45.8271C112.235 45.5605 112.158 45.2702 112.158 44.9556C112.158 44.6368 112.235 44.3438 112.389 44.0772C112.543 43.8105 112.753 43.6007 113.017 43.4482C113.282 43.2955 113.574 43.2192 113.891 43.2192C114.208 43.2192 114.499 43.2967 114.764 43.4514C115.029 43.6063 115.239 43.8162 115.393 44.0805C115.547 44.3447 115.624 44.6368 115.624 44.9556C115.624 45.2702 115.547 45.5603 115.393 45.8271C115.239 46.0935 115.028 46.3047 114.761 46.4594C114.493 46.6144 114.201 46.6918 113.884 46.6918H113.884ZM113.884 46.2066C114.106 46.2066 114.309 46.1518 114.492 46.0424C114.676 45.9332 114.821 45.7839 114.928 45.5947C115.034 45.4053 115.087 45.1946 115.087 44.9624C115.087 44.7253 115.036 44.5109 114.931 44.3197C114.826 44.1283 114.683 43.9779 114.499 43.8684C114.316 43.759 114.114 43.704 113.891 43.704C113.664 43.704 113.461 43.759 113.279 43.8684C113.098 43.9779 112.956 44.1283 112.852 44.3197C112.747 44.5109 112.695 44.725 112.695 44.9624C112.695 45.1946 112.747 45.4056 112.852 45.5947C112.956 45.7839 113.098 45.9332 113.279 46.0424C113.461 46.1518 113.662 46.2066 113.885 46.2066H113.884ZM119.042 43.2944V46.6236H118.519V43.766H117.289L117.275 44.1763C117.257 44.7599 117.214 45.229 117.146 45.5844C117.078 45.9402 116.969 46.2068 116.82 46.3845C116.67 46.5619 116.467 46.6508 116.208 46.6508C116.144 46.6508 116.086 46.6421 116.031 46.6236V46.1793C116.086 46.1881 116.131 46.1926 116.168 46.1926C116.38 46.1926 116.532 46.0255 116.623 45.6902C116.713 45.3551 116.766 44.8457 116.78 44.1621L116.8 43.2942H119.042V43.2944ZM120.198 43.2944H120.721V46.6236H120.198V43.2944ZM122.984 46.6236H122.325L120.789 44.8187L122.183 43.2944H122.834L121.427 44.8052L122.984 46.6234V46.6236ZM126.429 43.2192V46.6236H125.906V44.272L123.888 46.6988H123.698V43.2946H124.22V45.6528L126.239 43.2192H126.429ZM129.481 43.2946H130.004V44.6208H131.628V43.2946H132.152V46.6238H131.628V45.0858H130.004V46.6238H129.481V43.2946ZM134.788 46.6921C134.471 46.6921 134.181 46.6146 133.918 46.4597C133.656 46.305 133.447 46.0937 133.294 45.8273C133.139 45.5607 133.062 45.2704 133.062 44.9559C133.062 44.637 133.139 44.344 133.294 44.0774C133.447 43.8108 133.656 43.6009 133.921 43.4484C134.186 43.2958 134.478 43.2194 134.795 43.2194C135.112 43.2194 135.403 43.2969 135.668 43.4516C135.933 43.6065 136.143 43.8164 136.297 44.0808C136.45 44.3449 136.528 44.637 136.528 44.9559C136.528 45.2704 136.45 45.5605 136.297 45.8273C136.143 46.0937 135.932 46.305 135.665 46.4597C135.398 46.6146 135.105 46.6921 134.788 46.6921ZM134.788 46.2068C135.01 46.2068 135.213 46.1521 135.396 46.0426C135.58 45.9334 135.725 45.7841 135.832 45.5949C135.938 45.4056 135.992 45.1948 135.992 44.9626C135.992 44.7255 135.939 44.5111 135.835 44.3199C135.731 44.1285 135.587 43.9781 135.403 43.8686C135.22 43.7592 135.017 43.7043 134.795 43.7043C134.569 43.7043 134.365 43.7592 134.184 43.8686C134.002 43.9781 133.86 44.1285 133.755 44.3199C133.651 44.5111 133.599 44.7253 133.599 44.9626C133.599 45.1948 133.651 45.4058 133.755 45.5949C133.86 45.7841 134.002 45.9334 134.184 46.0426C134.364 46.1521 134.567 46.2068 134.789 46.2068H134.788ZM139.532 44.8189C139.727 44.8872 139.879 44.9899 139.991 45.1268C140.101 45.2632 140.157 45.4274 140.157 45.6188C140.157 45.9149 140.05 46.1566 139.837 46.3437C139.625 46.5304 139.34 46.6238 138.982 46.6238H137.446V43.2946H138.811C139.138 43.2946 139.397 43.3741 139.59 43.5333C139.782 43.6932 139.879 43.9074 139.879 44.1763C139.879 44.3084 139.848 44.4303 139.787 44.5422C139.726 44.6537 139.641 44.746 139.532 44.8189H139.532ZM137.968 44.6548H138.818C138.999 44.6548 139.135 44.6151 139.226 44.535C139.317 44.4555 139.362 44.3449 139.362 44.2037C139.362 43.9121 139.181 43.7662 138.818 43.7662H137.969V44.6548H137.968ZM138.948 46.1588C139.165 46.1588 139.334 46.1086 139.454 46.0086C139.573 45.9082 139.634 45.7782 139.634 45.6188C139.634 45.4637 139.573 45.3421 139.454 45.2531C139.334 45.1642 139.165 45.1196 138.948 45.1196H137.968V46.1588H138.948ZM142.631 46.6921C142.314 46.6921 142.023 46.6146 141.761 46.4597C141.498 46.305 141.289 46.0937 141.136 45.8273C140.981 45.5607 140.904 45.2704 140.904 44.9559C140.904 44.637 140.981 44.344 141.136 44.0774C141.289 43.8108 141.499 43.6009 141.764 43.4484C142.029 43.2958 142.32 43.2194 142.637 43.2194C142.954 43.2194 143.245 43.2969 143.51 43.4516C143.775 43.6065 143.985 43.8164 144.139 44.0808C144.293 44.3449 144.37 44.637 144.37 44.9559C144.37 45.2704 144.293 45.5605 144.139 45.8273C143.985 46.0937 143.774 46.305 143.507 46.4597C143.24 46.6146 142.948 46.6921 142.631 46.6921ZM142.631 46.2068C142.852 46.2068 143.056 46.1521 143.239 46.0426C143.423 45.9334 143.567 45.7841 143.674 45.5949C143.78 45.4056 143.834 45.1948 143.834 44.9626C143.834 44.7255 143.782 44.5111 143.677 44.3199C143.573 44.1285 143.429 43.9781 143.245 43.8686C143.062 43.7592 142.86 43.7043 142.637 43.7043C142.411 43.7043 142.207 43.7592 142.026 43.8686C141.845 43.9781 141.702 44.1285 141.598 44.3199C141.494 44.5111 141.441 44.7253 141.441 44.9626C141.441 45.1948 141.494 45.4058 141.598 45.5949C141.702 45.7841 141.845 45.9334 142.026 46.0426C142.207 46.1521 142.408 46.2068 142.631 46.2068H142.631ZM145.288 43.2946H147.517V43.7662H145.811V46.6238H145.288V43.2946H145.288ZM149.583 46.6921C149.266 46.6921 148.976 46.6146 148.713 46.4597C148.45 46.305 148.242 46.0937 148.088 45.8273C147.934 45.5607 147.857 45.2704 147.857 44.9559C147.857 44.637 147.934 44.344 148.088 44.0774C148.242 43.8108 148.451 43.6009 148.717 43.4484C148.982 43.2958 149.273 43.2194 149.589 43.2194C149.907 43.2194 150.198 43.2969 150.463 43.4516C150.728 43.6065 150.938 43.8164 151.091 44.0808C151.246 44.3449 151.323 44.637 151.323 44.9559C151.323 45.2704 151.246 45.5605 151.091 45.8273C150.938 46.0937 150.727 46.305 150.46 46.4597C150.192 46.6146 149.9 46.6921 149.583 46.6921ZM149.583 46.2068C149.805 46.2068 150.008 46.1521 150.191 46.0426C150.375 45.9334 150.52 45.7841 150.626 45.5949C150.732 45.4056 150.786 45.1948 150.786 44.9626C150.786 44.7255 150.734 44.5111 150.63 44.3199C150.525 44.1285 150.381 43.9781 150.198 43.8686C150.014 43.7592 149.812 43.7043 149.589 43.7043C149.363 43.7043 149.16 43.7592 148.978 43.8686C148.797 43.9781 148.654 44.1285 148.55 44.3199C148.445 44.5111 148.393 44.7253 148.393 44.9626C148.393 45.1948 148.445 45.4058 148.55 45.5949C148.655 45.7841 148.797 45.9334 148.978 46.0426C149.16 46.1521 149.361 46.2068 149.583 46.2068ZM154.143 43.2946H156.786V46.6238H156.256V43.7662H154.666V46.6238H154.142V43.2946H154.143ZM159.423 46.6921C159.106 46.6921 158.816 46.6146 158.553 46.4597C158.291 46.305 158.082 46.0937 157.928 45.8273C157.774 45.5607 157.697 45.2704 157.697 44.9559C157.697 44.637 157.774 44.344 157.928 44.0774C158.082 43.8108 158.291 43.6009 158.556 43.4484C158.821 43.2958 159.113 43.2194 159.43 43.2194C159.747 43.2194 160.038 43.2969 160.303 43.4516C160.568 43.6065 160.778 43.8164 160.932 44.0808C161.086 44.3449 161.163 44.637 161.163 44.9559C161.163 45.2704 161.086 45.5605 160.932 45.8273C160.778 46.0937 160.567 46.305 160.3 46.4597C160.032 46.6146 159.74 46.6921 159.423 46.6921H159.423ZM159.423 46.2068C159.645 46.2068 159.848 46.1521 160.031 46.0426C160.215 45.9334 160.36 45.7841 160.466 45.5949C160.572 45.4056 160.626 45.1948 160.626 44.9626C160.626 44.7255 160.574 44.5111 160.469 44.3199C160.366 44.1285 160.222 43.9781 160.038 43.8686C159.855 43.7592 159.652 43.7043 159.43 43.7043C159.203 43.7043 158.999 43.7592 158.818 43.8686C158.637 43.9781 158.494 44.1285 158.39 44.3199C158.286 44.5111 158.234 44.7253 158.234 44.9626C158.234 45.1948 158.286 45.4058 158.39 45.5949C158.495 45.7841 158.637 45.9334 158.818 46.0426C158.999 46.1521 159.201 46.2068 159.423 46.2068ZM162.081 43.2946H162.603V46.6238H162.081V43.2946ZM164.867 46.6238H164.208L162.672 44.8189L164.065 43.2946H164.717L163.311 44.8054L164.867 46.6236V46.6238ZM166.966 46.6921C166.65 46.6921 166.36 46.6146 166.097 46.4597C165.834 46.305 165.626 46.0937 165.472 45.8273C165.318 45.5607 165.24 45.2704 165.24 44.9559C165.24 44.637 165.318 44.344 165.472 44.0774C165.626 43.8108 165.835 43.6009 166.1 43.4484C166.365 43.2958 166.656 43.2194 166.973 43.2194C167.29 43.2194 167.582 43.2969 167.846 43.4516C168.111 43.6065 168.321 43.8164 168.475 44.0808C168.63 44.3449 168.706 44.637 168.706 44.9559C168.706 45.2704 168.629 45.5605 168.475 45.8273C168.321 46.0937 168.111 46.305 167.844 46.4597C167.576 46.6146 167.283 46.6921 166.966 46.6921ZM166.966 46.2068C167.189 46.2068 167.391 46.1521 167.575 46.0426C167.758 45.9334 167.904 45.7841 168.01 45.5949C168.116 45.4056 168.169 45.1948 168.169 44.9626C168.169 44.7255 168.118 44.5111 168.013 44.3199C167.909 44.1285 167.765 43.9781 167.582 43.8686C167.398 43.7592 167.196 43.7043 166.973 43.7043C166.747 43.7043 166.543 43.7592 166.362 43.8686C166.181 43.9781 166.038 44.1285 165.934 44.3199C165.829 44.5111 165.777 44.7253 165.777 44.9626C165.777 45.1948 165.829 45.4058 165.934 45.5949C166.038 45.7841 166.181 45.9334 166.362 46.0426C166.543 46.1521 166.744 46.2068 166.966 46.2068ZM172.125 43.2946V46.6238H171.601V43.7662H170.371L170.358 44.1765C170.339 44.7602 170.297 45.2292 170.229 45.5846C170.161 45.9404 170.052 46.207 169.902 46.3847C169.753 46.5621 169.549 46.6511 169.291 46.6511C169.227 46.6511 169.168 46.6423 169.114 46.6238V46.1795C169.168 46.1883 169.214 46.1928 169.25 46.1928C169.463 46.1928 169.615 46.0257 169.705 45.6904C169.796 45.3553 169.848 44.846 169.862 44.1623L169.882 43.2944H172.125V43.2946ZM176.203 45.1198H173.586C173.618 45.4481 173.747 45.7125 173.973 45.9129C174.2 46.1133 174.476 46.2138 174.803 46.2138C175.179 46.2138 175.516 46.0633 175.815 45.7627L176.121 46.1181C175.949 46.3005 175.751 46.4432 175.526 46.5455C175.302 46.6479 175.058 46.699 174.796 46.699C174.47 46.699 174.173 46.6227 173.906 46.4703C173.638 46.3173 173.428 46.1088 173.274 45.8444C173.12 45.5803 173.043 45.2862 173.043 44.9628C173.043 44.6437 173.118 44.3508 173.267 44.0842C173.416 43.8178 173.62 43.6067 173.878 43.4518C174.137 43.2971 174.422 43.2197 174.735 43.2197C175.016 43.2197 175.272 43.2832 175.503 43.4108C175.734 43.539 175.915 43.7164 176.046 43.9443C176.178 44.1724 176.243 44.4318 176.243 44.7237C176.243 44.8514 176.23 44.9836 176.203 45.1202L176.203 45.1198ZM174.721 43.698C174.444 43.698 174.204 43.7858 174.001 43.961C173.797 44.1364 173.666 44.3679 173.606 44.655H175.706C175.702 44.3589 175.606 44.1254 175.418 43.9544C175.229 43.7835 174.998 43.698 174.721 43.698ZM177.161 43.2949H177.684V44.621H179.308V43.2949H179.832V46.6241H179.308V45.086H177.684V46.6241H177.161V43.2949ZM183.712 43.2194V46.6238H183.188V44.2722L181.17 46.699H180.98V43.2949H181.503V45.653L183.521 43.2194H183.712ZM187.273 43.2949V46.6241H186.749V45.4071H186.124L185.214 46.6241H184.602L185.567 45.3387C185.322 45.2657 185.131 45.1439 184.993 44.973C184.855 44.8021 184.786 44.5983 184.786 44.3611C184.786 44.0378 184.892 43.7786 185.105 43.5856C185.318 43.3917 185.601 43.2951 185.954 43.2951H187.273V43.2949ZM186.749 43.7664H185.989C185.78 43.7664 185.617 43.8189 185.499 43.9236C185.381 44.0288 185.323 44.1724 185.323 44.3544C185.323 44.5321 185.382 44.6744 185.502 44.7818C185.623 44.8887 185.787 44.9423 185.996 44.9423H186.75V43.7664H186.749Z" fill="white"/>
</g>
<defs>
<clipPath id="clip0_20_459">
<rect width="187.273" height="60" fill="white"/>
</clipPath>
</defs>
</svg>
