<svg width="50" height="50" viewBox="0 0 50 50" fill="none" xmlns="http://www.w3.org/2000/svg">
<path d="M48.0439 44.1003C46.4178 40.7222 44.0151 37.6832 41.0961 35.3117C38.2934 33.0348 34.9906 31.3581 31.5128 30.4389L30.207 20.099C30.1547 19.6846 29.8029 19.3735 29.3853 19.3721L25.8736 19.3608V6.40282C29.1251 6.11766 31.967 4.17714 33.4162 1.19385C33.5413 0.936424 33.5251 0.632616 33.3732 0.389941C33.2214 0.147363 32.9552 0 32.669 0H17.411C17.1248 0 16.8587 0.147168 16.7068 0.389843C16.5548 0.632421 16.5384 0.936033 16.6634 1.19355C18.0879 4.13036 20.9912 6.10819 24.2118 6.40155V19.3554L20.776 19.3444H20.7733C20.3568 19.3444 20.0044 19.6528 19.9497 20.0659L18.5772 30.3994C15.0944 31.2954 11.7814 32.9507 8.96383 35.2099C6.02965 37.5624 3.60778 40.5856 1.95964 43.9527C1.83376 44.2099 1.84909 44.5136 2.00027 44.7568C2.15153 44.9999 2.41706 45.1481 2.70319 45.149L16.8947 45.1944C18.5218 48.1288 21.6652 50 25.0402 50C28.4457 50 31.5087 48.1907 33.1564 45.2464L47.2928 45.2917H47.2955C47.5807 45.2917 47.8461 45.1453 47.9983 44.9041C48.1509 44.6619 48.1681 44.3582 48.0439 44.1003ZM18.875 1.66181H31.2043C29.7803 3.61132 27.5225 4.77792 25.0401 4.779C22.5568 4.779 20.2982 3.6123 18.875 1.66181ZM21.5009 21.0086L28.6498 21.0315L29.7884 30.0487C28.2327 29.7526 26.6438 29.5975 25.0485 29.5918C23.4509 29.5886 21.8617 29.7326 20.3037 30.0195L21.5009 21.0086ZM25.0401 48.3381C22.5574 48.3381 20.2989 47.1715 18.8751 45.2209H25.2091L31.1883 45.2401C29.7631 47.1785 27.5111 48.3381 25.0401 48.3381ZM4.07858 43.4916C5.58082 40.8214 7.60982 38.4256 10.0034 36.5064C12.7789 34.2809 16.0677 32.6808 19.5154 31.8787C21.3168 31.4575 23.1795 31.2504 25.0425 31.2539C26.9098 31.2605 28.7679 31.4821 30.5656 31.9124C34.0081 32.7372 37.2872 34.3587 40.0482 36.6017C42.4296 38.5363 44.4433 40.9455 45.9281 43.6257L4.07858 43.4916Z" fill="#272324"/>
</svg>
