<svg width="56" height="57" viewBox="0 0 56 57" fill="none" xmlns="http://www.w3.org/2000/svg">
<path fill-rule="evenodd" clip-rule="evenodd" d="M28 0.875488C12.9944 0.875488 0.8125 13.3292 0.8125 28.6696C0.8125 44.01 12.9944 56.4636 28 56.4636C43.0056 56.4636 55.1875 44.01 55.1875 28.6696C55.1875 13.3292 43.0056 0.875488 28 0.875488ZM28 2.79232C41.9706 2.79232 53.3125 14.3872 53.3125 28.6696C53.3125 42.9519 41.9706 54.5468 28 54.5468C14.0294 54.5468 2.6875 42.9519 2.6875 28.6696C2.6875 14.3872 14.0294 2.79232 28 2.79232Z" fill="white"/>
<path fill-rule="evenodd" clip-rule="evenodd" d="M28.7988 8.99869C28.6281 8.715 28.3263 8.54248 28 8.54248C27.6737 8.54248 27.3719 8.715 27.2013 8.99869C27.2013 8.99869 21.6456 18.2455 18.3119 26.5665C16.84 30.241 15.8125 33.7469 15.8125 36.2465C15.8125 43.1222 21.2744 48.7059 28 48.7059C34.7256 48.7059 40.1875 43.1222 40.1875 36.2465C40.1875 33.7469 39.16 30.241 37.6881 26.5665C34.3544 18.2455 28.7988 8.99869 28.7988 8.99869ZM28 11.3679C26.3612 14.2086 22.5625 21.0172 20.0481 27.2929C18.685 30.6972 17.6875 33.9309 17.6875 36.2465C17.6875 42.0641 22.3075 46.7891 28 46.7891C33.6925 46.7891 38.3125 42.0641 38.3125 36.2465C38.3125 33.9309 37.315 30.6972 35.9519 27.2929C33.4375 21.0172 29.6388 14.2086 28 11.3679Z" fill="white"/>
<path fill-rule="evenodd" clip-rule="evenodd" d="M46.09 8.82044L8.59 46.7622C8.2225 47.1341 8.22062 47.7417 8.58437 48.1174C8.94812 48.4931 9.5425 48.497 9.91 48.1232L47.41 10.1814C47.7775 9.80952 47.7794 9.20189 47.4156 8.82619C47.0519 8.45049 46.4575 8.44857 46.09 8.82044Z" fill="white"/>
<path fill-rule="evenodd" clip-rule="evenodd" d="M27.8537 44.9508C27.8537 44.9508 29.8581 45.3055 32.1494 43.9177C33.5819 43.0513 35.1569 41.489 36.3606 38.633C36.565 38.148 36.3456 37.5825 35.8712 37.3736C35.3969 37.1647 34.8438 37.3889 34.6394 37.8739C32.2244 43.6014 28.1462 43.057 28.1462 43.057C27.6362 42.9746 27.1544 43.3311 27.0737 43.8544C26.9931 44.3758 27.3419 44.8684 27.8537 44.9508Z" fill="white"/>
</svg>
