<svg width="50" height="50" viewBox="0 0 50 50" fill="none" xmlns="http://www.w3.org/2000/svg">
<g clip-path="url(#clip0_109_380)">
<mask id="mask0_109_380" style="mask-type:luminance" maskUnits="userSpaceOnUse" x="-4" y="-4" width="58" height="58">
<path d="M-3.56836 -3.5712H53.5745V53.5717H-3.56836V-3.5712Z" fill="white"/>
</mask>
<g mask="url(#mask0_109_380)">
<path d="M41.0751 33.0054C41.0751 36.8732 33.7152 40.1411 25.0036 40.1411C16.292 40.1411 8.9322 36.8732 8.9322 33.0054V23.1723C11.7947 26.15 17.834 28.1643 25.0036 28.1643C32.1733 28.1643 38.2126 26.15 41.0751 23.1723V33.0054ZM37.5036 42.7696C37.5036 45.3991 32.4813 48.2143 25.0036 48.2143C17.5259 48.2143 12.5036 45.3991 12.5036 42.7696V39.425C15.7027 40.9795 20.0884 41.9268 25.0036 41.9268C29.9188 41.9268 34.3045 40.9795 37.5036 39.425V42.7696ZM9.22327 13.1518C9.40809 13.3268 9.60452 13.4982 9.81166 13.6661C9.87059 13.7143 9.92684 13.7625 9.98756 13.8098C10.2188 13.9893 10.4608 14.1652 10.7179 14.3357V22.4429C9.58756 21.4732 8.9322 20.3857 8.9322 19.2429V12.875C8.96791 12.9116 9.00898 12.9464 9.04559 12.9821C9.10273 13.0393 9.16345 13.0955 9.22327 13.1518ZM25.0036 1.78571C33.7152 1.78571 41.0751 5.05357 41.0751 8.92142C41.0751 10.8616 39.1884 12.6616 36.201 13.9696C36.4617 13.5107 36.6108 13.025 36.6108 12.517C36.6108 9.45893 31.6206 7.15357 25.0036 7.15357C18.3867 7.15357 13.3965 9.45893 13.3965 12.517C13.3965 13.025 13.5456 13.5107 13.8063 13.9705C10.8188 12.6616 8.9322 10.8616 8.9322 8.92142C8.9322 5.05357 16.292 1.78571 25.0036 1.78571ZM34.8251 16.4071C35.0304 16.3402 35.2331 16.2714 35.4322 16.2009C35.5438 16.1616 35.6545 16.1214 35.7643 16.0813C36.1304 15.9455 36.4876 15.8036 36.8304 15.6545C36.8554 15.6437 36.8822 15.633 36.9072 15.6223C37.1126 15.5321 37.3072 15.4366 37.5036 15.342V23.6625C36.7143 24.0982 35.8143 24.4911 34.8251 24.8375V16.4071ZM30.3608 17.4384C30.6063 17.4009 30.8518 17.3634 31.092 17.3214C31.2108 17.3009 31.326 17.2777 31.4429 17.2554C31.8152 17.1857 32.1813 17.1098 32.5411 17.0286C32.6572 17.0027 32.7742 16.9768 32.8893 16.95C32.9384 16.9375 32.9902 16.9277 33.0393 16.9152V25.3804C32.1902 25.6045 31.2947 25.7929 30.3608 25.9455V17.4384ZM25.8965 17.8607C26.5563 17.8402 27.1956 17.7946 27.8143 17.7286C27.917 17.7205 28.017 17.7098 28.1188 17.7009C28.2706 17.6884 28.4251 17.6786 28.5751 17.6643V26.1857C27.7045 26.2786 26.809 26.3339 25.8965 26.358V17.8607ZM16.9679 16.9152C17.0179 16.9286 17.0706 16.9384 17.1206 16.9509C17.2322 16.9768 17.3465 17.0018 17.4599 17.0268C17.8233 17.1098 18.1929 17.1866 18.5706 17.2562C18.684 17.2777 18.7956 17.3009 18.9108 17.3205C19.1527 17.3625 19.3992 17.4009 19.6465 17.4384V25.9455C18.7126 25.7929 17.817 25.6045 16.9679 25.3804V16.9152ZM15.1822 12.517C15.1822 10.8277 19.3822 8.93929 25.0036 8.93929C30.6251 8.93929 34.8251 10.8277 34.8251 12.517C34.8251 13.9393 31.8402 15.4991 27.542 15.9571C27.0581 15.9929 26.5688 16.0196 26.0724 16.0339C25.367 16.0563 24.6411 16.0563 23.9331 16.0339C23.4384 16.0196 22.9492 15.9929 22.4661 15.9571C18.167 15.4991 15.1822 13.9393 15.1822 12.517ZM13.1036 15.6241C13.1206 15.6321 13.1384 15.6384 13.1554 15.6464C13.5063 15.7991 13.8724 15.9438 14.2483 16.083C14.3536 16.1223 14.4608 16.1607 14.5688 16.1991C14.7706 16.2705 14.9742 16.3402 15.1822 16.4071V24.8375C14.1929 24.4911 13.2929 24.0982 12.5036 23.6625V15.342C12.7009 15.4375 12.8974 15.5339 13.1036 15.6241ZM21.4322 26.1857V17.6643C21.5813 17.6786 21.7358 17.6884 21.8867 17.7009C21.9902 17.7098 22.0902 17.7205 22.1938 17.7286C22.8126 17.7946 23.4518 17.8402 24.1108 17.8607V26.358C23.1983 26.3339 22.3027 26.2786 21.4322 26.1857ZM41.0751 12.875V19.2429C41.0751 20.3857 40.4197 21.4732 39.2893 22.4429V14.3357C39.5456 14.1652 39.7876 13.9902 40.0188 13.8098C40.0804 13.7625 40.1376 13.7134 40.1974 13.6652C40.4036 13.4973 40.5992 13.3268 40.7831 13.1527C40.8429 13.0955 40.9045 13.0402 40.9626 12.9821C40.9983 12.9464 41.0393 12.9116 41.0751 12.875ZM42.8608 8.92142C42.8608 3.91875 35.017 0 25.0036 0C14.9902 0 7.14648 3.91875 7.14648 8.92142V19.2429C7.14648 19.3402 7.1688 19.4339 7.17416 19.5304C7.16702 19.5777 7.14648 19.6205 7.14648 19.6696V33.0054C7.14648 35.0562 8.48041 36.9187 10.7259 38.4098C10.7251 38.4223 10.7179 38.4339 10.7179 38.4473V42.7696C10.7179 46.8241 16.9929 50 25.0036 50C33.0143 50 39.2893 46.8241 39.2893 42.7696V38.4473C39.2893 38.4339 39.2822 38.4223 39.2813 38.4098C41.5268 36.9187 42.8608 35.0562 42.8608 33.0054V19.6696C42.8608 19.6205 42.8402 19.5777 42.8331 19.5304C42.8385 19.4339 42.8608 19.3402 42.8608 19.2429V8.92142Z" fill="#272324"/>
</g>
</g>
<defs>
<clipPath id="clip0_109_380">
<rect width="50" height="50" fill="white"/>
</clipPath>
</defs>
</svg>
