<svg width="24" height="24" viewBox="0 0 24 24" fill="none" xmlns="http://www.w3.org/2000/svg">
<mask id="path-1-outside-1_151_1439" maskUnits="userSpaceOnUse" x="0" y="0" width="24" height="24" fill="black">
<rect fill="white" width="24" height="24"/>
<path fill-rule="evenodd" clip-rule="evenodd" d="M1.14568 11.8543C1.14568 5.88079 6.02651 1 12.0364 1C18.0828 1 23 5.88079 23 11.8543C23 17.8278 17.9735 22.8543 12.0364 22.8543C10.3609 22.8543 8.57613 22.3444 6.86422 21.4338L1 23L2.60264 17.2451C1.65562 15.5695 1.14568 13.7484 1.14568 11.8543ZM7.08276 20.7053C8.72185 21.6159 10.4338 22.1258 12.0364 22.1258C17.5729 22.1258 22.2715 17.4272 22.2715 11.8543C22.2715 6.28146 17.6821 1.72848 12.0364 1.72848C6.42714 1.72848 1.87416 6.28146 1.87416 11.8543C1.87416 13.6391 2.38406 15.4239 3.29467 16.9901L3.36753 17.1358L2.01988 21.9801L6.93708 20.6325L7.08276 20.7053ZM16.2252 12.4426L19.0175 13.7032C19.3721 13.8771 19.5937 14.2683 19.5051 14.6596L19.3721 15.2682C19.1948 16.0507 18.7073 16.7897 17.9981 17.2244C17.3776 17.5721 16.6684 17.7895 15.9149 17.7895C15.516 17.7895 15.0728 17.746 14.6296 17.6156C10.1973 16.3985 7.89252 13.312 7.13903 12.2688C5.89797 10.6169 5.41046 8.92152 5.7207 7.48701C5.94233 6.48719 6.69582 5.74818 7.09472 5.40041C7.36065 5.13959 7.75955 5.05263 8.11415 5.05263L8.95631 5.09608C9.3109 5.09608 9.57684 5.31345 9.7098 5.61772L10.9065 8.39983C11.0395 8.7041 10.9952 9.05188 10.7735 9.31269L9.79841 10.4429C11.0838 12.7904 13.2999 13.7467 14.0977 14.051L15.1614 12.7034C15.4274 12.3991 15.8263 12.2687 16.2252 12.4426ZM17.4662 16.4418C17.9537 16.1375 18.3083 15.6159 18.4413 15.0508L18.6186 14.4422L15.8263 13.1816L14.7625 14.5726C14.5409 14.8335 14.2306 14.9204 13.9204 14.8335C13.1226 14.5726 10.4632 13.4859 9.00056 10.7037C8.86759 10.4429 8.91195 10.0952 9.08922 9.87778L10.153 8.7041L8.95625 5.96545L8.06979 5.87849C7.93683 5.87849 7.80386 5.92194 7.7152 6.0089C7.3606 6.31317 6.78438 6.87831 6.60711 7.66077C6.34117 8.83446 6.78443 10.3125 7.84816 11.747C8.5573 12.7033 10.7291 15.6159 14.8511 16.7461C15.8262 17.0069 16.7127 16.92 17.4662 16.4418Z"/>
</mask>
<path fill-rule="evenodd" clip-rule="evenodd" d="M1.14568 11.8543C1.14568 5.88079 6.02651 1 12.0364 1C18.0828 1 23 5.88079 23 11.8543C23 17.8278 17.9735 22.8543 12.0364 22.8543C10.3609 22.8543 8.57613 22.3444 6.86422 21.4338L1 23L2.60264 17.2451C1.65562 15.5695 1.14568 13.7484 1.14568 11.8543ZM7.08276 20.7053C8.72185 21.6159 10.4338 22.1258 12.0364 22.1258C17.5729 22.1258 22.2715 17.4272 22.2715 11.8543C22.2715 6.28146 17.6821 1.72848 12.0364 1.72848C6.42714 1.72848 1.87416 6.28146 1.87416 11.8543C1.87416 13.6391 2.38406 15.4239 3.29467 16.9901L3.36753 17.1358L2.01988 21.9801L6.93708 20.6325L7.08276 20.7053ZM16.2252 12.4426L19.0175 13.7032C19.3721 13.8771 19.5937 14.2683 19.5051 14.6596L19.3721 15.2682C19.1948 16.0507 18.7073 16.7897 17.9981 17.2244C17.3776 17.5721 16.6684 17.7895 15.9149 17.7895C15.516 17.7895 15.0728 17.746 14.6296 17.6156C10.1973 16.3985 7.89252 13.312 7.13903 12.2688C5.89797 10.6169 5.41046 8.92152 5.7207 7.48701C5.94233 6.48719 6.69582 5.74818 7.09472 5.40041C7.36065 5.13959 7.75955 5.05263 8.11415 5.05263L8.95631 5.09608C9.3109 5.09608 9.57684 5.31345 9.7098 5.61772L10.9065 8.39983C11.0395 8.7041 10.9952 9.05188 10.7735 9.31269L9.79841 10.4429C11.0838 12.7904 13.2999 13.7467 14.0977 14.051L15.1614 12.7034C15.4274 12.3991 15.8263 12.2687 16.2252 12.4426ZM17.4662 16.4418C17.9537 16.1375 18.3083 15.6159 18.4413 15.0508L18.6186 14.4422L15.8263 13.1816L14.7625 14.5726C14.5409 14.8335 14.2306 14.9204 13.9204 14.8335C13.1226 14.5726 10.4632 13.4859 9.00056 10.7037C8.86759 10.4429 8.91195 10.0952 9.08922 9.87778L10.153 8.7041L8.95625 5.96545L8.06979 5.87849C7.93683 5.87849 7.80386 5.92194 7.7152 6.0089C7.3606 6.31317 6.78438 6.87831 6.60711 7.66077C6.34117 8.83446 6.78443 10.3125 7.84816 11.747C8.5573 12.7033 10.7291 15.6159 14.8511 16.7461C15.8262 17.0069 16.7127 16.92 17.4662 16.4418Z" fill="#272324"/>
<path d="M6.86422 21.4338L7.09903 20.9923L6.92531 20.8999L6.7352 20.9507L6.86422 21.4338ZM1 23L0.518328 22.8659L0.283567 23.7089L1.12902 23.4831L1 23ZM2.60264 17.2451L3.08431 17.3792L3.13993 17.1795L3.03792 16.999L2.60264 17.2451ZM7.08276 20.7053L7.32557 20.2682L7.31611 20.263L7.30642 20.2581L7.08276 20.7053ZM3.29467 16.9901L3.74186 16.7664L3.73483 16.7524L3.72692 16.7388L3.29467 16.9901ZM3.36753 17.1358L3.84924 17.2698L3.90084 17.0843L3.81472 16.9121L3.36753 17.1358ZM2.01988 21.9801L1.53818 21.8461L1.30193 22.6953L2.15204 22.4623L2.01988 21.9801ZM6.93708 20.6325L7.16074 20.1853L6.98953 20.0997L6.80492 20.1502L6.93708 20.6325ZM19.0175 13.7032L19.2376 13.2543L19.2305 13.2508L19.2233 13.2475L19.0175 13.7032ZM16.2252 12.4426L16.4309 11.9868L16.4249 11.9842L16.2252 12.4426ZM19.5051 14.6596L19.0174 14.5492L19.0166 14.5529L19.5051 14.6596ZM19.3721 15.2682L19.8598 15.3787L19.8606 15.3749L19.3721 15.2682ZM17.9981 17.2244L18.2425 17.6606L18.251 17.6558L18.2594 17.6507L17.9981 17.2244ZM14.6296 17.6156L14.7707 17.1359L14.762 17.1335L14.6296 17.6156ZM7.13903 12.2688L7.54444 11.976L7.53878 11.9684L7.13903 12.2688ZM5.7207 7.48701L5.23254 7.3788L5.232 7.38132L5.7207 7.48701ZM7.09472 5.40041L7.4233 5.77729L7.43435 5.76765L7.44483 5.75738L7.09472 5.40041ZM8.11415 5.05263L8.13991 4.55329L8.12704 4.55263H8.11415V5.05263ZM8.95631 5.09608L8.93054 5.59542L8.94342 5.59608H8.95631V5.09608ZM9.7098 5.61772L10.1691 5.42015L10.168 5.4175L9.7098 5.61772ZM10.9065 8.39983L10.4472 8.5974L10.4483 8.60004L10.9065 8.39983ZM10.7735 9.31269L11.1521 9.63932L11.1546 9.63646L10.7735 9.31269ZM9.79841 10.4429L9.41984 10.1163L9.1933 10.3789L9.35985 10.6831L9.79841 10.4429ZM14.0977 14.051L13.9195 14.5182L14.2626 14.649L14.4902 14.3608L14.0977 14.051ZM15.1614 12.7034L14.785 12.3744L14.7767 12.3838L14.769 12.3936L15.1614 12.7034ZM18.4413 15.0508L17.9613 14.9109L17.9576 14.9235L17.9546 14.9362L18.4413 15.0508ZM17.4662 16.4418L17.2015 16.0176L17.1983 16.0197L17.4662 16.4418ZM18.6186 14.4422L19.0987 14.5821L19.2201 14.1652L18.8244 13.9865L18.6186 14.4422ZM15.8263 13.1816L16.032 12.7259L15.6702 12.5625L15.4291 12.8779L15.8263 13.1816ZM14.7625 14.5726L15.1436 14.8964L15.1519 14.8866L15.1597 14.8764L14.7625 14.5726ZM13.9204 14.8335L13.765 15.3087L13.7752 15.312L13.7854 15.3149L13.9204 14.8335ZM9.00056 10.7037L8.55505 10.9308L8.55799 10.9364L9.00056 10.7037ZM9.08922 9.87778L8.71874 9.54201L8.70998 9.55167L8.70174 9.56178L9.08922 9.87778ZM10.153 8.7041L10.5234 9.03987L10.7406 8.80024L10.6111 8.50389L10.153 8.7041ZM8.95625 5.96545L9.41442 5.76524L9.29698 5.49647L9.00507 5.46783L8.95625 5.96545ZM8.06979 5.87849L8.11861 5.38088L8.09426 5.37849H8.06979V5.87849ZM7.7152 6.0089L8.0408 6.38835L8.05342 6.37752L8.0653 6.36587L7.7152 6.0089ZM6.60711 7.66077L7.09475 7.77126L7.09475 7.77125L6.60711 7.66077ZM7.84816 11.747L8.2498 11.4492L8.24979 11.4492L7.84816 11.747ZM14.8511 16.7461L14.7189 17.2283L14.7219 17.2291L14.8511 16.7461ZM12.0364 0.5C5.75146 0.5 0.645679 5.60356 0.645679 11.8543H1.64568C1.64568 6.15802 6.30156 1.5 12.0364 1.5V0.5ZM23.5 11.8543C23.5 5.60031 18.3545 0.5 12.0364 0.5V1.5C17.811 1.5 22.5 6.16127 22.5 11.8543H23.5ZM12.0364 23.3543C18.2507 23.3543 23.5 18.1028 23.5 11.8543H22.5C22.5 17.5527 17.6963 22.3543 12.0364 22.3543V23.3543ZM6.62941 21.8752C8.39686 22.8154 10.2619 23.3543 12.0364 23.3543V22.3543C10.4599 22.3543 8.7554 21.8734 7.09903 20.9923L6.62941 21.8752ZM1.12902 23.4831L6.99324 21.9168L6.7352 20.9507L0.870981 22.5169L1.12902 23.4831ZM2.12097 17.1109L0.518328 22.8659L1.48167 23.1341L3.08431 17.3792L2.12097 17.1109ZM0.645679 11.8543C0.645679 13.8407 1.18103 15.746 2.16736 17.4911L3.03792 16.999C2.13021 15.3931 1.64568 13.656 1.64568 11.8543H0.645679ZM12.0364 21.6258C10.5372 21.6258 8.9084 21.1476 7.32557 20.2682L6.83995 21.1424C8.53531 22.0842 10.3303 22.6258 12.0364 22.6258V21.6258ZM21.7715 11.8543C21.7715 17.1522 17.2956 21.6258 12.0364 21.6258V22.6258C17.8502 22.6258 22.7715 17.7022 22.7715 11.8543H21.7715ZM12.0364 2.22848C17.4106 2.22848 21.7715 6.56225 21.7715 11.8543H22.7715C22.7715 6.00067 17.9536 1.22848 12.0364 1.22848V2.22848ZM2.37416 11.8543C2.37416 6.55877 6.70211 2.22848 12.0364 2.22848V1.22848C6.15216 1.22848 1.37416 6.00415 1.37416 11.8543H2.37416ZM3.72692 16.7388C2.85761 15.2436 2.37416 13.5449 2.37416 11.8543H1.37416C1.37416 13.7333 1.9105 15.6041 2.86242 17.2414L3.72692 16.7388ZM3.81472 16.9121L3.74186 16.7664L2.84749 17.2138L2.92035 17.3594L3.81472 16.9121ZM2.50159 22.1141L3.84924 17.2698L2.88583 17.0018L1.53818 21.8461L2.50159 22.1141ZM6.80492 20.1502L1.88772 21.4979L2.15204 22.4623L7.06924 21.1147L6.80492 20.1502ZM7.30642 20.2581L7.16074 20.1853L6.71342 21.0797L6.8591 21.1525L7.30642 20.2581ZM19.2233 13.2475L16.4309 11.9869L16.0194 12.8983L18.8118 14.1589L19.2233 13.2475ZM19.9927 14.77C20.1395 14.1219 19.7703 13.5155 19.2376 13.2543L18.7974 14.1522C18.9739 14.2387 19.0479 14.4148 19.0174 14.5492L19.9927 14.77ZM19.8606 15.3749L19.9936 14.7663L19.0166 14.5529L18.8836 15.1615L19.8606 15.3749ZM18.2594 17.6507C19.094 17.1391 19.6555 16.2801 19.8598 15.3787L18.8845 15.1577C18.7341 15.8213 18.3205 16.4403 17.7368 16.7981L18.2594 17.6507ZM15.9149 18.2895C16.7659 18.2895 17.5584 18.0439 18.2425 17.6606L17.7537 16.7882C17.1967 17.1003 16.571 17.2895 15.9149 17.2895V18.2895ZM14.4884 18.0953C14.9884 18.2424 15.4812 18.2895 15.9149 18.2895V17.2895C15.5509 17.2895 15.1572 17.2497 14.7707 17.1359L14.4884 18.0953ZM6.73369 12.5615C7.50452 13.6288 9.89462 16.8339 14.4972 18.0978L14.762 17.1335C10.5 15.9631 8.28052 12.9953 7.54436 11.976L6.73369 12.5615ZM5.232 7.38132C4.88101 9.00423 5.44446 10.8457 6.73928 12.5691L7.53878 11.9684C6.35148 10.3881 5.93991 8.8388 6.2094 7.5927L5.232 7.38132ZM6.76615 5.02353C6.35411 5.38276 5.49112 6.2123 5.23255 7.3788L6.20885 7.59522C6.39353 6.76207 7.03754 6.11361 7.4233 5.77729L6.76615 5.02353ZM8.11415 4.55263C7.70086 4.55263 7.14531 4.65045 6.74462 5.04344L7.44483 5.75738C7.576 5.62873 7.81825 5.55263 8.11415 5.55263V4.55263ZM8.98207 4.59675L8.13991 4.55329L8.08839 5.55197L8.93054 5.59542L8.98207 4.59675ZM10.168 5.4175C9.97124 4.96733 9.54634 4.59608 8.95631 4.59608V5.59608C9.07546 5.59608 9.18243 5.65957 9.25164 5.81794L10.168 5.4175ZM11.3658 8.20226L10.1691 5.42015L9.25049 5.81529L10.4472 8.5974L11.3658 8.20226ZM11.1546 9.63646C11.5032 9.2262 11.5721 8.67425 11.3647 8.19961L10.4483 8.60004C10.5069 8.73395 10.4872 8.87755 10.3925 8.98893L11.1546 9.63646ZM10.177 10.7695L11.1521 9.63932L10.395 8.98607L9.41984 10.1163L10.177 10.7695ZM14.2759 13.5838C13.5087 13.2912 11.4344 12.3896 10.237 10.2028L9.35985 10.6831C10.7332 13.1911 13.0911 14.2022 13.9195 14.5182L14.2759 13.5838ZM14.769 12.3936L13.7052 13.7412L14.4902 14.3608L15.5539 13.0132L14.769 12.3936ZM16.4249 11.9842C15.7964 11.7103 15.1716 11.932 14.785 12.3744L15.5379 13.0324C15.6831 12.8663 15.8561 12.8272 16.0254 12.9009L16.4249 11.9842ZM17.9546 14.9362C17.8494 15.3832 17.5683 15.7887 17.2015 16.0176L17.7309 16.866C18.3391 16.4864 18.7672 15.8485 18.928 15.1653L17.9546 14.9362ZM18.1386 14.3023L17.9613 14.9109L18.9213 15.1906L19.0987 14.5821L18.1386 14.3023ZM15.6205 13.6373L18.4129 14.8979L18.8244 13.9865L16.032 12.7259L15.6205 13.6373ZM15.1597 14.8764L16.2235 13.4853L15.4291 12.8779L14.3654 14.2689L15.1597 14.8764ZM13.7854 15.3149C14.281 15.4538 14.7937 15.3081 15.1436 14.8964L14.3815 14.2489C14.2881 14.3588 14.1802 14.387 14.0553 14.352L13.7854 15.3149ZM8.55799 10.9364C10.1101 13.8887 12.919 15.0321 13.765 15.3087L14.0757 14.3582C13.3261 14.1131 10.8163 13.083 9.44313 10.4711L8.55799 10.9364ZM8.70174 9.56178C8.40252 9.92868 8.32982 10.4888 8.55509 10.9308L9.44603 10.4767C9.40536 10.3969 9.42138 10.2616 9.4767 10.1938L8.70174 9.56178ZM9.78247 8.36833L8.71874 9.54201L9.4597 10.2136L10.5234 9.03987L9.78247 8.36833ZM8.49809 6.16565L9.69479 8.9043L10.6111 8.50389L9.41442 5.76524L8.49809 6.16565ZM8.02098 6.3761L8.90744 6.46306L9.00507 5.46783L8.11861 5.38088L8.02098 6.3761ZM8.0653 6.36587C8.05771 6.37331 8.05136 6.37769 8.04767 6.37992C8.04403 6.38211 8.04254 6.38249 8.04382 6.38204C8.04509 6.38159 8.04819 6.38063 8.05307 6.37981C8.05793 6.379 8.06363 6.37849 8.06979 6.37849V5.37849C7.84032 5.37849 7.56922 5.45173 7.36509 5.65193L8.0653 6.36587ZM7.09475 7.77125C7.23435 7.15504 7.70124 6.67972 8.0408 6.38835L7.3896 5.62945C7.01997 5.94662 6.3344 6.60159 6.11946 7.55029L7.09475 7.77125ZM8.24979 11.4492C7.23165 10.0761 6.87368 8.74694 7.09475 7.77126L6.11947 7.55028C5.80867 8.92198 6.33721 10.5488 7.44654 12.0448L8.24979 11.4492ZM14.9834 16.2639C11.0327 15.1806 8.94654 12.3888 8.2498 11.4492L7.44653 12.0448C8.16806 13.0179 10.4256 16.0511 14.7189 17.2283L14.9834 16.2639ZM17.1983 16.0197C16.5867 16.4078 15.8504 16.4958 14.9803 16.2631L14.7219 17.2291C15.8021 17.518 16.8386 17.4323 17.7341 16.864L17.1983 16.0197Z" fill="#272324" mask="url(#path-1-outside-1_151_1439)"/>
</svg>
